<ttFont>
    <TTGlyph name=".notdef" xMin="90" yMin="0" xMax="1350" yMax="1291">
      <contour>
        <pt x="936" y="28" on="1"/>
        <pt x="1314" y="1263" on="1"/>
        <pt x="502" y="1263" on="1"/>
        <pt x="125" y="28" on="1"/>
      </contour>
      <contour>
        <pt x="485" y="1291" on="1"/>
        <pt x="1350" y="1291" on="1"/>
        <pt x="955" y="0" on="1"/>
        <pt x="90" y="0" on="1"/>
      </contour>
    </TTGlyph>
    <TTGlyph name="A" xMin="-172" yMin="-22" xMax="1828" yMax="1427">
      <contour>
        <pt x="1524" y="1171" on="1"/>
        <pt x="1513" y="1171" on="0"/>
        <pt x="1492" y="1169" on="0"/>
        <pt x="1487" y="1163" on="1"/>
        <pt x="1485" y="1161" on="0"/>
        <pt x="1468" y="1145" on="0"/>
        <pt x="1450" y="1126" on="0"/>
        <pt x="1434" y="1110" on="0"/>
        <pt x="1432" y="1107" on="1"/>
        <pt x="1430" y="1105" on="0"/>
        <pt x="1407" y="1091" on="0"/>
        <pt x="1403" y="1086" on="1"/>
        <pt x="1401" y="1084" on="0"/>
        <pt x="1380" y="1071" on="0"/>
        <pt x="1378" y="1069" on="1"/>
        <pt x="1374" y="1066" on="0"/>
        <pt x="1345" y="1038" on="0"/>
        <pt x="1312" y="1005" on="0"/>
        <pt x="1282" y="976" on="0"/>
        <pt x="1278" y="972" on="1"/>
        <pt x="1275" y="968" on="0"/>
        <pt x="1247" y="940" on="0"/>
        <pt x="1214" y="909" on="0"/>
        <pt x="1184" y="882" on="0"/>
        <pt x="1181" y="879" on="1"/>
        <pt x="1178" y="877" on="0"/>
        <pt x="1167" y="864" on="0"/>
        <pt x="1154" y="849" on="0"/>
        <pt x="1143" y="836" on="0"/>
        <pt x="1141" y="834" on="1"/>
        <pt x="1122" y="813" on="0"/>
        <pt x="1073" y="783" on="0"/>
        <pt x="1050" y="766" on="1"/>
        <pt x="1049" y="765" on="0"/>
        <pt x="1040" y="758" on="0"/>
        <pt x="1030" y="749" on="0"/>
        <pt x="1020" y="741" on="0"/>
        <pt x="1019" y="740" on="1"/>
        <pt x="1018" y="740" on="0"/>
        <pt x="1015" y="737" on="1"/>
        <pt x="1013" y="735" on="1"/>
        <pt x="1007" y="724" on="0"/>
        <pt x="1003" y="710" on="0"/>
        <pt x="1003" y="699" on="1"/>
        <pt x="1003" y="687" on="1"/>
        <pt x="1005" y="687" on="0"/>
        <pt x="1017" y="688" on="0"/>
        <pt x="1019" y="690" on="1"/>
        <pt x="1021" y="690" on="0"/>
        <pt x="1033" y="695" on="0"/>
        <pt x="1036" y="695" on="1"/>
        <pt x="1072" y="695" on="1"/>
        <pt x="1105" y="695" on="0"/>
        <pt x="1160" y="687" on="0"/>
        <pt x="1190" y="687" on="1"/>
        <pt x="1229" y="687" on="0"/>
        <pt x="1302" y="699" on="0"/>
        <pt x="1340" y="704" on="1"/>
        <pt x="1358" y="717" on="0"/>
        <pt x="1381" y="753" on="0"/>
        <pt x="1397" y="794" on="0"/>
        <pt x="1409" y="836" on="0"/>
        <pt x="1417" y="856" on="1"/>
        <pt x="1431" y="891" on="0"/>
        <pt x="1466" y="958" on="0"/>
        <pt x="1479" y="993" on="1"/>
        <pt x="1482" y="1004" on="0"/>
        <pt x="1489" y="1036" on="0"/>
        <pt x="1500" y="1068" on="0"/>
        <pt x="1514" y="1095" on="0"/>
        <pt x="1524" y="1100" on="1"/>
      </contour>
      <contour>
        <pt x="-172" y="43" on="1"/>
        <pt x="-172" y="59" on="0"/>
        <pt x="-160" y="98" on="0"/>
        <pt x="-140" y="102" on="1"/>
        <pt x="-136" y="102" on="0"/>
        <pt x="-105" y="106" on="0"/>
        <pt x="-69" y="111" on="0"/>
        <pt x="-37" y="116" on="0"/>
        <pt x="-33" y="118" on="1"/>
        <pt x="-24" y="118" on="0"/>
        <pt x="16" y="126" on="0"/>
        <pt x="59" y="136" on="0"/>
        <pt x="97" y="145" on="0"/>
        <pt x="103" y="147" on="1"/>
        <pt x="105" y="147" on="0"/>
        <pt x="129" y="158" on="0"/>
        <pt x="133" y="161" on="1"/>
        <pt x="134" y="161" on="0"/>
        <pt x="141" y="165" on="0"/>
        <pt x="149" y="171" on="0"/>
        <pt x="156" y="177" on="0"/>
        <pt x="157" y="178" on="1"/>
        <pt x="158" y="179" on="0"/>
        <pt x="170" y="183" on="0"/>
        <pt x="183" y="187" on="0"/>
        <pt x="194" y="191" on="0"/>
        <pt x="195" y="192" on="1"/>
        <pt x="227" y="210" on="0"/>
        <pt x="284" y="267" on="0"/>
        <pt x="311" y="292" on="1"/>
        <pt x="325" y="304" on="0"/>
        <pt x="363" y="324" on="0"/>
        <pt x="377" y="336" on="1"/>
        <pt x="378" y="337" on="0"/>
        <pt x="385" y="344" on="0"/>
        <pt x="393" y="353" on="0"/>
        <pt x="400" y="360" on="0"/>
        <pt x="401" y="362" on="1"/>
        <pt x="403" y="362" on="0"/>
        <pt x="414" y="368" on="0"/>
        <pt x="427" y="375" on="0"/>
        <pt x="438" y="382" on="0"/>
        <pt x="439" y="384" on="1"/>
        <pt x="442" y="386" on="0"/>
        <pt x="462" y="406" on="0"/>
        <pt x="485" y="429" on="0"/>
        <pt x="505" y="449" on="0"/>
        <pt x="508" y="452" on="1"/>
        <pt x="512" y="455" on="0"/>
        <pt x="546" y="480" on="0"/>
        <pt x="585" y="509" on="0"/>
        <pt x="618" y="533" on="0"/>
        <pt x="622" y="536" on="1"/>
        <pt x="624" y="537" on="0"/>
        <pt x="637" y="550" on="0"/>
        <pt x="652" y="564" on="0"/>
        <pt x="666" y="578" on="0"/>
        <pt x="669" y="581" on="1"/>
        <pt x="669" y="583" on="0"/>
        <pt x="674" y="595" on="0"/>
        <pt x="676" y="595" on="1"/>
        <pt x="678" y="596" on="0"/>
        <pt x="689" y="604" on="0"/>
        <pt x="703" y="613" on="0"/>
        <pt x="714" y="620" on="0"/>
        <pt x="716" y="621" on="1"/>
        <pt x="752" y="646" on="0"/>
        <pt x="822" y="705" on="0"/>
        <pt x="861" y="735" on="1"/>
        <pt x="863" y="736" on="0"/>
        <pt x="883" y="750" on="0"/>
        <pt x="906" y="765" on="0"/>
        <pt x="927" y="778" on="0"/>
        <pt x="930" y="778" on="1"/>
        <pt x="931" y="781" on="0"/>
        <pt x="946" y="797" on="0"/>
        <pt x="963" y="816" on="0"/>
        <pt x="979" y="832" on="0"/>
        <pt x="981" y="834" on="1"/>
        <pt x="984" y="834" on="0"/>
        <pt x="989" y="837" on="1"/>
        <pt x="992" y="839" on="0"/>
        <pt x="994" y="841" on="1"/>
        <pt x="996" y="843" on="0"/>
        <pt x="1012" y="856" on="0"/>
        <pt x="1013" y="856" on="1"/>
        <pt x="1019" y="863" on="0"/>
        <pt x="1046" y="889" on="0"/>
        <pt x="1076" y="916" on="0"/>
        <pt x="1100" y="938" on="0"/>
        <pt x="1103" y="941" on="1"/>
        <pt x="1107" y="944" on="0"/>
        <pt x="1122" y="956" on="0"/>
        <pt x="1137" y="967" on="0"/>
        <pt x="1149" y="977" on="0"/>
        <pt x="1150" y="979" on="1"/>
        <pt x="1153" y="980" on="0"/>
        <pt x="1171" y="991" on="0"/>
        <pt x="1191" y="1004" on="0"/>
        <pt x="1209" y="1014" on="0"/>
        <pt x="1211" y="1016" on="1"/>
        <pt x="1243" y="1042" on="0"/>
        <pt x="1304" y="1104" on="0"/>
        <pt x="1333" y="1130" on="1"/>
        <pt x="1352" y="1150" on="0"/>
        <pt x="1387" y="1172" on="0"/>
        <pt x="1408" y="1185" on="1"/>
        <pt x="1431" y="1199" on="0"/>
        <pt x="1481" y="1243" on="0"/>
        <pt x="1501" y="1261" on="1"/>
        <pt x="1506" y="1266" on="0"/>
        <pt x="1533" y="1292" on="0"/>
        <pt x="1562" y="1322" on="0"/>
        <pt x="1587" y="1348" on="0"/>
        <pt x="1591" y="1353" on="1"/>
        <pt x="1594" y="1355" on="0"/>
        <pt x="1605" y="1374" on="0"/>
        <pt x="1607" y="1374" on="1"/>
        <pt x="1609" y="1378" on="0"/>
        <pt x="1620" y="1391" on="0"/>
        <pt x="1634" y="1404" on="0"/>
        <pt x="1649" y="1414" on="0"/>
        <pt x="1654" y="1415" on="1"/>
        <pt x="1656" y="1415" on="0"/>
        <pt x="1676" y="1417" on="0"/>
        <pt x="1698" y="1419" on="0"/>
        <pt x="1718" y="1421" on="0"/>
        <pt x="1721" y="1422" on="1"/>
        <pt x="1725" y="1422" on="0"/>
        <pt x="1744" y="1427" on="0"/>
        <pt x="1745" y="1427" on="1"/>
        <pt x="1773" y="1427" on="1"/>
        <pt x="1792" y="1427" on="1"/>
        <pt x="1809" y="1427" on="0"/>
        <pt x="1828" y="1416" on="0"/>
        <pt x="1828" y="1393" on="1"/>
        <pt x="1828" y="1370" on="0"/>
        <pt x="1819" y="1333" on="0"/>
        <pt x="1804" y="1299" on="0"/>
        <pt x="1785" y="1265" on="0"/>
        <pt x="1776" y="1244" on="1"/>
        <pt x="1775" y="1242" on="0"/>
        <pt x="1769" y="1219" on="0"/>
        <pt x="1768" y="1214" on="1"/>
        <pt x="1767" y="1212" on="0"/>
        <pt x="1756" y="1195" on="0"/>
        <pt x="1743" y="1175" on="0"/>
        <pt x="1732" y="1158" on="0"/>
        <pt x="1731" y="1156" on="1"/>
        <pt x="1731" y="1154" on="0"/>
        <pt x="1729" y="1145" on="0"/>
        <pt x="1726" y="1134" on="0"/>
        <pt x="1723" y="1125" on="0"/>
        <pt x="1721" y="1124" on="1"/>
        <pt x="1705" y="1082" on="0"/>
        <pt x="1669" y="1004" on="0"/>
        <pt x="1654" y="962" on="1"/>
        <pt x="1652" y="960" on="0"/>
        <pt x="1648" y="944" on="0"/>
        <pt x="1643" y="926" on="0"/>
        <pt x="1639" y="911" on="0"/>
        <pt x="1638" y="910" on="1"/>
        <pt x="1636" y="905" on="0"/>
        <pt x="1633" y="887" on="0"/>
        <pt x="1633" y="886" on="1"/>
        <pt x="1616" y="857" on="0"/>
        <pt x="1588" y="796" on="0"/>
        <pt x="1577" y="766" on="1"/>
        <pt x="1572" y="752" on="0"/>
        <pt x="1552" y="726" on="0"/>
        <pt x="1548" y="713" on="1"/>
        <pt x="1527" y="658" on="0"/>
        <pt x="1482" y="552" on="0"/>
        <pt x="1462" y="498" on="1"/>
        <pt x="1461" y="498" on="0"/>
        <pt x="1459" y="488" on="0"/>
        <pt x="1457" y="477" on="0"/>
        <pt x="1455" y="468" on="0"/>
        <pt x="1455" y="467" on="1"/>
        <pt x="1452" y="456" on="0"/>
        <pt x="1445" y="444" on="0"/>
        <pt x="1437" y="433" on="0"/>
        <pt x="1428" y="422" on="0"/>
        <pt x="1423" y="412" on="1"/>
        <pt x="1423" y="410" on="0"/>
        <pt x="1417" y="387" on="0"/>
        <pt x="1417" y="384" on="1"/>
        <pt x="1417" y="379" on="0"/>
        <pt x="1405" y="355" on="0"/>
        <pt x="1403" y="353" on="1"/>
        <pt x="1402" y="352" on="0"/>
        <pt x="1395" y="343" on="0"/>
        <pt x="1386" y="333" on="0"/>
        <pt x="1379" y="324" on="0"/>
        <pt x="1378" y="324" on="1"/>
        <pt x="1377" y="322" on="0"/>
        <pt x="1375" y="306" on="0"/>
        <pt x="1374" y="287" on="0"/>
        <pt x="1373" y="271" on="0"/>
        <pt x="1373" y="268" on="1"/>
        <pt x="1371" y="266" on="0"/>
        <pt x="1357" y="245" on="0"/>
        <pt x="1354" y="239" on="1"/>
        <pt x="1354" y="236" on="0"/>
        <pt x="1348" y="225" on="0"/>
        <pt x="1340" y="212" on="0"/>
        <pt x="1334" y="201" on="0"/>
        <pt x="1333" y="199" on="1"/>
        <pt x="1332" y="196" on="0"/>
        <pt x="1325" y="178" on="0"/>
        <pt x="1318" y="155" on="0"/>
        <pt x="1310" y="135" on="0"/>
        <pt x="1309" y="131" on="1"/>
        <pt x="1309" y="123" on="1"/>
        <pt x="1309" y="109" on="0"/>
        <pt x="1339" y="97" on="0"/>
        <pt x="1383" y="90" on="0"/>
        <pt x="1436" y="85" on="0"/>
        <pt x="1480" y="74" on="0"/>
        <pt x="1510" y="52" on="0"/>
        <pt x="1510" y="31" on="1"/>
        <pt x="1510" y="16" on="1"/>
        <pt x="1510" y="13" on="0"/>
        <pt x="1497" y="9" on="0"/>
        <pt x="1493" y="9" on="1"/>
        <pt x="1473" y="9" on="0"/>
        <pt x="1376" y="10" on="0"/>
        <pt x="1321" y="10" on="1"/>
        <pt x="1294" y="10" on="0"/>
        <pt x="1241" y="10" on="0"/>
        <pt x="1194" y="9" on="0"/>
        <pt x="1159" y="9" on="0"/>
        <pt x="1150" y="9" on="1"/>
        <pt x="1143" y="9" on="0"/>
        <pt x="1091" y="5" on="0"/>
        <pt x="1032" y="-1" on="0"/>
        <pt x="980" y="-5" on="0"/>
        <pt x="974" y="-5" on="1"/>
        <pt x="932" y="-5" on="1"/>
        <pt x="906" y="-5" on="1"/>
        <pt x="892" y="-5" on="0"/>
        <pt x="865" y="-3" on="0"/>
        <pt x="842" y="7" on="0"/>
        <pt x="828" y="26" on="0"/>
        <pt x="828" y="43" on="1"/>
        <pt x="828" y="46" on="0"/>
        <pt x="830" y="62" on="0"/>
        <pt x="830" y="64" on="1"/>
        <pt x="831" y="65" on="0"/>
        <pt x="836" y="72" on="0"/>
        <pt x="842" y="79" on="0"/>
        <pt x="848" y="85" on="0"/>
        <pt x="849" y="85" on="1"/>
        <pt x="865" y="87" on="0"/>
        <pt x="898" y="90" on="0"/>
        <pt x="915" y="90" on="1"/>
        <pt x="924" y="90" on="0"/>
        <pt x="946" y="88" on="0"/>
        <pt x="955" y="88" on="1"/>
        <pt x="984" y="88" on="0"/>
        <pt x="1034" y="96" on="0"/>
        <pt x="1058" y="107" on="1"/>
        <pt x="1072" y="116" on="0"/>
        <pt x="1100" y="155" on="0"/>
        <pt x="1127" y="201" on="0"/>
        <pt x="1150" y="246" on="0"/>
        <pt x="1159" y="261" on="1"/>
        <pt x="1159" y="262" on="0"/>
        <pt x="1165" y="270" on="0"/>
        <pt x="1173" y="281" on="0"/>
        <pt x="1180" y="290" on="0"/>
        <pt x="1181" y="292" on="1"/>
        <pt x="1182" y="299" on="0"/>
        <pt x="1184" y="306" on="1"/>
        <pt x="1186" y="311" on="0"/>
        <pt x="1188" y="322" on="0"/>
        <pt x="1190" y="324" on="1"/>
        <pt x="1198" y="356" on="0"/>
        <pt x="1227" y="426" on="0"/>
        <pt x="1240" y="460" on="1"/>
        <pt x="1252" y="485" on="0"/>
        <pt x="1278" y="526" on="0"/>
        <pt x="1278" y="552" on="1"/>
        <pt x="1278" y="577" on="0"/>
        <pt x="1259" y="605" on="0"/>
        <pt x="1233" y="605" on="1"/>
        <pt x="981" y="605" on="1"/>
        <pt x="937" y="605" on="0"/>
        <pt x="849" y="566" on="0"/>
        <pt x="813" y="541" on="1"/>
        <pt x="802" y="536" on="0"/>
        <pt x="784" y="506" on="0"/>
        <pt x="775" y="498" on="1"/>
        <pt x="773" y="496" on="0"/>
        <pt x="757" y="483" on="0"/>
        <pt x="739" y="467" on="0"/>
        <pt x="723" y="454" on="0"/>
        <pt x="721" y="452" on="1"/>
        <pt x="699" y="431" on="0"/>
        <pt x="658" y="382" on="0"/>
        <pt x="638" y="365" on="1"/>
        <pt x="636" y="364" on="0"/>
        <pt x="626" y="353" on="0"/>
        <pt x="614" y="340" on="0"/>
        <pt x="604" y="328" on="0"/>
        <pt x="602" y="327" on="1"/>
        <pt x="576" y="304" on="0"/>
        <pt x="535" y="267" on="0"/>
        <pt x="513" y="239" on="1"/>
        <pt x="499" y="221" on="0"/>
        <pt x="483" y="203" on="0"/>
        <pt x="470" y="187" on="1"/>
        <pt x="459" y="173" on="0"/>
        <pt x="439" y="152" on="0"/>
        <pt x="425" y="135" on="1"/>
        <pt x="422" y="131" on="0"/>
        <pt x="422" y="119" on="1"/>
        <pt x="422" y="115" on="0"/>
        <pt x="426" y="104" on="0"/>
        <pt x="432" y="102" on="1"/>
        <pt x="515" y="102" on="1"/>
        <pt x="523" y="101" on="0"/>
        <pt x="546" y="92" on="0"/>
        <pt x="568" y="78" on="0"/>
        <pt x="584" y="62" on="0"/>
        <pt x="584" y="54" on="1"/>
        <pt x="584" y="42" on="0"/>
        <pt x="577" y="29" on="0"/>
        <pt x="571" y="16" on="1"/>
        <pt x="560" y="2" on="0"/>
        <pt x="527" y="-7" on="0"/>
        <pt x="507" y="-7" on="1"/>
        <pt x="493" y="-7" on="0"/>
        <pt x="469" y="-5" on="0"/>
        <pt x="458" y="-5" on="1"/>
        <pt x="429" y="-5" on="1"/>
        <pt x="418" y="-5" on="0"/>
        <pt x="398" y="-3" on="0"/>
        <pt x="387" y="2" on="1"/>
        <pt x="48" y="2" on="1"/>
        <pt x="46" y="0" on="0"/>
        <pt x="29" y="-5" on="0"/>
        <pt x="27" y="-5" on="1"/>
        <pt x="-4" y="-13" on="0"/>
        <pt x="-51" y="-22" on="0"/>
        <pt x="-80" y="-22" on="1"/>
        <pt x="-94" y="-22" on="0"/>
        <pt x="-126" y="-15" on="0"/>
        <pt x="-153" y="0" on="0"/>
        <pt x="-172" y="25" on="0"/>
      </contour>
    </TTGlyph>
    <TTGlyph name="A.swash" xMin="69" yMin="-29" xMax="2937" yMax="1396">
      <contour>
        <pt x="1958" y="721" on="1"/>
        <pt x="1958" y="713" on="0"/>
        <pt x="1976" y="690" on="0"/>
        <pt x="1987" y="690" on="1"/>
        <pt x="1994" y="690" on="1"/>
        <pt x="2000" y="690" on="0"/>
        <pt x="2045" y="692" on="0"/>
        <pt x="2096" y="695" on="0"/>
        <pt x="2142" y="697" on="0"/>
        <pt x="2148" y="697" on="1"/>
        <pt x="2151" y="697" on="1"/>
        <pt x="2165" y="697" on="0"/>
        <pt x="2193" y="690" on="0"/>
        <pt x="2209" y="690" on="1"/>
        <pt x="2234" y="690" on="1"/>
        <pt x="2252" y="704" on="0"/>
        <pt x="2273" y="748" on="0"/>
        <pt x="2286" y="797" on="0"/>
        <pt x="2297" y="846" on="0"/>
        <pt x="2305" y="865" on="1"/>
        <pt x="2308" y="869" on="0"/>
        <pt x="2328" y="907" on="0"/>
        <pt x="2350" y="951" on="0"/>
        <pt x="2370" y="990" on="0"/>
        <pt x="2373" y="995" on="1"/>
        <pt x="2374" y="996" on="0"/>
        <pt x="2378" y="1007" on="0"/>
        <pt x="2382" y="1022" on="0"/>
        <pt x="2385" y="1036" on="0"/>
        <pt x="2385" y="1040" on="1"/>
        <pt x="2386" y="1040" on="0"/>
        <pt x="2389" y="1049" on="0"/>
        <pt x="2392" y="1058" on="0"/>
        <pt x="2394" y="1067" on="0"/>
        <pt x="2394" y="1067" on="1"/>
        <pt x="2407" y="1102" on="0"/>
        <pt x="2423" y="1162" on="0"/>
        <pt x="2423" y="1201" on="1"/>
        <pt x="2412" y="1201" on="0"/>
        <pt x="2390" y="1190" on="0"/>
        <pt x="2370" y="1173" on="0"/>
        <pt x="2351" y="1155" on="0"/>
        <pt x="2343" y="1149" on="1"/>
        <pt x="2341" y="1147" on="0"/>
        <pt x="2330" y="1139" on="0"/>
        <pt x="2318" y="1129" on="0"/>
        <pt x="2307" y="1120" on="0"/>
        <pt x="2305" y="1119" on="1"/>
        <pt x="2305" y="1117" on="0"/>
        <pt x="2299" y="1106" on="0"/>
        <pt x="2292" y="1094" on="0"/>
        <pt x="2286" y="1083" on="0"/>
        <pt x="2286" y="1081" on="1"/>
        <pt x="2284" y="1080" on="0"/>
        <pt x="2269" y="1065" on="0"/>
        <pt x="2252" y="1048" on="0"/>
        <pt x="2236" y="1033" on="0"/>
        <pt x="2234" y="1031" on="1"/>
        <pt x="2233" y="1030" on="0"/>
        <pt x="2225" y="1020" on="0"/>
        <pt x="2215" y="1008" on="0"/>
        <pt x="2206" y="997" on="0"/>
        <pt x="2205" y="995" on="1"/>
        <pt x="2194" y="983" on="0"/>
        <pt x="2165" y="970" on="0"/>
        <pt x="2153" y="958" on="1"/>
        <pt x="2111" y="911" on="0"/>
        <pt x="2036" y="818" on="0"/>
        <pt x="1994" y="768" on="1"/>
        <pt x="1990" y="764" on="0"/>
        <pt x="1978" y="754" on="0"/>
        <pt x="1966" y="742" on="0"/>
        <pt x="1958" y="728" on="0"/>
      </contour>
      <contour>
        <pt x="69" y="407" on="1"/>
        <pt x="69" y="409" on="0"/>
        <pt x="73" y="421" on="0"/>
        <pt x="78" y="436" on="0"/>
        <pt x="82" y="448" on="0"/>
        <pt x="82" y="450" on="1"/>
        <pt x="83" y="454" on="0"/>
        <pt x="87" y="482" on="0"/>
        <pt x="92" y="513" on="0"/>
        <pt x="96" y="541" on="0"/>
        <pt x="98" y="545" on="1"/>
        <pt x="99" y="551" on="0"/>
        <pt x="106" y="584" on="0"/>
        <pt x="115" y="622" on="0"/>
        <pt x="124" y="655" on="0"/>
        <pt x="126" y="661" on="1"/>
        <pt x="153" y="706" on="0"/>
        <pt x="225" y="785" on="0"/>
        <pt x="273" y="815" on="1"/>
        <pt x="274" y="817" on="0"/>
        <pt x="296" y="826" on="0"/>
        <pt x="300" y="829" on="1"/>
        <pt x="303" y="829" on="0"/>
        <pt x="322" y="836" on="0"/>
        <pt x="325" y="836" on="1"/>
        <pt x="326" y="837" on="0"/>
        <pt x="327" y="839" on="1"/>
        <pt x="328" y="841" on="0"/>
        <pt x="330" y="842" on="0"/>
        <pt x="330" y="844" on="1"/>
        <pt x="346" y="856" on="0"/>
        <pt x="386" y="868" on="0"/>
        <pt x="429" y="874" on="0"/>
        <pt x="472" y="875" on="0"/>
        <pt x="491" y="875" on="1"/>
        <pt x="495" y="875" on="0"/>
        <pt x="520" y="872" on="0"/>
        <pt x="547" y="868" on="0"/>
        <pt x="572" y="865" on="0"/>
        <pt x="577" y="865" on="1"/>
        <pt x="600" y="861" on="0"/>
        <pt x="632" y="833" on="0"/>
        <pt x="650" y="820" on="1"/>
        <pt x="651" y="819" on="0"/>
        <pt x="662" y="814" on="0"/>
        <pt x="675" y="807" on="0"/>
        <pt x="685" y="800" on="0"/>
        <pt x="686" y="799" on="1"/>
        <pt x="688" y="798" on="0"/>
        <pt x="698" y="778" on="0"/>
        <pt x="700" y="778" on="1"/>
        <pt x="710" y="765" on="0"/>
        <pt x="725" y="748" on="0"/>
        <pt x="734" y="730" on="0"/>
        <pt x="738" y="708" on="0"/>
        <pt x="738" y="690" on="1"/>
        <pt x="738" y="661" on="0"/>
        <pt x="713" y="619" on="0"/>
        <pt x="672" y="592" on="0"/>
        <pt x="621" y="580" on="0"/>
        <pt x="594" y="580" on="1"/>
        <pt x="593" y="580" on="0"/>
        <pt x="584" y="580" on="0"/>
        <pt x="573" y="581" on="0"/>
        <pt x="564" y="581" on="0"/>
        <pt x="562" y="581" on="1"/>
        <pt x="545" y="593" on="0"/>
        <pt x="536" y="632" on="0"/>
        <pt x="533" y="671" on="0"/>
        <pt x="526" y="704" on="0"/>
        <pt x="511" y="711" on="1"/>
        <pt x="497" y="718" on="0"/>
        <pt x="474" y="726" on="0"/>
        <pt x="453" y="731" on="0"/>
        <pt x="430" y="732" on="0"/>
        <pt x="415" y="732" on="1"/>
        <pt x="412" y="732" on="0"/>
        <pt x="395" y="730" on="0"/>
        <pt x="377" y="729" on="0"/>
        <pt x="360" y="727" on="0"/>
        <pt x="357" y="727" on="1"/>
        <pt x="349" y="724" on="0"/>
        <pt x="325" y="713" on="0"/>
        <pt x="301" y="701" on="0"/>
        <pt x="279" y="688" on="0"/>
        <pt x="273" y="682" on="1"/>
        <pt x="270" y="680" on="0"/>
        <pt x="259" y="661" on="0"/>
        <pt x="257" y="661" on="1"/>
        <pt x="227" y="626" on="0"/>
        <pt x="180" y="552" on="0"/>
        <pt x="162" y="507" on="1"/>
        <pt x="160" y="504" on="0"/>
        <pt x="159" y="501" on="1"/>
        <pt x="157" y="499" on="0"/>
        <pt x="156" y="494" on="0"/>
        <pt x="155" y="493" on="1"/>
        <pt x="155" y="486" on="1"/>
        <pt x="155" y="475" on="0"/>
        <pt x="162" y="456" on="0"/>
        <pt x="162" y="445" on="1"/>
        <pt x="162" y="425" on="0"/>
        <pt x="155" y="390" on="0"/>
        <pt x="155" y="372" on="1"/>
        <pt x="155" y="353" on="0"/>
        <pt x="172" y="314" on="0"/>
        <pt x="197" y="277" on="0"/>
        <pt x="224" y="244" on="0"/>
        <pt x="235" y="232" on="1"/>
        <pt x="239" y="228" on="0"/>
        <pt x="254" y="212" on="0"/>
        <pt x="270" y="195" on="0"/>
        <pt x="284" y="182" on="0"/>
        <pt x="287" y="180" on="1"/>
        <pt x="288" y="179" on="0"/>
        <pt x="304" y="170" on="0"/>
        <pt x="325" y="158" on="0"/>
        <pt x="346" y="147" on="0"/>
        <pt x="352" y="145" on="1"/>
        <pt x="355" y="144" on="0"/>
        <pt x="371" y="137" on="0"/>
        <pt x="373" y="137" on="1"/>
        <pt x="402" y="137" on="1"/>
        <pt x="421" y="135" on="0"/>
        <pt x="458" y="123" on="0"/>
        <pt x="475" y="116" on="1"/>
        <pt x="591" y="116" on="1"/>
        <pt x="592" y="116" on="0"/>
        <pt x="603" y="114" on="0"/>
        <pt x="616" y="111" on="0"/>
        <pt x="627" y="109" on="0"/>
        <pt x="629" y="109" on="1"/>
        <pt x="657" y="109" on="1"/>
        <pt x="658" y="109" on="0"/>
        <pt x="669" y="106" on="0"/>
        <pt x="682" y="103" on="0"/>
        <pt x="693" y="101" on="0"/>
        <pt x="695" y="102" on="1"/>
        <pt x="697" y="102" on="0"/>
        <pt x="715" y="108" on="0"/>
        <pt x="737" y="115" on="0"/>
        <pt x="755" y="122" on="0"/>
        <pt x="757" y="123" on="1"/>
        <pt x="759" y="123" on="0"/>
        <pt x="776" y="125" on="0"/>
        <pt x="797" y="128" on="0"/>
        <pt x="818" y="131" on="0"/>
        <pt x="825" y="131" on="1"/>
        <pt x="831" y="131" on="1"/>
        <pt x="842" y="131" on="0"/>
        <pt x="863" y="123" on="0"/>
        <pt x="875" y="123" on="1"/>
        <pt x="892" y="123" on="0"/>
        <pt x="924" y="134" on="0"/>
        <pt x="942" y="137" on="1"/>
        <pt x="943" y="138" on="0"/>
        <pt x="957" y="141" on="0"/>
        <pt x="973" y="143" on="0"/>
        <pt x="989" y="145" on="0"/>
        <pt x="991" y="145" on="1"/>
        <pt x="993" y="145" on="0"/>
        <pt x="1011" y="158" on="0"/>
        <pt x="1013" y="161" on="1"/>
        <pt x="1018" y="161" on="0"/>
        <pt x="1041" y="172" on="0"/>
        <pt x="1041" y="175" on="1"/>
        <pt x="1043" y="175" on="0"/>
        <pt x="1054" y="177" on="0"/>
        <pt x="1067" y="178" on="0"/>
        <pt x="1077" y="180" on="0"/>
        <pt x="1079" y="180" on="1"/>
        <pt x="1079" y="182" on="0"/>
        <pt x="1090" y="187" on="0"/>
        <pt x="1093" y="189" on="1"/>
        <pt x="1120" y="206" on="0"/>
        <pt x="1180" y="229" on="0"/>
        <pt x="1209" y="247" on="1"/>
        <pt x="1210" y="248" on="0"/>
        <pt x="1219" y="254" on="0"/>
        <pt x="1229" y="262" on="0"/>
        <pt x="1237" y="268" on="0"/>
        <pt x="1238" y="268" on="1"/>
        <pt x="1258" y="281" on="0"/>
        <pt x="1299" y="293" on="0"/>
        <pt x="1318" y="304" on="1"/>
        <pt x="1321" y="305" on="0"/>
        <pt x="1336" y="316" on="0"/>
        <pt x="1353" y="329" on="0"/>
        <pt x="1367" y="339" on="0"/>
        <pt x="1369" y="341" on="1"/>
        <pt x="1371" y="342" on="0"/>
        <pt x="1384" y="348" on="0"/>
        <pt x="1399" y="355" on="0"/>
        <pt x="1411" y="362" on="0"/>
        <pt x="1413" y="363" on="1"/>
        <pt x="1414" y="364" on="0"/>
        <pt x="1423" y="374" on="0"/>
        <pt x="1432" y="384" on="0"/>
        <pt x="1441" y="392" on="0"/>
        <pt x="1442" y="393" on="1"/>
        <pt x="1444" y="394" on="0"/>
        <pt x="1461" y="402" on="0"/>
        <pt x="1481" y="411" on="0"/>
        <pt x="1498" y="420" on="0"/>
        <pt x="1501" y="422" on="1"/>
        <pt x="1503" y="424" on="1"/>
        <pt x="1506" y="427" on="0"/>
        <pt x="1508" y="427" on="1"/>
        <pt x="1509" y="430" on="0"/>
        <pt x="1520" y="444" on="0"/>
        <pt x="1532" y="459" on="0"/>
        <pt x="1543" y="472" on="0"/>
        <pt x="1544" y="474" on="1"/>
        <pt x="1546" y="474" on="0"/>
        <pt x="1558" y="479" on="0"/>
        <pt x="1573" y="486" on="0"/>
        <pt x="1585" y="492" on="0"/>
        <pt x="1587" y="493" on="1"/>
        <pt x="1598" y="501" on="0"/>
        <pt x="1619" y="526" on="0"/>
        <pt x="1640" y="554" on="0"/>
        <pt x="1659" y="580" on="0"/>
        <pt x="1669" y="588" on="1"/>
        <pt x="1669" y="589" on="0"/>
        <pt x="1679" y="599" on="0"/>
        <pt x="1692" y="611" on="0"/>
        <pt x="1706" y="622" on="0"/>
        <pt x="1710" y="625" on="1"/>
        <pt x="1711" y="626" on="0"/>
        <pt x="1721" y="632" on="0"/>
        <pt x="1731" y="639" on="0"/>
        <pt x="1739" y="645" on="0"/>
        <pt x="1740" y="645" on="1"/>
        <pt x="1743" y="648" on="0"/>
        <pt x="1764" y="670" on="0"/>
        <pt x="1788" y="695" on="0"/>
        <pt x="1809" y="717" on="0"/>
        <pt x="1812" y="720" on="1"/>
        <pt x="1813" y="720" on="0"/>
        <pt x="1824" y="728" on="0"/>
        <pt x="1837" y="738" on="0"/>
        <pt x="1847" y="747" on="0"/>
        <pt x="1849" y="749" on="1"/>
        <pt x="1853" y="752" on="0"/>
        <pt x="1869" y="774" on="0"/>
        <pt x="1871" y="778" on="1"/>
        <pt x="1880" y="787" on="0"/>
        <pt x="1927" y="835" on="0"/>
        <pt x="1981" y="888" on="0"/>
        <pt x="2029" y="935" on="0"/>
        <pt x="2039" y="945" on="1"/>
        <pt x="2042" y="949" on="0"/>
        <pt x="2061" y="970" on="0"/>
        <pt x="2084" y="996" on="0"/>
        <pt x="2105" y="1019" on="0"/>
        <pt x="2110" y="1024" on="1"/>
        <pt x="2111" y="1025" on="0"/>
        <pt x="2118" y="1034" on="0"/>
        <pt x="2125" y="1044" on="0"/>
        <pt x="2132" y="1052" on="0"/>
        <pt x="2132" y="1052" on="1"/>
        <pt x="2135" y="1054" on="0"/>
        <pt x="2151" y="1066" on="0"/>
        <pt x="2153" y="1067" on="1"/>
        <pt x="2156" y="1069" on="0"/>
        <pt x="2169" y="1082" on="0"/>
        <pt x="2183" y="1096" on="0"/>
        <pt x="2195" y="1108" on="0"/>
        <pt x="2198" y="1111" on="1"/>
        <pt x="2199" y="1112" on="0"/>
        <pt x="2205" y="1121" on="0"/>
        <pt x="2212" y="1131" on="0"/>
        <pt x="2218" y="1139" on="0"/>
        <pt x="2219" y="1140" on="1"/>
        <pt x="2220" y="1141" on="0"/>
        <pt x="2227" y="1146" on="0"/>
        <pt x="2236" y="1153" on="0"/>
        <pt x="2245" y="1160" on="0"/>
        <pt x="2248" y="1163" on="1"/>
        <pt x="2269" y="1178" on="0"/>
        <pt x="2302" y="1213" on="0"/>
        <pt x="2335" y="1244" on="0"/>
        <pt x="2374" y="1270" on="0"/>
        <pt x="2401" y="1278" on="1"/>
        <pt x="2482" y="1358" on="1"/>
        <pt x="2482" y="1360" on="0"/>
        <pt x="2493" y="1365" on="0"/>
        <pt x="2496" y="1367" on="1"/>
        <pt x="2539" y="1381" on="0"/>
        <pt x="2625" y="1396" on="0"/>
        <pt x="2670" y="1396" on="1"/>
        <pt x="2722" y="1396" on="1"/>
        <pt x="2724" y="1394" on="0"/>
        <pt x="2737" y="1385" on="0"/>
        <pt x="2751" y="1376" on="0"/>
        <pt x="2763" y="1368" on="0"/>
        <pt x="2766" y="1367" on="1"/>
        <pt x="2768" y="1365" on="0"/>
        <pt x="2789" y="1354" on="0"/>
        <pt x="2813" y="1342" on="0"/>
        <pt x="2835" y="1331" on="0"/>
        <pt x="2837" y="1329" on="1"/>
        <pt x="2843" y="1324" on="0"/>
        <pt x="2856" y="1314" on="0"/>
        <pt x="2861" y="1306" on="1"/>
        <pt x="2867" y="1301" on="0"/>
        <pt x="2880" y="1293" on="0"/>
        <pt x="2885" y="1289" on="1"/>
        <pt x="2887" y="1289" on="0"/>
        <pt x="2892" y="1284" on="0"/>
        <pt x="2894" y="1282" on="1"/>
        <pt x="2908" y="1264" on="0"/>
        <pt x="2937" y="1228" on="0"/>
        <pt x="2937" y="1202" on="1"/>
        <pt x="2937" y="1192" on="0"/>
        <pt x="2925" y="1166" on="0"/>
        <pt x="2906" y="1142" on="0"/>
        <pt x="2881" y="1126" on="0"/>
        <pt x="2869" y="1126" on="1"/>
        <pt x="2837" y="1126" on="0"/>
        <pt x="2801" y="1157" on="0"/>
        <pt x="2779" y="1204" on="0"/>
        <pt x="2766" y="1259" on="0"/>
        <pt x="2759" y="1282" on="1"/>
        <pt x="2758" y="1283" on="0"/>
        <pt x="2755" y="1289" on="1"/>
        <pt x="2750" y="1294" on="1"/>
        <pt x="2740" y="1294" on="1"/>
        <pt x="2717" y="1294" on="0"/>
        <pt x="2680" y="1258" on="0"/>
        <pt x="2670" y="1242" on="1"/>
        <pt x="2659" y="1228" on="0"/>
        <pt x="2643" y="1187" on="0"/>
        <pt x="2628" y="1143" on="0"/>
        <pt x="2614" y="1099" on="0"/>
        <pt x="2605" y="1081" on="1"/>
        <pt x="2586" y="1047" on="0"/>
        <pt x="2545" y="981" on="0"/>
        <pt x="2532" y="945" on="1"/>
        <pt x="2530" y="940" on="0"/>
        <pt x="2526" y="911" on="0"/>
        <pt x="2523" y="907" on="1"/>
        <pt x="2520" y="894" on="0"/>
        <pt x="2510" y="849" on="0"/>
        <pt x="2499" y="805" on="0"/>
        <pt x="2490" y="771" on="0"/>
        <pt x="2489" y="768" on="1"/>
        <pt x="2487" y="766" on="0"/>
        <pt x="2477" y="746" on="0"/>
        <pt x="2464" y="722" on="0"/>
        <pt x="2453" y="700" on="0"/>
        <pt x="2452" y="697" on="1"/>
        <pt x="2444" y="677" on="0"/>
        <pt x="2422" y="620" on="0"/>
        <pt x="2414" y="597" on="1"/>
        <pt x="2414" y="594" on="0"/>
        <pt x="2411" y="578" on="0"/>
        <pt x="2406" y="561" on="0"/>
        <pt x="2402" y="546" on="0"/>
        <pt x="2401" y="545" on="1"/>
        <pt x="2399" y="541" on="0"/>
        <pt x="2382" y="515" on="0"/>
        <pt x="2362" y="486" on="0"/>
        <pt x="2345" y="461" on="0"/>
        <pt x="2343" y="458" on="1"/>
        <pt x="2337" y="445" on="1"/>
        <pt x="2336" y="441" on="0"/>
        <pt x="2334" y="421" on="0"/>
        <pt x="2332" y="398" on="0"/>
        <pt x="2329" y="380" on="0"/>
        <pt x="2328" y="377" on="1"/>
        <pt x="2327" y="374" on="0"/>
        <pt x="2317" y="353" on="0"/>
        <pt x="2305" y="328" on="0"/>
        <pt x="2294" y="307" on="0"/>
        <pt x="2292" y="304" on="1"/>
        <pt x="2284" y="286" on="0"/>
        <pt x="2275" y="244" on="0"/>
        <pt x="2271" y="227" on="1"/>
        <pt x="2266" y="211" on="0"/>
        <pt x="2254" y="183" on="0"/>
        <pt x="2242" y="156" on="0"/>
        <pt x="2234" y="127" on="0"/>
        <pt x="2234" y="111" on="1"/>
        <pt x="2234" y="85" on="1"/>
        <pt x="2236" y="82" on="0"/>
        <pt x="2252" y="64" on="0"/>
        <pt x="2257" y="64" on="1"/>
        <pt x="2258" y="63" on="0"/>
        <pt x="2271" y="66" on="0"/>
        <pt x="2286" y="70" on="0"/>
        <pt x="2299" y="73" on="0"/>
        <pt x="2300" y="73" on="1"/>
        <pt x="2303" y="73" on="0"/>
        <pt x="2317" y="71" on="0"/>
        <pt x="2333" y="68" on="0"/>
        <pt x="2349" y="65" on="0"/>
        <pt x="2352" y="64" on="1"/>
        <pt x="2354" y="62" on="0"/>
        <pt x="2364" y="46" on="0"/>
        <pt x="2364" y="43" on="1"/>
        <pt x="2365" y="37" on="0"/>
        <pt x="2353" y="26" on="0"/>
        <pt x="2335" y="18" on="0"/>
        <pt x="2318" y="10" on="0"/>
        <pt x="2314" y="7" on="1"/>
        <pt x="2305" y="6" on="0"/>
        <pt x="2258" y="4" on="0"/>
        <pt x="2204" y="2" on="0"/>
        <pt x="2157" y="0" on="0"/>
        <pt x="2148" y="0" on="1"/>
        <pt x="2039" y="0" on="1"/>
        <pt x="2034" y="0" on="0"/>
        <pt x="1995" y="-4" on="0"/>
        <pt x="1951" y="-10" on="0"/>
        <pt x="1912" y="-15" on="0"/>
        <pt x="1906" y="-16" on="1"/>
        <pt x="1895" y="-16" on="1"/>
        <pt x="1887" y="-16" on="0"/>
        <pt x="1852" y="-15" on="0"/>
        <pt x="1816" y="-8" on="0"/>
        <pt x="1788" y="8" on="0"/>
        <pt x="1788" y="22" on="1"/>
        <pt x="1788" y="38" on="0"/>
        <pt x="1802" y="56" on="0"/>
        <pt x="1812" y="64" on="1"/>
        <pt x="1854" y="71" on="0"/>
        <pt x="1946" y="78" on="0"/>
        <pt x="1987" y="80" on="1"/>
        <pt x="1989" y="81" on="0"/>
        <pt x="1999" y="91" on="0"/>
        <pt x="2011" y="103" on="0"/>
        <pt x="2021" y="114" on="0"/>
        <pt x="2023" y="116" on="1"/>
        <pt x="2024" y="118" on="0"/>
        <pt x="2032" y="131" on="0"/>
        <pt x="2042" y="146" on="0"/>
        <pt x="2051" y="159" on="0"/>
        <pt x="2053" y="161" on="1"/>
        <pt x="2055" y="161" on="0"/>
        <pt x="2074" y="178" on="0"/>
        <pt x="2074" y="180" on="1"/>
        <pt x="2078" y="188" on="0"/>
        <pt x="2085" y="216" on="0"/>
        <pt x="2092" y="247" on="0"/>
        <pt x="2100" y="278" on="0"/>
        <pt x="2105" y="289" on="1"/>
        <pt x="2105" y="291" on="0"/>
        <pt x="2110" y="302" on="0"/>
        <pt x="2118" y="314" on="0"/>
        <pt x="2124" y="325" on="0"/>
        <pt x="2126" y="327" on="1"/>
        <pt x="2127" y="330" on="0"/>
        <pt x="2138" y="356" on="0"/>
        <pt x="2150" y="385" on="0"/>
        <pt x="2160" y="410" on="0"/>
        <pt x="2162" y="413" on="1"/>
        <pt x="2171" y="436" on="0"/>
        <pt x="2182" y="481" on="0"/>
        <pt x="2190" y="502" on="1"/>
        <pt x="2193" y="509" on="0"/>
        <pt x="2204" y="529" on="0"/>
        <pt x="2215" y="550" on="0"/>
        <pt x="2221" y="571" on="0"/>
        <pt x="2219" y="581" on="1"/>
        <pt x="2219" y="583" on="0"/>
        <pt x="2208" y="594" on="0"/>
        <pt x="2205" y="597" on="1"/>
        <pt x="2194" y="595" on="0"/>
        <pt x="2168" y="595" on="0"/>
        <pt x="2157" y="595" on="1"/>
        <pt x="2109" y="595" on="0"/>
        <pt x="2011" y="602" on="0"/>
        <pt x="1963" y="602" on="1"/>
        <pt x="1943" y="602" on="0"/>
        <pt x="1914" y="593" on="0"/>
        <pt x="1895" y="593" on="1"/>
        <pt x="1882" y="593" on="0"/>
        <pt x="1859" y="602" on="0"/>
        <pt x="1845" y="602" on="1"/>
        <pt x="1837" y="602" on="0"/>
        <pt x="1818" y="582" on="0"/>
        <pt x="1799" y="556" on="0"/>
        <pt x="1782" y="529" on="0"/>
        <pt x="1776" y="522" on="1"/>
        <pt x="1769" y="514" on="0"/>
        <pt x="1739" y="484" on="0"/>
        <pt x="1706" y="452" on="0"/>
        <pt x="1678" y="426" on="0"/>
        <pt x="1674" y="422" on="1"/>
        <pt x="1673" y="421" on="0"/>
        <pt x="1663" y="414" on="0"/>
        <pt x="1650" y="407" on="0"/>
        <pt x="1640" y="400" on="0"/>
        <pt x="1639" y="398" on="1"/>
        <pt x="1627" y="389" on="0"/>
        <pt x="1610" y="367" on="0"/>
        <pt x="1595" y="343" on="0"/>
        <pt x="1577" y="320" on="0"/>
        <pt x="1565" y="311" on="1"/>
        <pt x="1563" y="310" on="0"/>
        <pt x="1540" y="299" on="0"/>
        <pt x="1536" y="298" on="1"/>
        <pt x="1534" y="296" on="0"/>
        <pt x="1533" y="294" on="1"/>
        <pt x="1530" y="291" on="0"/>
        <pt x="1530" y="289" on="1"/>
        <pt x="1527" y="287" on="0"/>
        <pt x="1508" y="273" on="0"/>
        <pt x="1485" y="256" on="0"/>
        <pt x="1466" y="241" on="0"/>
        <pt x="1463" y="239" on="1"/>
        <pt x="1461" y="237" on="0"/>
        <pt x="1460" y="235" on="1"/>
        <pt x="1457" y="232" on="0"/>
        <pt x="1456" y="232" on="1"/>
        <pt x="1454" y="232" on="0"/>
        <pt x="1437" y="227" on="0"/>
        <pt x="1435" y="227" on="1"/>
        <pt x="1431" y="225" on="0"/>
        <pt x="1418" y="219" on="0"/>
        <pt x="1412" y="217" on="1"/>
        <pt x="1405" y="214" on="0"/>
        <pt x="1397" y="211" on="1"/>
        <pt x="1396" y="210" on="0"/>
        <pt x="1392" y="201" on="0"/>
        <pt x="1388" y="191" on="0"/>
        <pt x="1385" y="182" on="0"/>
        <pt x="1385" y="180" on="1"/>
        <pt x="1373" y="172" on="1"/>
        <pt x="1368" y="169" on="0"/>
        <pt x="1359" y="162" on="0"/>
        <pt x="1356" y="161" on="1"/>
        <pt x="1300" y="122" on="0"/>
        <pt x="1201" y="61" on="0"/>
        <pt x="1138" y="36" on="1"/>
        <pt x="1136" y="35" on="0"/>
        <pt x="1124" y="33" on="0"/>
        <pt x="1112" y="31" on="0"/>
        <pt x="1101" y="29" on="0"/>
        <pt x="1100" y="28" on="1"/>
        <pt x="1089" y="25" on="0"/>
        <pt x="1071" y="13" on="0"/>
        <pt x="1052" y="-1" on="0"/>
        <pt x="1033" y="-14" on="0"/>
        <pt x="1022" y="-16" on="1"/>
        <pt x="954" y="-16" on="1"/>
        <pt x="953" y="-16" on="0"/>
        <pt x="928" y="-21" on="0"/>
        <pt x="927" y="-21" on="1"/>
        <pt x="924" y="-23" on="0"/>
        <pt x="914" y="-24" on="0"/>
        <pt x="911" y="-24" on="1"/>
        <pt x="898" y="-24" on="0"/>
        <pt x="877" y="-16" on="0"/>
        <pt x="863" y="-16" on="1"/>
        <pt x="847" y="-16" on="0"/>
        <pt x="828" y="-22" on="0"/>
        <pt x="809" y="-29" on="1"/>
        <pt x="613" y="-29" on="1"/>
        <pt x="586" y="-28" on="0"/>
        <pt x="545" y="-14" on="0"/>
        <pt x="520" y="-7" on="1"/>
        <pt x="517" y="-7" on="0"/>
        <pt x="493" y="-3" on="0"/>
        <pt x="466" y="2" on="0"/>
        <pt x="442" y="6" on="0"/>
        <pt x="439" y="7" on="1"/>
        <pt x="413" y="14" on="0"/>
        <pt x="360" y="40" on="0"/>
        <pt x="337" y="52" on="1"/>
        <pt x="336" y="52" on="0"/>
        <pt x="326" y="54" on="1"/>
        <pt x="322" y="55" on="0"/>
        <pt x="316" y="57" on="1"/>
        <pt x="311" y="61" on="0"/>
        <pt x="288" y="73" on="0"/>
        <pt x="287" y="73" on="1"/>
        <pt x="286" y="73" on="0"/>
        <pt x="279" y="79" on="0"/>
        <pt x="272" y="86" on="0"/>
        <pt x="265" y="93" on="0"/>
        <pt x="264" y="93" on="1"/>
        <pt x="241" y="113" on="0"/>
        <pt x="192" y="146" on="0"/>
        <pt x="169" y="166" on="1"/>
        <pt x="146" y="188" on="0"/>
        <pt x="114" y="246" on="0"/>
        <pt x="98" y="268" on="1"/>
        <pt x="91" y="280" on="0"/>
        <pt x="87" y="300" on="0"/>
        <pt x="82" y="311" on="1"/>
        <pt x="81" y="318" on="0"/>
        <pt x="77" y="341" on="0"/>
        <pt x="72" y="365" on="0"/>
        <pt x="69" y="383" on="0"/>
        <pt x="69" y="384" on="1"/>
      </contour>
    </TTGlyph>
    <TTGlyph name="AE" xMin="-168" yMin="-36" xMax="2100" yMax="1484">
      <contour>
        <pt x="1076" y="773" on="1"/>
        <pt x="1080" y="773" on="0"/>
        <pt x="1102" y="766" on="0"/>
        <pt x="1107" y="766" on="1"/>
        <pt x="1109" y="766" on="1"/>
        <pt x="1114" y="766" on="0"/>
        <pt x="1122" y="774" on="0"/>
        <pt x="1127" y="785" on="0"/>
        <pt x="1130" y="795" on="0"/>
        <pt x="1130" y="798" on="1"/>
        <pt x="1131" y="800" on="0"/>
        <pt x="1133" y="817" on="0"/>
        <pt x="1135" y="836" on="0"/>
        <pt x="1137" y="855" on="0"/>
        <pt x="1139" y="858" on="1"/>
        <pt x="1139" y="859" on="0"/>
        <pt x="1145" y="871" on="0"/>
        <pt x="1153" y="884" on="0"/>
        <pt x="1160" y="896" on="0"/>
        <pt x="1161" y="898" on="1"/>
        <pt x="1162" y="901" on="0"/>
        <pt x="1170" y="925" on="0"/>
        <pt x="1179" y="953" on="0"/>
        <pt x="1188" y="980" on="0"/>
        <pt x="1190" y="986" on="1"/>
        <pt x="1191" y="989" on="0"/>
        <pt x="1199" y="1016" on="0"/>
        <pt x="1206" y="1048" on="0"/>
        <pt x="1213" y="1075" on="0"/>
        <pt x="1215" y="1078" on="1"/>
        <pt x="1228" y="1125" on="0"/>
        <pt x="1248" y="1214" on="0"/>
        <pt x="1248" y="1265" on="1"/>
        <pt x="1232" y="1265" on="0"/>
        <pt x="1213" y="1254" on="0"/>
        <pt x="1200" y="1237" on="0"/>
        <pt x="1191" y="1217" on="0"/>
        <pt x="1185" y="1208" on="1"/>
        <pt x="1182" y="1206" on="0"/>
        <pt x="1171" y="1195" on="0"/>
        <pt x="1159" y="1182" on="0"/>
        <pt x="1147" y="1171" on="0"/>
        <pt x="1144" y="1169" on="1"/>
        <pt x="1143" y="1169" on="0"/>
        <pt x="1132" y="1163" on="0"/>
        <pt x="1119" y="1156" on="0"/>
        <pt x="1108" y="1150" on="0"/>
        <pt x="1107" y="1149" on="1"/>
        <pt x="1105" y="1148" on="0"/>
        <pt x="1096" y="1134" on="0"/>
        <pt x="1087" y="1116" on="0"/>
        <pt x="1078" y="1098" on="0"/>
        <pt x="1076" y="1093" on="1"/>
        <pt x="1076" y="1092" on="0"/>
        <pt x="1069" y="1073" on="0"/>
        <pt x="1069" y="1071" on="1"/>
        <pt x="1067" y="1069" on="0"/>
        <pt x="1055" y="1058" on="0"/>
        <pt x="1042" y="1046" on="0"/>
        <pt x="1031" y="1035" on="0"/>
        <pt x="1030" y="1033" on="1"/>
        <pt x="977" y="976" on="0"/>
        <pt x="931" y="919" on="1"/>
        <pt x="926" y="913" on="0"/>
        <pt x="903" y="884" on="0"/>
        <pt x="876" y="853" on="0"/>
        <pt x="852" y="825" on="0"/>
        <pt x="848" y="820" on="1"/>
        <pt x="839" y="789" on="1"/>
        <pt x="842" y="786" on="0"/>
        <pt x="845" y="784" on="1"/>
        <pt x="851" y="780" on="0"/>
        <pt x="853" y="780" on="1"/>
        <pt x="857" y="779" on="0"/>
        <pt x="872" y="777" on="0"/>
        <pt x="887" y="775" on="0"/>
        <pt x="900" y="773" on="0"/>
        <pt x="902" y="773" on="1"/>
      </contour>
      <contour>
        <pt x="1718" y="-21" on="1"/>
        <pt x="1658" y="-21" on="1"/>
        <pt x="1656" y="-21" on="0"/>
        <pt x="1644" y="-23" on="0"/>
        <pt x="1631" y="-24" on="0"/>
        <pt x="1619" y="-26" on="0"/>
        <pt x="1616" y="-26" on="1"/>
        <pt x="1616" y="-28" on="0"/>
        <pt x="1608" y="-29" on="0"/>
        <pt x="1606" y="-29" on="1"/>
        <pt x="1604" y="-29" on="0"/>
        <pt x="1595" y="-28" on="0"/>
        <pt x="1595" y="-26" on="1"/>
        <pt x="1592" y="-25" on="0"/>
        <pt x="1588" y="-24" on="1"/>
        <pt x="1585" y="-23" on="0"/>
        <pt x="1579" y="-21" on="0"/>
        <pt x="1578" y="-21" on="1"/>
        <pt x="1574" y="-20" on="0"/>
        <pt x="1553" y="-18" on="0"/>
        <pt x="1529" y="-15" on="0"/>
        <pt x="1506" y="-12" on="0"/>
        <pt x="1502" y="-10" on="1"/>
        <pt x="1497" y="-10" on="0"/>
        <pt x="1461" y="-11" on="0"/>
        <pt x="1413" y="-11" on="0"/>
        <pt x="1358" y="-12" on="0"/>
        <pt x="1334" y="-12" on="1"/>
        <pt x="1309" y="-12" on="0"/>
        <pt x="1273" y="-12" on="0"/>
        <pt x="1268" y="-10" on="1"/>
        <pt x="1265" y="-10" on="0"/>
        <pt x="1247" y="-8" on="0"/>
        <pt x="1225" y="-7" on="0"/>
        <pt x="1207" y="-5" on="0"/>
        <pt x="1204" y="-5" on="1"/>
        <pt x="1199" y="-5" on="1"/>
        <pt x="1190" y="-5" on="1"/>
        <pt x="1185" y="-5" on="0"/>
        <pt x="1154" y="-7" on="0"/>
        <pt x="1119" y="-8" on="0"/>
        <pt x="1089" y="-10" on="0"/>
        <pt x="1085" y="-10" on="1"/>
        <pt x="1081" y="-10" on="1"/>
        <pt x="1076" y="-10" on="1"/>
        <pt x="1073" y="-10" on="0"/>
        <pt x="1055" y="-8" on="0"/>
        <pt x="1035" y="-7" on="0"/>
        <pt x="1018" y="-5" on="0"/>
        <pt x="1016" y="-5" on="1"/>
        <pt x="1002" y="-5" on="0"/>
        <pt x="932" y="-3" on="0"/>
        <pt x="893" y="-3" on="1"/>
        <pt x="854" y="-3" on="0"/>
        <pt x="785" y="-5" on="0"/>
        <pt x="772" y="-5" on="1"/>
        <pt x="761" y="0" on="0"/>
        <pt x="738" y="3" on="0"/>
        <pt x="727" y="3" on="1"/>
        <pt x="699" y="3" on="1"/>
        <pt x="678" y="3" on="0"/>
        <pt x="649" y="19" on="0"/>
        <pt x="649" y="48" on="1"/>
        <pt x="649" y="62" on="0"/>
        <pt x="662" y="95" on="0"/>
        <pt x="680" y="95" on="1"/>
        <pt x="848" y="95" on="1"/>
        <pt x="851" y="96" on="0"/>
        <pt x="855" y="98" on="1"/>
        <pt x="858" y="100" on="0"/>
        <pt x="863" y="102" on="0"/>
        <pt x="865" y="104" on="1"/>
        <pt x="865" y="106" on="0"/>
        <pt x="883" y="115" on="0"/>
        <pt x="884" y="118" on="1"/>
        <pt x="887" y="125" on="0"/>
        <pt x="900" y="164" on="0"/>
        <pt x="915" y="208" on="0"/>
        <pt x="928" y="246" on="0"/>
        <pt x="931" y="254" on="1"/>
        <pt x="933" y="258" on="0"/>
        <pt x="947" y="295" on="0"/>
        <pt x="963" y="336" on="0"/>
        <pt x="976" y="372" on="0"/>
        <pt x="978" y="377" on="1"/>
        <pt x="978" y="378" on="0"/>
        <pt x="980" y="394" on="0"/>
        <pt x="982" y="412" on="0"/>
        <pt x="984" y="428" on="0"/>
        <pt x="985" y="429" on="1"/>
        <pt x="985" y="431" on="0"/>
        <pt x="989" y="440" on="0"/>
        <pt x="994" y="451" on="0"/>
        <pt x="998" y="459" on="0"/>
        <pt x="998" y="460" on="1"/>
        <pt x="1000" y="464" on="0"/>
        <pt x="1007" y="489" on="0"/>
        <pt x="1009" y="493" on="1"/>
        <pt x="1014" y="513" on="0"/>
        <pt x="1034" y="552" on="0"/>
        <pt x="1054" y="591" on="0"/>
        <pt x="1069" y="632" on="0"/>
        <pt x="1069" y="654" on="1"/>
        <pt x="1069" y="675" on="1"/>
        <pt x="1060" y="684" on="0"/>
        <pt x="1026" y="689" on="0"/>
        <pt x="1009" y="689" on="1"/>
        <pt x="978" y="689" on="1"/>
        <pt x="969" y="689" on="1"/>
        <pt x="966" y="689" on="0"/>
        <pt x="941" y="687" on="0"/>
        <pt x="913" y="685" on="0"/>
        <pt x="888" y="683" on="0"/>
        <pt x="884" y="683" on="1"/>
        <pt x="825" y="683" on="1"/>
        <pt x="824" y="683" on="0"/>
        <pt x="803" y="676" on="0"/>
        <pt x="801" y="675" on="1"/>
        <pt x="794" y="675" on="1"/>
        <pt x="779" y="675" on="0"/>
        <pt x="751" y="683" on="0"/>
        <pt x="735" y="683" on="1"/>
        <pt x="725" y="683" on="1"/>
        <pt x="693" y="654" on="0"/>
        <pt x="633" y="584" on="0"/>
        <pt x="606" y="552" on="1"/>
        <pt x="604" y="551" on="0"/>
        <pt x="601" y="546" on="0"/>
        <pt x="599" y="544" on="1"/>
        <pt x="595" y="538" on="1"/>
        <pt x="575" y="503" on="0"/>
        <pt x="527" y="440" on="0"/>
        <pt x="474" y="378" on="0"/>
        <pt x="421" y="316" on="0"/>
        <pt x="396" y="284" on="1"/>
        <pt x="395" y="282" on="0"/>
        <pt x="380" y="262" on="0"/>
        <pt x="363" y="239" on="0"/>
        <pt x="347" y="219" on="0"/>
        <pt x="344" y="216" on="1"/>
        <pt x="333" y="200" on="0"/>
        <pt x="313" y="167" on="0"/>
        <pt x="313" y="149" on="1"/>
        <pt x="313" y="135" on="0"/>
        <pt x="318" y="115" on="0"/>
        <pt x="329" y="104" on="1"/>
        <pt x="333" y="97" on="0"/>
        <pt x="355" y="93" on="0"/>
        <pt x="369" y="93" on="1"/>
        <pt x="396" y="93" on="1"/>
        <pt x="417" y="93" on="0"/>
        <pt x="450" y="84" on="0"/>
        <pt x="450" y="66" on="1"/>
        <pt x="450" y="57" on="1"/>
        <pt x="441" y="43" on="0"/>
        <pt x="409" y="12" on="0"/>
        <pt x="391" y="10" on="1"/>
        <pt x="312" y="10" on="1"/>
        <pt x="282" y="10" on="1"/>
        <pt x="239" y="10" on="1"/>
        <pt x="223" y="10" on="1"/>
        <pt x="220" y="10" on="0"/>
        <pt x="208" y="8" on="0"/>
        <pt x="181" y="5" on="0"/>
        <pt x="133" y="2" on="0"/>
        <pt x="95" y="0" on="1"/>
        <pt x="61" y="-2" on="0"/>
        <pt x="-25" y="-10" on="0"/>
        <pt x="-93" y="-10" on="1"/>
        <pt x="-104" y="-10" on="0"/>
        <pt x="-131" y="-8" on="0"/>
        <pt x="-153" y="1" on="0"/>
        <pt x="-168" y="19" on="0"/>
        <pt x="-168" y="35" on="1"/>
        <pt x="-168" y="47" on="0"/>
        <pt x="-159" y="77" on="0"/>
        <pt x="-143" y="106" on="0"/>
        <pt x="-121" y="128" on="0"/>
        <pt x="-107" y="133" on="1"/>
        <pt x="-101" y="133" on="0"/>
        <pt x="-71" y="135" on="0"/>
        <pt x="-37" y="137" on="0"/>
        <pt x="-6" y="139" on="0"/>
        <pt x="0" y="140" on="1"/>
        <pt x="14" y="143" on="0"/>
        <pt x="48" y="162" on="0"/>
        <pt x="62" y="171" on="1"/>
        <pt x="69" y="176" on="0"/>
        <pt x="100" y="201" on="0"/>
        <pt x="133" y="227" on="0"/>
        <pt x="163" y="250" on="0"/>
        <pt x="168" y="254" on="1"/>
        <pt x="197" y="279" on="0"/>
        <pt x="243" y="339" on="0"/>
        <pt x="267" y="368" on="1"/>
        <pt x="268" y="370" on="0"/>
        <pt x="280" y="391" on="0"/>
        <pt x="282" y="393" on="1"/>
        <pt x="296" y="407" on="0"/>
        <pt x="336" y="431" on="0"/>
        <pt x="351" y="445" on="1"/>
        <pt x="352" y="446" on="0"/>
        <pt x="359" y="455" on="0"/>
        <pt x="366" y="465" on="0"/>
        <pt x="373" y="475" on="0"/>
        <pt x="374" y="477" on="1"/>
        <pt x="400" y="507" on="0"/>
        <pt x="451" y="561" on="0"/>
        <pt x="503" y="614" on="0"/>
        <pt x="558" y="668" on="0"/>
        <pt x="587" y="697" on="1"/>
        <pt x="588" y="701" on="0"/>
        <pt x="601" y="717" on="0"/>
        <pt x="606" y="720" on="1"/>
        <pt x="622" y="738" on="0"/>
        <pt x="659" y="773" on="0"/>
        <pt x="695" y="810" on="0"/>
        <pt x="729" y="850" on="0"/>
        <pt x="741" y="872" on="1"/>
        <pt x="748" y="880" on="0"/>
        <pt x="788" y="920" on="0"/>
        <pt x="832" y="964" on="0"/>
        <pt x="871" y="1004" on="0"/>
        <pt x="879" y="1012" on="1"/>
        <pt x="880" y="1013" on="0"/>
        <pt x="888" y="1018" on="0"/>
        <pt x="898" y="1025" on="0"/>
        <pt x="907" y="1031" on="0"/>
        <pt x="908" y="1033" on="1"/>
        <pt x="913" y="1037" on="0"/>
        <pt x="928" y="1053" on="0"/>
        <pt x="931" y="1055" on="1"/>
        <pt x="933" y="1057" on="0"/>
        <pt x="945" y="1073" on="0"/>
        <pt x="958" y="1092" on="0"/>
        <pt x="968" y="1108" on="0"/>
        <pt x="969" y="1111" on="1"/>
        <pt x="970" y="1112" on="0"/>
        <pt x="979" y="1118" on="0"/>
        <pt x="990" y="1125" on="0"/>
        <pt x="998" y="1131" on="0"/>
        <pt x="998" y="1131" on="1"/>
        <pt x="1003" y="1136" on="0"/>
        <pt x="1021" y="1153" on="0"/>
        <pt x="1023" y="1157" on="1"/>
        <pt x="1025" y="1158" on="0"/>
        <pt x="1036" y="1172" on="0"/>
        <pt x="1048" y="1190" on="0"/>
        <pt x="1059" y="1206" on="0"/>
        <pt x="1061" y="1208" on="1"/>
        <pt x="1064" y="1212" on="0"/>
        <pt x="1085" y="1234" on="0"/>
        <pt x="1109" y="1258" on="0"/>
        <pt x="1133" y="1280" on="0"/>
        <pt x="1139" y="1285" on="1"/>
        <pt x="1147" y="1292" on="0"/>
        <pt x="1173" y="1310" on="0"/>
        <pt x="1197" y="1330" on="0"/>
        <pt x="1215" y="1353" on="0"/>
        <pt x="1215" y="1365" on="1"/>
        <pt x="1215" y="1370" on="1"/>
        <pt x="1061" y="1384" on="1"/>
        <pt x="1045" y="1401" on="1"/>
        <pt x="1045" y="1403" on="0"/>
        <pt x="1043" y="1419" on="0"/>
        <pt x="1043" y="1424" on="1"/>
        <pt x="1043" y="1426" on="0"/>
        <pt x="1043" y="1434" on="0"/>
        <pt x="1044" y="1439" on="1"/>
        <pt x="1044" y="1444" on="0"/>
        <pt x="1045" y="1451" on="1"/>
        <pt x="1046" y="1454" on="0"/>
        <pt x="1055" y="1464" on="0"/>
        <pt x="1064" y="1474" on="0"/>
        <pt x="1073" y="1483" on="0"/>
        <pt x="1076" y="1484" on="1"/>
        <pt x="1151" y="1484" on="1"/>
        <pt x="1192" y="1484" on="1"/>
        <pt x="1209" y="1484" on="0"/>
        <pt x="1246" y="1482" on="0"/>
        <pt x="1260" y="1477" on="1"/>
        <pt x="1459" y="1477" on="1"/>
        <pt x="1463" y="1477" on="0"/>
        <pt x="1496" y="1474" on="0"/>
        <pt x="1535" y="1471" on="0"/>
        <pt x="1569" y="1468" on="0"/>
        <pt x="1573" y="1467" on="1"/>
        <pt x="1863" y="1467" on="1"/>
        <pt x="1875" y="1462" on="0"/>
        <pt x="1891" y="1460" on="0"/>
        <pt x="1901" y="1460" on="1"/>
        <pt x="1921" y="1460" on="1"/>
        <pt x="1939" y="1460" on="0"/>
        <pt x="1970" y="1469" on="0"/>
        <pt x="1988" y="1469" on="1"/>
        <pt x="2020" y="1469" on="0"/>
        <pt x="2064" y="1440" on="0"/>
        <pt x="2081" y="1415" on="1"/>
        <pt x="2084" y="1413" on="0"/>
        <pt x="2090" y="1393" on="0"/>
        <pt x="2090" y="1391" on="1"/>
        <pt x="2097" y="1348" on="0"/>
        <pt x="2100" y="1279" on="0"/>
        <pt x="2100" y="1239" on="1"/>
        <pt x="2100" y="1225" on="0"/>
        <pt x="2098" y="1179" on="0"/>
        <pt x="2087" y="1134" on="0"/>
        <pt x="2063" y="1102" on="0"/>
        <pt x="2042" y="1102" on="1"/>
        <pt x="2038" y="1102" on="1"/>
        <pt x="2030" y="1108" on="0"/>
        <pt x="2013" y="1138" on="0"/>
        <pt x="1997" y="1173" on="0"/>
        <pt x="1982" y="1206" on="0"/>
        <pt x="1976" y="1216" on="1"/>
        <pt x="1974" y="1219" on="0"/>
        <pt x="1962" y="1236" on="0"/>
        <pt x="1962" y="1240" on="1"/>
        <pt x="1960" y="1243" on="0"/>
        <pt x="1956" y="1267" on="0"/>
        <pt x="1953" y="1272" on="1"/>
        <pt x="1950" y="1274" on="0"/>
        <pt x="1933" y="1286" on="0"/>
        <pt x="1914" y="1301" on="0"/>
        <pt x="1897" y="1313" on="0"/>
        <pt x="1893" y="1315" on="1"/>
        <pt x="1892" y="1316" on="0"/>
        <pt x="1883" y="1321" on="0"/>
        <pt x="1872" y="1327" on="0"/>
        <pt x="1863" y="1331" on="0"/>
        <pt x="1863" y="1332" on="1"/>
        <pt x="1861" y="1333" on="0"/>
        <pt x="1849" y="1341" on="0"/>
        <pt x="1836" y="1351" on="0"/>
        <pt x="1824" y="1360" on="0"/>
        <pt x="1822" y="1362" on="1"/>
        <pt x="1822" y="1363" on="0"/>
        <pt x="1813" y="1363" on="1"/>
        <pt x="1805" y="1363" on="0"/>
        <pt x="1789" y="1362" on="0"/>
        <pt x="1787" y="1362" on="1"/>
        <pt x="1784" y="1362" on="0"/>
        <pt x="1770" y="1364" on="0"/>
        <pt x="1753" y="1367" on="0"/>
        <pt x="1738" y="1369" on="0"/>
        <pt x="1734" y="1370" on="1"/>
        <pt x="1695" y="1377" on="0"/>
        <pt x="1619" y="1384" on="0"/>
        <pt x="1578" y="1384" on="1"/>
        <pt x="1533" y="1384" on="1"/>
        <pt x="1524" y="1382" on="0"/>
        <pt x="1511" y="1371" on="0"/>
        <pt x="1502" y="1362" on="1"/>
        <pt x="1494" y="1329" on="0"/>
        <pt x="1473" y="1244" on="0"/>
        <pt x="1459" y="1208" on="1"/>
        <pt x="1442" y="1170" on="0"/>
        <pt x="1417" y="1089" on="0"/>
        <pt x="1405" y="1048" on="1"/>
        <pt x="1405" y="1047" on="0"/>
        <pt x="1400" y="1036" on="0"/>
        <pt x="1394" y="1023" on="0"/>
        <pt x="1389" y="1013" on="0"/>
        <pt x="1389" y="1012" on="1"/>
        <pt x="1389" y="1009" on="0"/>
        <pt x="1385" y="986" on="0"/>
        <pt x="1380" y="960" on="0"/>
        <pt x="1375" y="936" on="0"/>
        <pt x="1374" y="932" on="1"/>
        <pt x="1365" y="906" on="0"/>
        <pt x="1336" y="849" on="0"/>
        <pt x="1336" y="820" on="1"/>
        <pt x="1336" y="815" on="1"/>
        <pt x="1336" y="810" on="0"/>
        <pt x="1338" y="798" on="0"/>
        <pt x="1344" y="798" on="1"/>
        <pt x="1533" y="798" on="1"/>
        <pt x="1542" y="802" on="0"/>
        <pt x="1556" y="803" on="0"/>
        <pt x="1564" y="803" on="1"/>
        <pt x="1584" y="803" on="0"/>
        <pt x="1616" y="789" on="0"/>
        <pt x="1637" y="789" on="1"/>
        <pt x="1654" y="789" on="1"/>
        <pt x="1674" y="789" on="0"/>
        <pt x="1709" y="794" on="0"/>
        <pt x="1723" y="803" on="1"/>
        <pt x="1735" y="811" on="0"/>
        <pt x="1751" y="834" on="0"/>
        <pt x="1762" y="860" on="0"/>
        <pt x="1772" y="886" on="0"/>
        <pt x="1779" y="898" on="1"/>
        <pt x="1780" y="900" on="0"/>
        <pt x="1800" y="921" on="0"/>
        <pt x="1803" y="926" on="1"/>
        <pt x="1804" y="928" on="0"/>
        <pt x="1810" y="942" on="0"/>
        <pt x="1817" y="958" on="0"/>
        <pt x="1822" y="972" on="0"/>
        <pt x="1822" y="974" on="1"/>
        <pt x="1825" y="975" on="0"/>
        <pt x="1838" y="982" on="0"/>
        <pt x="1853" y="991" on="0"/>
        <pt x="1866" y="1000" on="0"/>
        <pt x="1870" y="1003" on="1"/>
        <pt x="1882" y="1003" on="1"/>
        <pt x="1892" y="1003" on="0"/>
        <pt x="1907" y="989" on="0"/>
        <pt x="1907" y="976" on="1"/>
        <pt x="1907" y="974" on="1"/>
        <pt x="1906" y="968" on="0"/>
        <pt x="1900" y="929" on="0"/>
        <pt x="1893" y="886" on="0"/>
        <pt x="1887" y="848" on="0"/>
        <pt x="1886" y="843" on="1"/>
        <pt x="1885" y="840" on="0"/>
        <pt x="1883" y="819" on="0"/>
        <pt x="1881" y="795" on="0"/>
        <pt x="1878" y="775" on="0"/>
        <pt x="1877" y="773" on="1"/>
        <pt x="1871" y="734" on="0"/>
        <pt x="1850" y="659" on="0"/>
        <pt x="1839" y="623" on="1"/>
        <pt x="1834" y="597" on="0"/>
        <pt x="1824" y="533" on="0"/>
        <pt x="1802" y="476" on="0"/>
        <pt x="1764" y="438" on="0"/>
        <pt x="1730" y="438" on="1"/>
        <pt x="1710" y="438" on="0"/>
        <pt x="1694" y="454" on="0"/>
        <pt x="1694" y="471" on="1"/>
        <pt x="1694" y="507" on="0"/>
        <pt x="1711" y="574" on="0"/>
        <pt x="1711" y="612" on="1"/>
        <pt x="1711" y="623" on="1"/>
        <pt x="1711" y="631" on="0"/>
        <pt x="1708" y="646" on="0"/>
        <pt x="1703" y="652" on="1"/>
        <pt x="1701" y="655" on="0"/>
        <pt x="1691" y="666" on="0"/>
        <pt x="1681" y="675" on="0"/>
        <pt x="1672" y="683" on="0"/>
        <pt x="1671" y="683" on="1"/>
        <pt x="1658" y="683" on="1"/>
        <pt x="1616" y="683" on="1"/>
        <pt x="1613" y="683" on="0"/>
        <pt x="1585" y="685" on="0"/>
        <pt x="1552" y="687" on="0"/>
        <pt x="1523" y="689" on="0"/>
        <pt x="1519" y="689" on="1"/>
        <pt x="1514" y="689" on="1"/>
        <pt x="1502" y="689" on="1"/>
        <pt x="1500" y="689" on="0"/>
        <pt x="1481" y="687" on="0"/>
        <pt x="1458" y="685" on="0"/>
        <pt x="1437" y="683" on="0"/>
        <pt x="1433" y="683" on="1"/>
        <pt x="1426" y="682" on="0"/>
        <pt x="1388" y="682" on="0"/>
        <pt x="1365" y="682" on="1"/>
        <pt x="1343" y="682" on="0"/>
        <pt x="1304" y="682" on="0"/>
        <pt x="1298" y="683" on="1"/>
        <pt x="1292" y="680" on="0"/>
        <pt x="1282" y="663" on="0"/>
        <pt x="1275" y="642" on="0"/>
        <pt x="1269" y="620" on="0"/>
        <pt x="1268" y="612" on="1"/>
        <pt x="1253" y="558" on="0"/>
        <pt x="1227" y="447" on="0"/>
        <pt x="1204" y="393" on="1"/>
        <pt x="1204" y="392" on="0"/>
        <pt x="1202" y="387" on="0"/>
        <pt x="1201" y="384" on="1"/>
        <pt x="1200" y="380" on="0"/>
        <pt x="1199" y="377" on="1"/>
        <pt x="1196" y="370" on="0"/>
        <pt x="1185" y="345" on="0"/>
        <pt x="1175" y="320" on="0"/>
        <pt x="1168" y="300" on="0"/>
        <pt x="1168" y="299" on="1"/>
        <pt x="1167" y="299" on="0"/>
        <pt x="1165" y="288" on="0"/>
        <pt x="1164" y="275" on="0"/>
        <pt x="1162" y="264" on="0"/>
        <pt x="1161" y="263" on="1"/>
        <pt x="1153" y="231" on="0"/>
        <pt x="1130" y="174" on="0"/>
        <pt x="1130" y="142" on="1"/>
        <pt x="1130" y="130" on="0"/>
        <pt x="1141" y="113" on="0"/>
        <pt x="1159" y="102" on="0"/>
        <pt x="1180" y="96" on="0"/>
        <pt x="1190" y="95" on="1"/>
        <pt x="1313" y="95" on="1"/>
        <pt x="1433" y="95" on="1"/>
        <pt x="1437" y="95" on="0"/>
        <pt x="1462" y="98" on="0"/>
        <pt x="1490" y="101" on="0"/>
        <pt x="1515" y="104" on="0"/>
        <pt x="1519" y="104" on="1"/>
        <pt x="1521" y="104" on="0"/>
        <pt x="1541" y="101" on="0"/>
        <pt x="1565" y="98" on="0"/>
        <pt x="1585" y="95" on="0"/>
        <pt x="1588" y="95" on="1"/>
        <pt x="1604" y="95" on="1"/>
        <pt x="1616" y="95" on="1"/>
        <pt x="1628" y="96" on="0"/>
        <pt x="1671" y="99" on="0"/>
        <pt x="1716" y="100" on="0"/>
        <pt x="1752" y="102" on="0"/>
        <pt x="1756" y="104" on="1"/>
        <pt x="1768" y="104" on="0"/>
        <pt x="1806" y="109" on="0"/>
        <pt x="1817" y="118" on="1"/>
        <pt x="1819" y="119" on="0"/>
        <pt x="1831" y="131" on="0"/>
        <pt x="1832" y="133" on="1"/>
        <pt x="1832" y="136" on="0"/>
        <pt x="1839" y="152" on="0"/>
        <pt x="1839" y="154" on="1"/>
        <pt x="1855" y="181" on="0"/>
        <pt x="1899" y="229" on="0"/>
        <pt x="1917" y="254" on="1"/>
        <pt x="1918" y="257" on="0"/>
        <pt x="1926" y="270" on="0"/>
        <pt x="1935" y="285" on="0"/>
        <pt x="1943" y="297" on="0"/>
        <pt x="1945" y="299" on="1"/>
        <pt x="1947" y="300" on="0"/>
        <pt x="1952" y="310" on="0"/>
        <pt x="1957" y="320" on="0"/>
        <pt x="1961" y="329" on="0"/>
        <pt x="1962" y="330" on="1"/>
        <pt x="1963" y="332" on="0"/>
        <pt x="1977" y="347" on="0"/>
        <pt x="1995" y="365" on="0"/>
        <pt x="2012" y="382" on="0"/>
        <pt x="2016" y="386" on="1"/>
        <pt x="2021" y="390" on="0"/>
        <pt x="2050" y="407" on="0"/>
        <pt x="2059" y="407" on="1"/>
        <pt x="2067" y="407" on="0"/>
        <pt x="2069" y="392" on="0"/>
        <pt x="2069" y="388" on="1"/>
        <pt x="2069" y="377" on="1"/>
        <pt x="2069" y="371" on="0"/>
        <pt x="2066" y="349" on="0"/>
        <pt x="2063" y="328" on="0"/>
        <pt x="2061" y="311" on="0"/>
        <pt x="2061" y="308" on="1"/>
        <pt x="2061" y="305" on="0"/>
        <pt x="2054" y="294" on="0"/>
        <pt x="2052" y="294" on="1"/>
        <pt x="2050" y="289" on="0"/>
        <pt x="2047" y="272" on="0"/>
        <pt x="2047" y="270" on="1"/>
        <pt x="2045" y="267" on="0"/>
        <pt x="2045" y="253" on="0"/>
        <pt x="2045" y="244" on="1"/>
        <pt x="2045" y="224" on="0"/>
        <pt x="2047" y="184" on="0"/>
        <pt x="2047" y="180" on="1"/>
        <pt x="2047" y="178" on="0"/>
        <pt x="2043" y="158" on="0"/>
        <pt x="2038" y="133" on="0"/>
        <pt x="2033" y="110" on="0"/>
        <pt x="2031" y="104" on="1"/>
        <pt x="2029" y="100" on="0"/>
        <pt x="2023" y="80" on="0"/>
        <pt x="2023" y="78" on="1"/>
        <pt x="2023" y="76" on="0"/>
        <pt x="2021" y="59" on="0"/>
        <pt x="2019" y="38" on="0"/>
        <pt x="2016" y="20" on="0"/>
        <pt x="2016" y="17" on="1"/>
        <pt x="2015" y="16" on="0"/>
        <pt x="2008" y="8" on="0"/>
        <pt x="1998" y="-1" on="0"/>
        <pt x="1989" y="-9" on="0"/>
        <pt x="1986" y="-10" on="1"/>
        <pt x="1983" y="-12" on="0"/>
        <pt x="1969" y="-19" on="0"/>
        <pt x="1954" y="-28" on="0"/>
        <pt x="1941" y="-35" on="0"/>
        <pt x="1938" y="-36" on="1"/>
        <pt x="1931" y="-36" on="1"/>
        <pt x="1924" y="-36" on="1"/>
        <pt x="1872" y="-25" on="0"/>
        <pt x="1770" y="-21" on="0"/>
      </contour>
    </TTGlyph>
    <TTGlyph name="AE.swash" xMin="58" yMin="-24" xMax="3198" yMax="1495">
      <contour>
        <pt x="2042" y="825" on="1"/>
        <pt x="2042" y="815" on="0"/>
        <pt x="2052" y="797" on="0"/>
        <pt x="2068" y="784" on="0"/>
        <pt x="2087" y="777" on="0"/>
        <pt x="2096" y="777" on="1"/>
        <pt x="2196" y="777" on="1"/>
        <pt x="2198" y="777" on="0"/>
        <pt x="2216" y="770" on="0"/>
        <pt x="2218" y="770" on="1"/>
        <pt x="2232" y="770" on="1"/>
        <pt x="2255" y="770" on="0"/>
        <pt x="2275" y="782" on="0"/>
        <pt x="2284" y="799" on="1"/>
        <pt x="2290" y="806" on="0"/>
        <pt x="2298" y="812" on="0"/>
        <pt x="2304" y="816" on="0"/>
        <pt x="2308" y="824" on="0"/>
        <pt x="2310" y="832" on="1"/>
        <pt x="2310" y="833" on="0"/>
        <pt x="2312" y="844" on="0"/>
        <pt x="2313" y="857" on="0"/>
        <pt x="2315" y="868" on="0"/>
        <pt x="2315" y="868" on="1"/>
        <pt x="2316" y="870" on="0"/>
        <pt x="2323" y="884" on="0"/>
        <pt x="2332" y="900" on="0"/>
        <pt x="2339" y="913" on="0"/>
        <pt x="2340" y="915" on="1"/>
        <pt x="2350" y="940" on="0"/>
        <pt x="2364" y="1002" on="0"/>
        <pt x="2371" y="1029" on="1"/>
        <pt x="2375" y="1049" on="0"/>
        <pt x="2391" y="1078" on="0"/>
        <pt x="2393" y="1099" on="1"/>
        <pt x="2393" y="1101" on="0"/>
        <pt x="2396" y="1119" on="0"/>
        <pt x="2399" y="1139" on="0"/>
        <pt x="2402" y="1157" on="0"/>
        <pt x="2402" y="1159" on="1"/>
        <pt x="2404" y="1163" on="0"/>
        <pt x="2416" y="1188" on="0"/>
        <pt x="2416" y="1192" on="1"/>
        <pt x="2416" y="1197" on="0"/>
        <pt x="2417" y="1201" on="1"/>
        <pt x="2419" y="1209" on="0"/>
        <pt x="2419" y="1211" on="1"/>
        <pt x="2419" y="1215" on="0"/>
        <pt x="2417" y="1227" on="0"/>
        <pt x="2409" y="1228" on="1"/>
        <pt x="2388" y="1217" on="0"/>
        <pt x="2355" y="1191" on="0"/>
        <pt x="2340" y="1173" on="1"/>
        <pt x="2338" y="1171" on="0"/>
        <pt x="2327" y="1154" on="0"/>
        <pt x="2326" y="1154" on="1"/>
        <pt x="2324" y="1151" on="0"/>
        <pt x="2304" y="1138" on="0"/>
        <pt x="2302" y="1137" on="1"/>
        <pt x="2300" y="1135" on="0"/>
        <pt x="2290" y="1127" on="0"/>
        <pt x="2281" y="1117" on="0"/>
        <pt x="2273" y="1108" on="0"/>
        <pt x="2272" y="1105" on="1"/>
        <pt x="2270" y="1103" on="0"/>
        <pt x="2259" y="1087" on="0"/>
        <pt x="2246" y="1069" on="0"/>
        <pt x="2235" y="1054" on="0"/>
        <pt x="2232" y="1052" on="1"/>
        <pt x="2206" y="1023" on="0"/>
        <pt x="2155" y="972" on="0"/>
        <pt x="2107" y="921" on="0"/>
        <pt x="2062" y="865" on="0"/>
        <pt x="2042" y="832" on="1"/>
      </contour>
      <contour>
        <pt x="1783" y="0" on="1"/>
        <pt x="1783" y="26" on="1"/>
        <pt x="1783" y="49" on="0"/>
        <pt x="1796" y="81" on="0"/>
        <pt x="1821" y="83" on="1"/>
        <pt x="1825" y="83" on="0"/>
        <pt x="1859" y="85" on="0"/>
        <pt x="1898" y="87" on="0"/>
        <pt x="1932" y="89" on="0"/>
        <pt x="1936" y="90" on="1"/>
        <pt x="1963" y="93" on="0"/>
        <pt x="2006" y="103" on="0"/>
        <pt x="2039" y="123" on="0"/>
        <pt x="2063" y="156" on="0"/>
        <pt x="2073" y="182" on="1"/>
        <pt x="2074" y="183" on="0"/>
        <pt x="2079" y="194" on="0"/>
        <pt x="2085" y="207" on="0"/>
        <pt x="2089" y="218" on="0"/>
        <pt x="2089" y="220" on="1"/>
        <pt x="2089" y="224" on="0"/>
        <pt x="2100" y="257" on="0"/>
        <pt x="2113" y="296" on="0"/>
        <pt x="2125" y="330" on="0"/>
        <pt x="2127" y="334" on="1"/>
        <pt x="2127" y="336" on="0"/>
        <pt x="2132" y="349" on="0"/>
        <pt x="2134" y="351" on="1"/>
        <pt x="2134" y="353" on="0"/>
        <pt x="2149" y="371" on="0"/>
        <pt x="2151" y="374" on="1"/>
        <pt x="2151" y="374" on="0"/>
        <pt x="2153" y="385" on="0"/>
        <pt x="2154" y="398" on="0"/>
        <pt x="2156" y="409" on="0"/>
        <pt x="2156" y="410" on="1"/>
        <pt x="2159" y="412" on="0"/>
        <pt x="2163" y="432" on="0"/>
        <pt x="2165" y="434" on="1"/>
        <pt x="2165" y="436" on="0"/>
        <pt x="2180" y="454" on="0"/>
        <pt x="2182" y="457" on="1"/>
        <pt x="2186" y="467" on="0"/>
        <pt x="2197" y="508" on="0"/>
        <pt x="2209" y="552" on="0"/>
        <pt x="2224" y="588" on="0"/>
        <pt x="2232" y="593" on="1"/>
        <pt x="2232" y="656" on="1"/>
        <pt x="2232" y="659" on="0"/>
        <pt x="2225" y="663" on="1"/>
        <pt x="2224" y="663" on="0"/>
        <pt x="2194" y="670" on="0"/>
        <pt x="2187" y="670" on="1"/>
        <pt x="2185" y="670" on="0"/>
        <pt x="2167" y="673" on="0"/>
        <pt x="2147" y="676" on="0"/>
        <pt x="2129" y="679" on="0"/>
        <pt x="2127" y="680" on="1"/>
        <pt x="2125" y="680" on="0"/>
        <pt x="2113" y="682" on="0"/>
        <pt x="2100" y="683" on="0"/>
        <pt x="2089" y="685" on="0"/>
        <pt x="2089" y="685" on="1"/>
        <pt x="2087" y="685" on="0"/>
        <pt x="2078" y="683" on="0"/>
        <pt x="2068" y="682" on="0"/>
        <pt x="2059" y="680" on="0"/>
        <pt x="2058" y="680" on="1"/>
        <pt x="1981" y="680" on="1"/>
        <pt x="1979" y="680" on="0"/>
        <pt x="1964" y="676" on="0"/>
        <pt x="1948" y="671" on="0"/>
        <pt x="1932" y="665" on="0"/>
        <pt x="1928" y="663" on="1"/>
        <pt x="1926" y="662" on="0"/>
        <pt x="1924" y="660" on="1"/>
        <pt x="1922" y="658" on="0"/>
        <pt x="1922" y="657" on="1"/>
        <pt x="1921" y="656" on="1"/>
        <pt x="1918" y="656" on="0"/>
        <pt x="1914" y="642" on="0"/>
        <pt x="1912" y="640" on="1"/>
        <pt x="1910" y="638" on="0"/>
        <pt x="1894" y="622" on="0"/>
        <pt x="1876" y="604" on="0"/>
        <pt x="1861" y="588" on="0"/>
        <pt x="1859" y="586" on="1"/>
        <pt x="1852" y="578" on="0"/>
        <pt x="1840" y="557" on="0"/>
        <pt x="1828" y="534" on="0"/>
        <pt x="1815" y="512" on="0"/>
        <pt x="1807" y="505" on="1"/>
        <pt x="1804" y="503" on="0"/>
        <pt x="1781" y="483" on="0"/>
        <pt x="1776" y="479" on="1"/>
        <pt x="1764" y="471" on="0"/>
        <pt x="1752" y="459" on="0"/>
        <pt x="1744" y="448" on="0"/>
        <pt x="1736" y="435" on="0"/>
        <pt x="1727" y="426" on="1"/>
        <pt x="1724" y="423" on="0"/>
        <pt x="1708" y="405" on="0"/>
        <pt x="1689" y="386" on="0"/>
        <pt x="1671" y="368" on="0"/>
        <pt x="1667" y="365" on="1"/>
        <pt x="1664" y="363" on="0"/>
        <pt x="1661" y="362" on="1"/>
        <pt x="1655" y="360" on="0"/>
        <pt x="1653" y="360" on="1"/>
        <pt x="1632" y="344" on="0"/>
        <pt x="1597" y="308" on="0"/>
        <pt x="1563" y="271" on="0"/>
        <pt x="1528" y="235" on="0"/>
        <pt x="1507" y="220" on="1"/>
        <pt x="1506" y="218" on="0"/>
        <pt x="1485" y="215" on="0"/>
        <pt x="1483" y="213" on="1"/>
        <pt x="1481" y="213" on="0"/>
        <pt x="1471" y="206" on="0"/>
        <pt x="1469" y="206" on="1"/>
        <pt x="1395" y="155" on="0"/>
        <pt x="1239" y="86" on="0"/>
        <pt x="1158" y="52" on="1"/>
        <pt x="1135" y="44" on="0"/>
        <pt x="1083" y="26" on="0"/>
        <pt x="1059" y="21" on="1"/>
        <pt x="1056" y="20" on="0"/>
        <pt x="1036" y="18" on="0"/>
        <pt x="1012" y="16" on="0"/>
        <pt x="991" y="14" on="0"/>
        <pt x="988" y="14" on="1"/>
        <pt x="988" y="14" on="0"/>
        <pt x="977" y="12" on="0"/>
        <pt x="964" y="9" on="0"/>
        <pt x="952" y="7" on="0"/>
        <pt x="950" y="7" on="1"/>
        <pt x="937" y="5" on="0"/>
        <pt x="876" y="1" on="0"/>
        <pt x="808" y="-4" on="0"/>
        <pt x="749" y="-8" on="0"/>
        <pt x="738" y="-9" on="1"/>
        <pt x="682" y="-9" on="1"/>
        <pt x="637" y="-9" on="1"/>
        <pt x="635" y="-9" on="0"/>
        <pt x="622" y="-5" on="0"/>
        <pt x="607" y="-1" on="0"/>
        <pt x="593" y="3" on="0"/>
        <pt x="592" y="3" on="1"/>
        <pt x="589" y="4" on="0"/>
        <pt x="569" y="7" on="0"/>
        <pt x="545" y="10" on="0"/>
        <pt x="525" y="13" on="0"/>
        <pt x="523" y="14" on="1"/>
        <pt x="522" y="14" on="0"/>
        <pt x="513" y="20" on="0"/>
        <pt x="503" y="27" on="0"/>
        <pt x="493" y="33" on="0"/>
        <pt x="492" y="33" on="1"/>
        <pt x="490" y="34" on="0"/>
        <pt x="473" y="37" on="0"/>
        <pt x="452" y="41" on="0"/>
        <pt x="433" y="44" on="0"/>
        <pt x="430" y="45" on="1"/>
        <pt x="409" y="48" on="0"/>
        <pt x="370" y="65" on="0"/>
        <pt x="333" y="89" on="0"/>
        <pt x="296" y="117" on="0"/>
        <pt x="277" y="130" on="1"/>
        <pt x="262" y="141" on="0"/>
        <pt x="226" y="159" on="0"/>
        <pt x="210" y="176" on="1"/>
        <pt x="208" y="176" on="0"/>
        <pt x="196" y="194" on="0"/>
        <pt x="196" y="195" on="1"/>
        <pt x="182" y="212" on="0"/>
        <pt x="153" y="244" on="0"/>
        <pt x="144" y="258" on="1"/>
        <pt x="142" y="259" on="0"/>
        <pt x="137" y="268" on="0"/>
        <pt x="132" y="278" on="0"/>
        <pt x="128" y="287" on="0"/>
        <pt x="127" y="289" on="1"/>
        <pt x="125" y="293" on="0"/>
        <pt x="113" y="310" on="0"/>
        <pt x="98" y="330" on="0"/>
        <pt x="85" y="347" on="0"/>
        <pt x="82" y="351" on="1"/>
        <pt x="75" y="401" on="0"/>
        <pt x="58" y="499" on="0"/>
        <pt x="58" y="547" on="1"/>
        <pt x="58" y="588" on="0"/>
        <pt x="65" y="666" on="0"/>
        <pt x="93" y="726" on="0"/>
        <pt x="149" y="763" on="0"/>
        <pt x="198" y="763" on="1"/>
        <pt x="234" y="763" on="0"/>
        <pt x="286" y="714" on="0"/>
        <pt x="286" y="675" on="1"/>
        <pt x="286" y="645" on="0"/>
        <pt x="257" y="581" on="0"/>
        <pt x="232" y="566" on="1"/>
        <pt x="231" y="562" on="0"/>
        <pt x="212" y="550" on="0"/>
        <pt x="210" y="548" on="1"/>
        <pt x="198" y="536" on="0"/>
        <pt x="180" y="505" on="0"/>
        <pt x="168" y="471" on="0"/>
        <pt x="163" y="436" on="0"/>
        <pt x="163" y="420" on="1"/>
        <pt x="163" y="371" on="0"/>
        <pt x="212" y="291" on="0"/>
        <pt x="257" y="266" on="1"/>
        <pt x="257" y="266" on="0"/>
        <pt x="275" y="259" on="0"/>
        <pt x="299" y="250" on="0"/>
        <pt x="324" y="239" on="0"/>
        <pt x="333" y="235" on="1"/>
        <pt x="362" y="224" on="0"/>
        <pt x="424" y="188" on="0"/>
        <pt x="456" y="182" on="1"/>
        <pt x="459" y="181" on="0"/>
        <pt x="489" y="179" on="0"/>
        <pt x="525" y="177" on="0"/>
        <pt x="557" y="176" on="0"/>
        <pt x="561" y="176" on="1"/>
        <pt x="562" y="176" on="0"/>
        <pt x="572" y="173" on="0"/>
        <pt x="582" y="169" on="0"/>
        <pt x="591" y="166" on="0"/>
        <pt x="592" y="166" on="1"/>
        <pt x="618" y="166" on="1"/>
        <pt x="646" y="166" on="1"/>
        <pt x="647" y="166" on="0"/>
        <pt x="663" y="167" on="0"/>
        <pt x="681" y="167" on="0"/>
        <pt x="698" y="168" on="0"/>
        <pt x="700" y="168" on="1"/>
        <pt x="700" y="168" on="0"/>
        <pt x="709" y="167" on="0"/>
        <pt x="720" y="167" on="0"/>
        <pt x="729" y="166" on="0"/>
        <pt x="731" y="166" on="1"/>
        <pt x="765" y="166" on="1"/>
        <pt x="798" y="166" on="0"/>
        <pt x="858" y="185" on="0"/>
        <pt x="890" y="190" on="1"/>
        <pt x="893" y="190" on="0"/>
        <pt x="919" y="192" on="0"/>
        <pt x="950" y="193" on="0"/>
        <pt x="978" y="195" on="0"/>
        <pt x="982" y="195" on="1"/>
        <pt x="984" y="196" on="0"/>
        <pt x="997" y="197" on="0"/>
        <pt x="1012" y="198" on="0"/>
        <pt x="1025" y="199" on="0"/>
        <pt x="1028" y="199" on="1"/>
        <pt x="1029" y="199" on="0"/>
        <pt x="1047" y="201" on="0"/>
        <pt x="1068" y="203" on="0"/>
        <pt x="1088" y="205" on="0"/>
        <pt x="1091" y="206" on="1"/>
        <pt x="1092" y="206" on="0"/>
        <pt x="1107" y="213" on="0"/>
        <pt x="1124" y="221" on="0"/>
        <pt x="1139" y="228" on="0"/>
        <pt x="1141" y="228" on="1"/>
        <pt x="1145" y="229" on="0"/>
        <pt x="1172" y="235" on="0"/>
        <pt x="1203" y="242" on="0"/>
        <pt x="1230" y="249" on="0"/>
        <pt x="1234" y="251" on="1"/>
        <pt x="1236" y="251" on="0"/>
        <pt x="1246" y="258" on="0"/>
        <pt x="1248" y="258" on="1"/>
        <pt x="1254" y="260" on="0"/>
        <pt x="1274" y="265" on="0"/>
        <pt x="1294" y="269" on="0"/>
        <pt x="1309" y="272" on="0"/>
        <pt x="1310" y="272" on="1"/>
        <pt x="1313" y="274" on="0"/>
        <pt x="1336" y="280" on="0"/>
        <pt x="1338" y="280" on="1"/>
        <pt x="1342" y="280" on="0"/>
        <pt x="1347" y="289" on="0"/>
        <pt x="1348" y="289" on="1"/>
        <pt x="1372" y="300" on="0"/>
        <pt x="1404" y="314" on="0"/>
        <pt x="1430" y="326" on="0"/>
        <pt x="1454" y="337" on="0"/>
        <pt x="1469" y="344" on="1"/>
        <pt x="1470" y="345" on="0"/>
        <pt x="1480" y="351" on="0"/>
        <pt x="1490" y="359" on="0"/>
        <pt x="1499" y="365" on="0"/>
        <pt x="1501" y="365" on="1"/>
        <pt x="1502" y="366" on="0"/>
        <pt x="1509" y="373" on="0"/>
        <pt x="1516" y="382" on="0"/>
        <pt x="1521" y="389" on="0"/>
        <pt x="1521" y="389" on="1"/>
        <pt x="1524" y="390" on="0"/>
        <pt x="1536" y="399" on="0"/>
        <pt x="1549" y="408" on="0"/>
        <pt x="1561" y="417" on="0"/>
        <pt x="1563" y="420" on="1"/>
        <pt x="1565" y="422" on="0"/>
        <pt x="1575" y="439" on="0"/>
        <pt x="1577" y="441" on="1"/>
        <pt x="1577" y="443" on="0"/>
        <pt x="1588" y="454" on="0"/>
        <pt x="1592" y="457" on="1"/>
        <pt x="1655" y="514" on="0"/>
        <pt x="1763" y="625" on="0"/>
        <pt x="1821" y="685" on="1"/>
        <pt x="1823" y="688" on="0"/>
        <pt x="1834" y="706" on="0"/>
        <pt x="1836" y="711" on="1"/>
        <pt x="1837" y="712" on="0"/>
        <pt x="1844" y="725" on="0"/>
        <pt x="1852" y="740" on="0"/>
        <pt x="1858" y="753" on="0"/>
        <pt x="1859" y="754" on="1"/>
        <pt x="1861" y="757" on="0"/>
        <pt x="1881" y="778" on="0"/>
        <pt x="1905" y="802" on="0"/>
        <pt x="1925" y="822" on="0"/>
        <pt x="1928" y="825" on="1"/>
        <pt x="1953" y="853" on="0"/>
        <pt x="1992" y="909" on="0"/>
        <pt x="2013" y="938" on="1"/>
        <pt x="2030" y="963" on="0"/>
        <pt x="2069" y="1009" on="0"/>
        <pt x="2089" y="1029" on="1"/>
        <pt x="2092" y="1035" on="0"/>
        <pt x="2095" y="1040" on="1"/>
        <pt x="2097" y="1044" on="0"/>
        <pt x="2101" y="1051" on="0"/>
        <pt x="2101" y="1052" on="1"/>
        <pt x="2123" y="1081" on="0"/>
        <pt x="2161" y="1119" on="0"/>
        <pt x="2187" y="1142" on="1"/>
        <pt x="2189" y="1144" on="0"/>
        <pt x="2208" y="1159" on="0"/>
        <pt x="2210" y="1159" on="1"/>
        <pt x="2213" y="1161" on="0"/>
        <pt x="2233" y="1181" on="0"/>
        <pt x="2256" y="1205" on="0"/>
        <pt x="2276" y="1225" on="0"/>
        <pt x="2279" y="1228" on="1"/>
        <pt x="2279" y="1229" on="0"/>
        <pt x="2288" y="1235" on="0"/>
        <pt x="2300" y="1242" on="0"/>
        <pt x="2312" y="1249" on="0"/>
        <pt x="2315" y="1251" on="1"/>
        <pt x="2338" y="1262" on="0"/>
        <pt x="2361" y="1294" on="0"/>
        <pt x="2379" y="1311" on="1"/>
        <pt x="2392" y="1323" on="0"/>
        <pt x="2422" y="1338" on="0"/>
        <pt x="2454" y="1351" on="0"/>
        <pt x="2485" y="1363" on="0"/>
        <pt x="2499" y="1372" on="1"/>
        <pt x="2502" y="1373" on="0"/>
        <pt x="2513" y="1383" on="0"/>
        <pt x="2526" y="1393" on="0"/>
        <pt x="2537" y="1402" on="0"/>
        <pt x="2539" y="1403" on="1"/>
        <pt x="2592" y="1439" on="0"/>
        <pt x="2717" y="1485" on="0"/>
        <pt x="2782" y="1488" on="1"/>
        <pt x="2890" y="1488" on="1"/>
        <pt x="2892" y="1488" on="0"/>
        <pt x="2910" y="1490" on="0"/>
        <pt x="2930" y="1492" on="0"/>
        <pt x="2948" y="1494" on="0"/>
        <pt x="2950" y="1495" on="1"/>
        <pt x="2954" y="1495" on="1"/>
        <pt x="2959" y="1495" on="1"/>
        <pt x="2961" y="1494" on="0"/>
        <pt x="2981" y="1487" on="0"/>
        <pt x="3005" y="1480" on="0"/>
        <pt x="3025" y="1474" on="0"/>
        <pt x="3028" y="1474" on="1"/>
        <pt x="3057" y="1465" on="0"/>
        <pt x="3114" y="1446" on="0"/>
        <pt x="3134" y="1419" on="1"/>
        <pt x="3147" y="1401" on="0"/>
        <pt x="3171" y="1372" on="0"/>
        <pt x="3188" y="1344" on="0"/>
        <pt x="3198" y="1310" on="0"/>
        <pt x="3198" y="1287" on="1"/>
        <pt x="3198" y="1228" on="0"/>
        <pt x="3156" y="1159" on="0"/>
        <pt x="3094" y="1159" on="1"/>
        <pt x="3051" y="1159" on="1"/>
        <pt x="3043" y="1161" on="0"/>
        <pt x="3024" y="1177" on="0"/>
        <pt x="3019" y="1183" on="1"/>
        <pt x="3018" y="1185" on="0"/>
        <pt x="3010" y="1201" on="0"/>
        <pt x="3000" y="1221" on="0"/>
        <pt x="2991" y="1238" on="0"/>
        <pt x="2988" y="1242" on="1"/>
        <pt x="2988" y="1246" on="1"/>
        <pt x="2988" y="1261" on="0"/>
        <pt x="2997" y="1291" on="0"/>
        <pt x="2997" y="1308" on="1"/>
        <pt x="2997" y="1343" on="0"/>
        <pt x="2954" y="1396" on="0"/>
        <pt x="2928" y="1419" on="1"/>
        <pt x="2924" y="1421" on="0"/>
        <pt x="2900" y="1432" on="0"/>
        <pt x="2898" y="1434" on="1"/>
        <pt x="2887" y="1435" on="0"/>
        <pt x="2865" y="1429" on="0"/>
        <pt x="2843" y="1418" on="0"/>
        <pt x="2823" y="1407" on="0"/>
        <pt x="2814" y="1403" on="1"/>
        <pt x="2797" y="1397" on="0"/>
        <pt x="2771" y="1390" on="0"/>
        <pt x="2747" y="1381" on="0"/>
        <pt x="2726" y="1365" on="0"/>
        <pt x="2715" y="1349" on="1"/>
        <pt x="2714" y="1349" on="0"/>
        <pt x="2706" y="1336" on="0"/>
        <pt x="2696" y="1319" on="0"/>
        <pt x="2687" y="1302" on="0"/>
        <pt x="2684" y="1297" on="1"/>
        <pt x="2667" y="1268" on="0"/>
        <pt x="2630" y="1202" on="0"/>
        <pt x="2623" y="1166" on="1"/>
        <pt x="2623" y="1164" on="0"/>
        <pt x="2621" y="1147" on="0"/>
        <pt x="2619" y="1126" on="0"/>
        <pt x="2616" y="1108" on="0"/>
        <pt x="2615" y="1105" on="1"/>
        <pt x="2615" y="1104" on="0"/>
        <pt x="2611" y="1094" on="0"/>
        <pt x="2606" y="1081" on="0"/>
        <pt x="2600" y="1070" on="0"/>
        <pt x="2599" y="1067" on="1"/>
        <pt x="2595" y="1063" on="1"/>
        <pt x="2593" y="1061" on="0"/>
        <pt x="2593" y="1060" on="1"/>
        <pt x="2592" y="1059" on="1"/>
        <pt x="2592" y="1057" on="0"/>
        <pt x="2588" y="1042" on="0"/>
        <pt x="2582" y="1025" on="0"/>
        <pt x="2576" y="1010" on="0"/>
        <pt x="2575" y="1009" on="1"/>
        <pt x="2575" y="1004" on="0"/>
        <pt x="2563" y="979" on="0"/>
        <pt x="2561" y="977" on="1"/>
        <pt x="2560" y="975" on="0"/>
        <pt x="2554" y="955" on="0"/>
        <pt x="2547" y="931" on="0"/>
        <pt x="2540" y="910" on="0"/>
        <pt x="2539" y="907" on="1"/>
        <pt x="2536" y="906" on="0"/>
        <pt x="2534" y="904" on="1"/>
        <pt x="2530" y="900" on="1"/>
        <pt x="2530" y="898" on="0"/>
        <pt x="2528" y="887" on="0"/>
        <pt x="2525" y="874" on="0"/>
        <pt x="2523" y="864" on="0"/>
        <pt x="2523" y="863" on="1"/>
        <pt x="2522" y="861" on="0"/>
        <pt x="2518" y="848" on="0"/>
        <pt x="2514" y="831" on="0"/>
        <pt x="2511" y="816" on="0"/>
        <pt x="2511" y="813" on="1"/>
        <pt x="2509" y="811" on="1"/>
        <pt x="2507" y="809" on="0"/>
        <pt x="2507" y="808" on="1"/>
        <pt x="2507" y="797" on="0"/>
        <pt x="2519" y="785" on="0"/>
        <pt x="2537" y="779" on="0"/>
        <pt x="2558" y="777" on="0"/>
        <pt x="2568" y="777" on="1"/>
        <pt x="2587" y="777" on="1"/>
        <pt x="2630" y="777" on="1"/>
        <pt x="2632" y="777" on="0"/>
        <pt x="2647" y="779" on="0"/>
        <pt x="2665" y="782" on="0"/>
        <pt x="2681" y="785" on="0"/>
        <pt x="2684" y="785" on="1"/>
        <pt x="2695" y="785" on="0"/>
        <pt x="2751" y="787" on="0"/>
        <pt x="2782" y="787" on="1"/>
        <pt x="2814" y="787" on="0"/>
        <pt x="2871" y="785" on="0"/>
        <pt x="2883" y="785" on="1"/>
        <pt x="2889" y="788" on="0"/>
        <pt x="2904" y="801" on="0"/>
        <pt x="2919" y="814" on="0"/>
        <pt x="2931" y="827" on="0"/>
        <pt x="2933" y="832" on="1"/>
        <pt x="2935" y="833" on="0"/>
        <pt x="2945" y="853" on="0"/>
        <pt x="2955" y="877" on="0"/>
        <pt x="2964" y="898" on="0"/>
        <pt x="2966" y="900" on="1"/>
        <pt x="2967" y="902" on="0"/>
        <pt x="2975" y="916" on="0"/>
        <pt x="2984" y="933" on="0"/>
        <pt x="2993" y="949" on="0"/>
        <pt x="2995" y="953" on="1"/>
        <pt x="2997" y="954" on="0"/>
        <pt x="2999" y="956" on="1"/>
        <pt x="3001" y="957" on="0"/>
        <pt x="3004" y="960" on="1"/>
        <pt x="3005" y="963" on="0"/>
        <pt x="3013" y="977" on="0"/>
        <pt x="3024" y="993" on="0"/>
        <pt x="3033" y="1007" on="0"/>
        <pt x="3035" y="1009" on="1"/>
        <pt x="3041" y="1011" on="1"/>
        <pt x="3043" y="1012" on="0"/>
        <pt x="3049" y="1014" on="0"/>
        <pt x="3051" y="1014" on="1"/>
        <pt x="3054" y="1014" on="1"/>
        <pt x="3086" y="1014" on="0"/>
        <pt x="3111" y="977" on="0"/>
        <pt x="3111" y="948" on="1"/>
        <pt x="3111" y="938" on="1"/>
        <pt x="3110" y="933" on="0"/>
        <pt x="3106" y="915" on="0"/>
        <pt x="3102" y="896" on="0"/>
        <pt x="3098" y="880" on="0"/>
        <pt x="3097" y="877" on="1"/>
        <pt x="3097" y="876" on="0"/>
        <pt x="3092" y="869" on="0"/>
        <pt x="3086" y="861" on="0"/>
        <pt x="3079" y="854" on="0"/>
        <pt x="3078" y="853" on="1"/>
        <pt x="3078" y="851" on="0"/>
        <pt x="3073" y="841" on="0"/>
        <pt x="3073" y="839" on="1"/>
        <pt x="3062" y="804" on="0"/>
        <pt x="3041" y="737" on="0"/>
        <pt x="3028" y="701" on="1"/>
        <pt x="3020" y="681" on="0"/>
        <pt x="2995" y="640" on="0"/>
        <pt x="2988" y="618" on="1"/>
        <pt x="2988" y="615" on="0"/>
        <pt x="2981" y="590" on="0"/>
        <pt x="2974" y="562" on="0"/>
        <pt x="2967" y="538" on="0"/>
        <pt x="2966" y="535" on="1"/>
        <pt x="2965" y="533" on="0"/>
        <pt x="2961" y="523" on="0"/>
        <pt x="2956" y="513" on="0"/>
        <pt x="2951" y="505" on="0"/>
        <pt x="2950" y="505" on="1"/>
        <pt x="2944" y="490" on="0"/>
        <pt x="2938" y="447" on="0"/>
        <pt x="2926" y="408" on="0"/>
        <pt x="2903" y="381" on="0"/>
        <pt x="2879" y="381" on="1"/>
        <pt x="2857" y="381" on="0"/>
        <pt x="2829" y="400" on="0"/>
        <pt x="2829" y="422" on="1"/>
        <pt x="2829" y="434" on="1"/>
        <pt x="2829" y="440" on="0"/>
        <pt x="2831" y="457" on="0"/>
        <pt x="2834" y="474" on="0"/>
        <pt x="2836" y="486" on="0"/>
        <pt x="2836" y="488" on="1"/>
        <pt x="2845" y="506" on="0"/>
        <pt x="2856" y="534" on="0"/>
        <pt x="2864" y="552" on="1"/>
        <pt x="2869" y="565" on="0"/>
        <pt x="2881" y="589" on="0"/>
        <pt x="2881" y="600" on="1"/>
        <pt x="2881" y="605" on="0"/>
        <pt x="2879" y="609" on="1"/>
        <pt x="2868" y="631" on="0"/>
        <pt x="2827" y="650" on="0"/>
        <pt x="2801" y="652" on="1"/>
        <pt x="2779" y="655" on="0"/>
        <pt x="2729" y="654" on="0"/>
        <pt x="2706" y="656" on="1"/>
        <pt x="2706" y="657" on="0"/>
        <pt x="2695" y="663" on="0"/>
        <pt x="2691" y="663" on="1"/>
        <pt x="2688" y="663" on="0"/>
        <pt x="2673" y="665" on="0"/>
        <pt x="2657" y="668" on="0"/>
        <pt x="2642" y="670" on="0"/>
        <pt x="2639" y="670" on="1"/>
        <pt x="2608" y="670" on="1"/>
        <pt x="2580" y="674" on="0"/>
        <pt x="2528" y="689" on="0"/>
        <pt x="2500" y="689" on="1"/>
        <pt x="2481" y="689" on="0"/>
        <pt x="2454" y="656" on="0"/>
        <pt x="2435" y="610" on="0"/>
        <pt x="2421" y="562" on="0"/>
        <pt x="2416" y="548" on="1"/>
        <pt x="2416" y="547" on="0"/>
        <pt x="2412" y="538" on="0"/>
        <pt x="2407" y="528" on="0"/>
        <pt x="2403" y="518" on="0"/>
        <pt x="2402" y="517" on="1"/>
        <pt x="2400" y="515" on="0"/>
        <pt x="2395" y="496" on="0"/>
        <pt x="2390" y="473" on="0"/>
        <pt x="2386" y="453" on="0"/>
        <pt x="2386" y="450" on="1"/>
        <pt x="2378" y="418" on="0"/>
        <pt x="2344" y="357" on="0"/>
        <pt x="2333" y="327" on="1"/>
        <pt x="2331" y="323" on="0"/>
        <pt x="2321" y="299" on="0"/>
        <pt x="2311" y="269" on="0"/>
        <pt x="2303" y="242" on="0"/>
        <pt x="2302" y="235" on="1"/>
        <pt x="2299" y="227" on="0"/>
        <pt x="2291" y="202" on="0"/>
        <pt x="2283" y="174" on="0"/>
        <pt x="2277" y="148" on="0"/>
        <pt x="2277" y="140" on="1"/>
        <pt x="2277" y="126" on="0"/>
        <pt x="2287" y="102" on="0"/>
        <pt x="2302" y="100" on="1"/>
        <pt x="2329" y="92" on="0"/>
        <pt x="2365" y="90" on="0"/>
        <pt x="2390" y="90" on="1"/>
        <pt x="2416" y="90" on="1"/>
        <pt x="2419" y="90" on="0"/>
        <pt x="2443" y="92" on="0"/>
        <pt x="2471" y="95" on="0"/>
        <pt x="2496" y="99" on="0"/>
        <pt x="2499" y="100" on="1"/>
        <pt x="2505" y="100" on="0"/>
        <pt x="2544" y="99" on="0"/>
        <pt x="2561" y="99" on="1"/>
        <pt x="2579" y="99" on="0"/>
        <pt x="2618" y="106" on="0"/>
        <pt x="2639" y="106" on="1"/>
        <pt x="2677" y="106" on="1"/>
        <pt x="2697" y="106" on="0"/>
        <pt x="2733" y="104" on="0"/>
        <pt x="2751" y="104" on="1"/>
        <pt x="2792" y="104" on="0"/>
        <pt x="2870" y="114" on="0"/>
        <pt x="2912" y="130" on="1"/>
        <pt x="2926" y="135" on="0"/>
        <pt x="2939" y="150" on="0"/>
        <pt x="2950" y="159" on="1"/>
        <pt x="2952" y="162" on="0"/>
        <pt x="2966" y="173" on="0"/>
        <pt x="2982" y="185" on="0"/>
        <pt x="2996" y="195" on="0"/>
        <pt x="2997" y="195" on="1"/>
        <pt x="3025" y="220" on="0"/>
        <pt x="3058" y="282" on="0"/>
        <pt x="3078" y="311" on="1"/>
        <pt x="3079" y="312" on="0"/>
        <pt x="3089" y="319" on="0"/>
        <pt x="3101" y="329" on="0"/>
        <pt x="3113" y="340" on="0"/>
        <pt x="3116" y="343" on="1"/>
        <pt x="3124" y="344" on="0"/>
        <pt x="3140" y="357" on="0"/>
        <pt x="3142" y="360" on="1"/>
        <pt x="3153" y="360" on="1"/>
        <pt x="3175" y="360" on="0"/>
        <pt x="3187" y="332" on="0"/>
        <pt x="3187" y="311" on="1"/>
        <pt x="3187" y="289" on="1"/>
        <pt x="3187" y="287" on="0"/>
        <pt x="3182" y="274" on="0"/>
        <pt x="3177" y="259" on="0"/>
        <pt x="3172" y="246" on="0"/>
        <pt x="3172" y="246" on="1"/>
        <pt x="3171" y="241" on="0"/>
        <pt x="3165" y="213" on="0"/>
        <pt x="3157" y="181" on="0"/>
        <pt x="3149" y="154" on="0"/>
        <pt x="3147" y="151" on="1"/>
        <pt x="3147" y="149" on="0"/>
        <pt x="3136" y="132" on="0"/>
        <pt x="3134" y="130" on="1"/>
        <pt x="3120" y="107" on="0"/>
        <pt x="3106" y="57" on="0"/>
        <pt x="3089" y="36" on="1"/>
        <pt x="3084" y="32" on="0"/>
        <pt x="3067" y="14" on="0"/>
        <pt x="3064" y="14" on="1"/>
        <pt x="3063" y="12" on="0"/>
        <pt x="3044" y="7" on="0"/>
        <pt x="3042" y="7" on="1"/>
        <pt x="3033" y="5" on="0"/>
        <pt x="2996" y="0" on="0"/>
        <pt x="2957" y="-5" on="0"/>
        <pt x="2925" y="-9" on="0"/>
        <pt x="2921" y="-9" on="1"/>
        <pt x="2675" y="-9" on="1"/>
        <pt x="2612" y="-10" on="0"/>
        <pt x="2485" y="-24" on="0"/>
        <pt x="2419" y="-24" on="1"/>
        <pt x="2408" y="-24" on="0"/>
        <pt x="2398" y="-22" on="0"/>
        <pt x="2386" y="-14" on="1"/>
        <pt x="2375" y="-13" on="0"/>
        <pt x="2321" y="-9" on="0"/>
        <pt x="2260" y="-5" on="0"/>
        <pt x="2206" y="-1" on="0"/>
        <pt x="2196" y="0" on="1"/>
        <pt x="2187" y="0" on="1"/>
        <pt x="2182" y="0" on="1"/>
        <pt x="2179" y="-1" on="0"/>
        <pt x="2159" y="-5" on="0"/>
        <pt x="2138" y="-10" on="0"/>
        <pt x="2121" y="-14" on="0"/>
        <pt x="2120" y="-14" on="1"/>
        <pt x="2116" y="-16" on="0"/>
        <pt x="2097" y="-16" on="1"/>
        <pt x="2082" y="-16" on="0"/>
        <pt x="2046" y="-14" on="0"/>
        <pt x="2042" y="-14" on="1"/>
        <pt x="2037" y="-16" on="0"/>
        <pt x="1994" y="-19" on="0"/>
        <pt x="1945" y="-22" on="0"/>
        <pt x="1903" y="-24" on="0"/>
        <pt x="1897" y="-24" on="1"/>
        <pt x="1867" y="-24" on="1"/>
        <pt x="1844" y="-24" on="0"/>
        <pt x="1802" y="-14" on="0"/>
      </contour>
    </TTGlyph>
    <TTGlyph name="Aacute" xMin="-172" yMin="-22" xMax="2214" yMax="1931">
      <component glyphName="A" x="0" y="0" flags="0x204"/>
      <component glyphName="Acute" x="996" y="0" flags="0x4"/>
    </TTGlyph>
    <TTGlyph name="Aacute.swash" xMin="69" yMin="-29" xMax="3147" yMax="1931">
      <component glyphName="A.swash" x="0" y="0" flags="0x204"/>
      <component glyphName="Acute" x="1929" y="0" flags="0x4"/>
    </TTGlyph>
    <TTGlyph name="Abreve" xMin="-172" yMin="-22" xMax="2005" yMax="1915">
      <component glyphName="A" x="0" y="0" flags="0x204"/>
      <component glyphName="Breve" x="953" y="0" flags="0x4"/>
    </TTGlyph>
    <TTGlyph name="Abreve.swash" xMin="69" yMin="-29" xMax="2937" yMax="1915">
      <component glyphName="A.swash" x="0" y="0" flags="0x204"/>
      <component glyphName="Breve" x="1880" y="0" flags="0x4"/>
    </TTGlyph>
    <TTGlyph name="Acircumflex" xMin="-172" yMin="-22" xMax="2011" yMax="1932">
      <component glyphName="A" x="0" y="0" flags="0x204"/>
      <component glyphName="Circumflex" x="954" y="0" flags="0x4"/>
    </TTGlyph>
    <TTGlyph name="Acircumflex.swash" xMin="69" yMin="-29" xMax="2937" yMax="1932">
      <component glyphName="A.swash" x="0" y="0" flags="0x204"/>
      <component glyphName="Circumflex" x="1842" y="0" flags="0x4"/>
    </TTGlyph>
    <TTGlyph name="Acute" xMin="711" yMin="1535" xMax="1218" yMax="1931">
      <contour>
        <pt x="714" y="1596" on="1"/>
        <pt x="716" y="1607" on="0"/>
        <pt x="740" y="1640" on="0"/>
        <pt x="748" y="1651" on="1"/>
        <pt x="751" y="1652" on="0"/>
        <pt x="755" y="1654" on="1"/>
        <pt x="758" y="1656" on="0"/>
        <pt x="765" y="1659" on="0"/>
        <pt x="768" y="1661" on="1"/>
        <pt x="768" y="1661" on="0"/>
        <pt x="777" y="1663" on="0"/>
        <pt x="786" y="1665" on="0"/>
        <pt x="794" y="1667" on="0"/>
        <pt x="794" y="1668" on="1"/>
        <pt x="794" y="1668" on="0"/>
        <pt x="804" y="1677" on="0"/>
        <pt x="817" y="1689" on="0"/>
        <pt x="830" y="1701" on="0"/>
        <pt x="834" y="1704" on="1"/>
        <pt x="839" y="1706" on="0"/>
        <pt x="847" y="1714" on="0"/>
        <pt x="847" y="1716" on="1"/>
        <pt x="869" y="1742" on="0"/>
        <pt x="917" y="1771" on="0"/>
        <pt x="944" y="1791" on="1"/>
        <pt x="973" y="1813" on="0"/>
        <pt x="1025" y="1863" on="0"/>
        <pt x="1056" y="1882" on="1"/>
        <pt x="1079" y="1897" on="0"/>
        <pt x="1119" y="1931" on="0"/>
        <pt x="1146" y="1931" on="1"/>
        <pt x="1149" y="1931" on="0"/>
        <pt x="1156" y="1931" on="0"/>
        <pt x="1160" y="1930" on="1"/>
        <pt x="1168" y="1928" on="1"/>
        <pt x="1182" y="1924" on="0"/>
        <pt x="1201" y="1906" on="0"/>
        <pt x="1213" y="1881" on="0"/>
        <pt x="1218" y="1852" on="0"/>
        <pt x="1217" y="1837" on="1"/>
        <pt x="1216" y="1833" on="0"/>
        <pt x="1216" y="1826" on="0"/>
        <pt x="1214" y="1822" on="1"/>
        <pt x="1213" y="1815" on="1"/>
        <pt x="1207" y="1797" on="0"/>
        <pt x="1173" y="1771" on="0"/>
        <pt x="1131" y="1750" on="0"/>
        <pt x="1088" y="1733" on="0"/>
        <pt x="1074" y="1724" on="1"/>
        <pt x="1072" y="1724" on="0"/>
        <pt x="1052" y="1712" on="0"/>
        <pt x="1029" y="1699" on="0"/>
        <pt x="1009" y="1686" on="0"/>
        <pt x="1006" y="1685" on="1"/>
        <pt x="1000" y="1680" on="0"/>
        <pt x="955" y="1655" on="0"/>
        <pt x="903" y="1628" on="0"/>
        <pt x="859" y="1604" on="0"/>
        <pt x="854" y="1601" on="1"/>
        <pt x="842" y="1595" on="0"/>
        <pt x="818" y="1575" on="0"/>
        <pt x="794" y="1554" on="0"/>
        <pt x="771" y="1538" on="0"/>
        <pt x="761" y="1535" on="1"/>
        <pt x="752" y="1539" on="0"/>
        <pt x="733" y="1550" on="0"/>
        <pt x="719" y="1564" on="0"/>
        <pt x="711" y="1580" on="0"/>
        <pt x="713" y="1591" on="1"/>
      </contour>
    </TTGlyph>
    <TTGlyph name="Adieresis" xMin="-172" yMin="-22" xMax="1993" yMax="1850">
      <component glyphName="A" x="0" y="0" flags="0x204"/>
      <component glyphName="Dieresis" x="861" y="0" flags="0x4"/>
    </TTGlyph>
    <TTGlyph name="Adieresis.swash" xMin="69" yMin="-29" xMax="2937" yMax="1850">
      <component glyphName="A.swash" x="0" y="0" flags="0x204"/>
      <component glyphName="Dieresis" x="1780" y="0" flags="0x4"/>
    </TTGlyph>
    <TTGlyph name="Agrave" xMin="-172" yMin="-22" xMax="1828" yMax="1938">
      <component glyphName="A" x="0" y="0" flags="0x204"/>
      <component glyphName="Grave" x="879" y="0" flags="0x4"/>
    </TTGlyph>
    <TTGlyph name="Agrave.swash" xMin="69" yMin="-29" xMax="2937" yMax="1938">
      <component glyphName="A.swash" x="0" y="0" flags="0x204"/>
      <component glyphName="Grave" x="1770" y="0" flags="0x4"/>
    </TTGlyph>
    <TTGlyph name="Amacron" xMin="-172" yMin="-22" xMax="2019" yMax="1780">
      <component glyphName="A" x="0" y="0" flags="0x204"/>
      <component glyphName="Macron" x="879" y="0" flags="0x4"/>
    </TTGlyph>
    <TTGlyph name="Amacron.swash" xMin="69" yMin="-29" xMax="2937" yMax="1722">
      <component glyphName="A.swash" x="0" y="0" flags="0x204"/>
      <component glyphName="Macron" x="1779" y="-58" flags="0x4"/>
    </TTGlyph>
    <TTGlyph name="Aogonek" xMin="-172" yMin="-482" xMax="1828" yMax="1427">
      <contour>
        <pt x="1290" y="10" on="1"/>
        <pt x="1259" y="-35" on="0"/>
        <pt x="1198" y="-120" on="0"/>
        <pt x="1182" y="-171" on="1"/>
        <pt x="1180" y="-179" on="0"/>
        <pt x="1177" y="-200" on="0"/>
        <pt x="1174" y="-223" on="0"/>
        <pt x="1171" y="-245" on="0"/>
        <pt x="1169" y="-252" on="1"/>
        <pt x="1167" y="-258" on="0"/>
        <pt x="1167" y="-267" on="0"/>
        <pt x="1167" y="-272" on="1"/>
        <pt x="1167" y="-286" on="0"/>
        <pt x="1176" y="-298" on="1"/>
        <pt x="1186" y="-308" on="0"/>
        <pt x="1204" y="-325" on="0"/>
        <pt x="1212" y="-336" on="1"/>
        <pt x="1213" y="-337" on="0"/>
        <pt x="1215" y="-338" on="0"/>
        <pt x="1216" y="-339" on="1"/>
        <pt x="1223" y="-339" on="0"/>
        <pt x="1246" y="-357" on="0"/>
        <pt x="1259" y="-357" on="1"/>
        <pt x="1275" y="-357" on="0"/>
        <pt x="1289" y="-366" on="0"/>
        <pt x="1299" y="-366" on="1"/>
        <pt x="1307" y="-366" on="0"/>
        <pt x="1326" y="-361" on="0"/>
        <pt x="1337" y="-360" on="1"/>
        <pt x="1368" y="-357" on="0"/>
        <pt x="1397" y="-343" on="1"/>
        <pt x="1402" y="-343" on="1"/>
        <pt x="1418" y="-343" on="0"/>
        <pt x="1418" y="-356" on="1"/>
        <pt x="1418" y="-360" on="0"/>
        <pt x="1417" y="-363" on="1"/>
        <pt x="1412" y="-374" on="0"/>
        <pt x="1403" y="-382" on="1"/>
        <pt x="1369" y="-414" on="0"/>
        <pt x="1291" y="-454" on="0"/>
        <pt x="1250" y="-465" on="1"/>
        <pt x="1218" y="-478" on="1"/>
        <pt x="1206" y="-480" on="0"/>
        <pt x="1176" y="-482" on="0"/>
        <pt x="1163" y="-482" on="1"/>
        <pt x="1149" y="-482" on="0"/>
        <pt x="1108" y="-476" on="0"/>
        <pt x="1093" y="-472" on="1"/>
        <pt x="1081" y="-462" on="0"/>
        <pt x="1060" y="-446" on="0"/>
        <pt x="1039" y="-444" on="1"/>
        <pt x="1023" y="-434" on="1"/>
        <pt x="1015" y="-415" on="1"/>
        <pt x="1014" y="-394" on="0"/>
        <pt x="1000" y="-359" on="0"/>
        <pt x="1000" y="-339" on="1"/>
        <pt x="1000" y="-328" on="0"/>
        <pt x="1003" y="-316" on="1"/>
        <pt x="1011" y="-290" on="0"/>
        <pt x="1040" y="-232" on="0"/>
        <pt x="1048" y="-203" on="1"/>
        <pt x="1065" y="-183" on="1"/>
        <pt x="1084" y="-152" on="1"/>
        <pt x="1092" y="-135" on="1"/>
        <pt x="1128" y="-97" on="0"/>
        <pt x="1200" y="-26" on="0"/>
        <pt x="1238" y="10" on="1"/>
        <pt x="1208" y="9" on="0"/>
        <pt x="1161" y="9" on="0"/>
        <pt x="1150" y="9" on="1"/>
        <pt x="1143" y="9" on="0"/>
        <pt x="1091" y="5" on="0"/>
        <pt x="1032" y="-1" on="0"/>
        <pt x="980" y="-5" on="0"/>
        <pt x="974" y="-5" on="1"/>
        <pt x="906" y="-5" on="1"/>
        <pt x="892" y="-5" on="0"/>
        <pt x="865" y="-3" on="0"/>
        <pt x="842" y="7" on="0"/>
        <pt x="828" y="26" on="0"/>
        <pt x="828" y="43" on="1"/>
        <pt x="828" y="46" on="0"/>
        <pt x="830" y="62" on="0"/>
        <pt x="830" y="64" on="1"/>
        <pt x="831" y="65" on="0"/>
        <pt x="836" y="72" on="0"/>
        <pt x="842" y="79" on="0"/>
        <pt x="848" y="85" on="0"/>
        <pt x="849" y="85" on="1"/>
        <pt x="865" y="87" on="0"/>
        <pt x="898" y="90" on="0"/>
        <pt x="915" y="90" on="1"/>
        <pt x="924" y="90" on="0"/>
        <pt x="946" y="88" on="0"/>
        <pt x="955" y="88" on="1"/>
        <pt x="984" y="88" on="0"/>
        <pt x="1034" y="96" on="0"/>
        <pt x="1058" y="107" on="1"/>
        <pt x="1072" y="116" on="0"/>
        <pt x="1100" y="155" on="0"/>
        <pt x="1127" y="201" on="0"/>
        <pt x="1150" y="246" on="0"/>
        <pt x="1159" y="261" on="1"/>
        <pt x="1159" y="262" on="0"/>
        <pt x="1165" y="270" on="0"/>
        <pt x="1173" y="281" on="0"/>
        <pt x="1180" y="290" on="0"/>
        <pt x="1181" y="292" on="1"/>
        <pt x="1182" y="299" on="0"/>
        <pt x="1184" y="306" on="1"/>
        <pt x="1186" y="311" on="0"/>
        <pt x="1188" y="322" on="0"/>
        <pt x="1190" y="324" on="1"/>
        <pt x="1198" y="356" on="0"/>
        <pt x="1227" y="426" on="0"/>
        <pt x="1240" y="460" on="1"/>
        <pt x="1252" y="485" on="0"/>
        <pt x="1278" y="526" on="0"/>
        <pt x="1278" y="552" on="1"/>
        <pt x="1278" y="577" on="0"/>
        <pt x="1259" y="605" on="0"/>
        <pt x="1233" y="605" on="1"/>
        <pt x="981" y="605" on="1"/>
        <pt x="937" y="605" on="0"/>
        <pt x="849" y="566" on="0"/>
        <pt x="813" y="541" on="1"/>
        <pt x="802" y="536" on="0"/>
        <pt x="784" y="506" on="0"/>
        <pt x="775" y="498" on="1"/>
        <pt x="773" y="496" on="0"/>
        <pt x="757" y="483" on="0"/>
        <pt x="739" y="467" on="0"/>
        <pt x="723" y="454" on="0"/>
        <pt x="721" y="452" on="1"/>
        <pt x="699" y="431" on="0"/>
        <pt x="658" y="382" on="0"/>
        <pt x="638" y="365" on="1"/>
        <pt x="636" y="364" on="0"/>
        <pt x="626" y="353" on="0"/>
        <pt x="614" y="340" on="0"/>
        <pt x="604" y="328" on="0"/>
        <pt x="602" y="327" on="1"/>
        <pt x="576" y="304" on="0"/>
        <pt x="535" y="267" on="0"/>
        <pt x="513" y="239" on="1"/>
        <pt x="499" y="221" on="0"/>
        <pt x="483" y="203" on="0"/>
        <pt x="470" y="187" on="1"/>
        <pt x="459" y="173" on="0"/>
        <pt x="439" y="152" on="0"/>
        <pt x="425" y="135" on="1"/>
        <pt x="422" y="131" on="0"/>
        <pt x="422" y="119" on="1"/>
        <pt x="422" y="115" on="0"/>
        <pt x="426" y="104" on="0"/>
        <pt x="432" y="102" on="1"/>
        <pt x="515" y="102" on="1"/>
        <pt x="523" y="101" on="0"/>
        <pt x="546" y="92" on="0"/>
        <pt x="568" y="78" on="0"/>
        <pt x="584" y="62" on="0"/>
        <pt x="584" y="54" on="1"/>
        <pt x="584" y="42" on="0"/>
        <pt x="577" y="29" on="0"/>
        <pt x="571" y="16" on="1"/>
        <pt x="560" y="2" on="0"/>
        <pt x="527" y="-7" on="0"/>
        <pt x="507" y="-7" on="1"/>
        <pt x="493" y="-7" on="0"/>
        <pt x="469" y="-5" on="0"/>
        <pt x="458" y="-5" on="1"/>
        <pt x="429" y="-5" on="1"/>
        <pt x="418" y="-5" on="0"/>
        <pt x="398" y="-3" on="0"/>
        <pt x="387" y="2" on="1"/>
        <pt x="48" y="2" on="1"/>
        <pt x="46" y="0" on="0"/>
        <pt x="29" y="-5" on="0"/>
        <pt x="27" y="-5" on="1"/>
        <pt x="-4" y="-13" on="0"/>
        <pt x="-51" y="-22" on="0"/>
        <pt x="-80" y="-22" on="1"/>
        <pt x="-94" y="-22" on="0"/>
        <pt x="-126" y="-15" on="0"/>
        <pt x="-153" y="0" on="0"/>
        <pt x="-172" y="25" on="0"/>
        <pt x="-172" y="43" on="1"/>
        <pt x="-172" y="59" on="0"/>
        <pt x="-160" y="98" on="0"/>
        <pt x="-140" y="102" on="1"/>
        <pt x="-136" y="102" on="0"/>
        <pt x="-105" y="106" on="0"/>
        <pt x="-69" y="111" on="0"/>
        <pt x="-37" y="116" on="0"/>
        <pt x="-33" y="118" on="1"/>
        <pt x="-24" y="118" on="0"/>
        <pt x="16" y="126" on="0"/>
        <pt x="59" y="136" on="0"/>
        <pt x="97" y="145" on="0"/>
        <pt x="103" y="147" on="1"/>
        <pt x="105" y="147" on="0"/>
        <pt x="129" y="158" on="0"/>
        <pt x="133" y="161" on="1"/>
        <pt x="134" y="161" on="0"/>
        <pt x="141" y="165" on="0"/>
        <pt x="149" y="171" on="0"/>
        <pt x="156" y="177" on="0"/>
        <pt x="157" y="178" on="1"/>
        <pt x="158" y="179" on="0"/>
        <pt x="170" y="183" on="0"/>
        <pt x="183" y="187" on="0"/>
        <pt x="194" y="191" on="0"/>
        <pt x="195" y="192" on="1"/>
        <pt x="227" y="210" on="0"/>
        <pt x="284" y="267" on="0"/>
        <pt x="311" y="292" on="1"/>
        <pt x="325" y="304" on="0"/>
        <pt x="363" y="324" on="0"/>
        <pt x="377" y="336" on="1"/>
        <pt x="378" y="337" on="0"/>
        <pt x="385" y="344" on="0"/>
        <pt x="393" y="353" on="0"/>
        <pt x="400" y="360" on="0"/>
        <pt x="401" y="362" on="1"/>
        <pt x="403" y="362" on="0"/>
        <pt x="414" y="368" on="0"/>
        <pt x="427" y="375" on="0"/>
        <pt x="438" y="382" on="0"/>
        <pt x="439" y="384" on="1"/>
        <pt x="442" y="386" on="0"/>
        <pt x="462" y="406" on="0"/>
        <pt x="485" y="429" on="0"/>
        <pt x="505" y="449" on="0"/>
        <pt x="508" y="452" on="1"/>
        <pt x="512" y="455" on="0"/>
        <pt x="546" y="480" on="0"/>
        <pt x="585" y="509" on="0"/>
        <pt x="618" y="533" on="0"/>
        <pt x="622" y="536" on="1"/>
        <pt x="624" y="537" on="0"/>
        <pt x="637" y="550" on="0"/>
        <pt x="652" y="564" on="0"/>
        <pt x="666" y="578" on="0"/>
        <pt x="669" y="581" on="1"/>
        <pt x="669" y="583" on="0"/>
        <pt x="674" y="595" on="0"/>
        <pt x="676" y="595" on="1"/>
        <pt x="678" y="596" on="0"/>
        <pt x="689" y="604" on="0"/>
        <pt x="703" y="613" on="0"/>
        <pt x="714" y="620" on="0"/>
        <pt x="716" y="621" on="1"/>
        <pt x="752" y="646" on="0"/>
        <pt x="822" y="705" on="0"/>
        <pt x="861" y="735" on="1"/>
        <pt x="863" y="736" on="0"/>
        <pt x="883" y="750" on="0"/>
        <pt x="906" y="765" on="0"/>
        <pt x="927" y="778" on="0"/>
        <pt x="930" y="778" on="1"/>
        <pt x="931" y="781" on="0"/>
        <pt x="946" y="797" on="0"/>
        <pt x="963" y="816" on="0"/>
        <pt x="979" y="832" on="0"/>
        <pt x="981" y="834" on="1"/>
        <pt x="984" y="834" on="0"/>
        <pt x="989" y="837" on="1"/>
        <pt x="992" y="839" on="0"/>
        <pt x="994" y="841" on="1"/>
        <pt x="996" y="843" on="0"/>
        <pt x="1012" y="856" on="0"/>
        <pt x="1013" y="856" on="1"/>
        <pt x="1019" y="863" on="0"/>
        <pt x="1046" y="889" on="0"/>
        <pt x="1076" y="916" on="0"/>
        <pt x="1100" y="938" on="0"/>
        <pt x="1103" y="941" on="1"/>
        <pt x="1107" y="944" on="0"/>
        <pt x="1122" y="956" on="0"/>
        <pt x="1137" y="967" on="0"/>
        <pt x="1149" y="977" on="0"/>
        <pt x="1150" y="979" on="1"/>
        <pt x="1153" y="980" on="0"/>
        <pt x="1171" y="991" on="0"/>
        <pt x="1191" y="1004" on="0"/>
        <pt x="1209" y="1014" on="0"/>
        <pt x="1211" y="1016" on="1"/>
        <pt x="1243" y="1042" on="0"/>
        <pt x="1304" y="1104" on="0"/>
        <pt x="1333" y="1130" on="1"/>
        <pt x="1352" y="1150" on="0"/>
        <pt x="1387" y="1172" on="0"/>
        <pt x="1408" y="1185" on="1"/>
        <pt x="1431" y="1199" on="0"/>
        <pt x="1481" y="1243" on="0"/>
        <pt x="1501" y="1261" on="1"/>
        <pt x="1506" y="1266" on="0"/>
        <pt x="1533" y="1292" on="0"/>
        <pt x="1562" y="1322" on="0"/>
        <pt x="1587" y="1348" on="0"/>
        <pt x="1591" y="1353" on="1"/>
        <pt x="1594" y="1355" on="0"/>
        <pt x="1605" y="1374" on="0"/>
        <pt x="1607" y="1374" on="1"/>
        <pt x="1609" y="1378" on="0"/>
        <pt x="1620" y="1391" on="0"/>
        <pt x="1634" y="1404" on="0"/>
        <pt x="1649" y="1414" on="0"/>
        <pt x="1654" y="1415" on="1"/>
        <pt x="1656" y="1415" on="0"/>
        <pt x="1676" y="1417" on="0"/>
        <pt x="1698" y="1419" on="0"/>
        <pt x="1718" y="1421" on="0"/>
        <pt x="1721" y="1422" on="1"/>
        <pt x="1725" y="1422" on="0"/>
        <pt x="1744" y="1427" on="0"/>
        <pt x="1745" y="1427" on="1"/>
        <pt x="1792" y="1427" on="1"/>
        <pt x="1809" y="1427" on="0"/>
        <pt x="1828" y="1416" on="0"/>
        <pt x="1828" y="1393" on="1"/>
        <pt x="1828" y="1370" on="0"/>
        <pt x="1819" y="1333" on="0"/>
        <pt x="1804" y="1299" on="0"/>
        <pt x="1785" y="1265" on="0"/>
        <pt x="1776" y="1244" on="1"/>
        <pt x="1775" y="1242" on="0"/>
        <pt x="1769" y="1219" on="0"/>
        <pt x="1768" y="1214" on="1"/>
        <pt x="1767" y="1212" on="0"/>
        <pt x="1756" y="1195" on="0"/>
        <pt x="1743" y="1175" on="0"/>
        <pt x="1732" y="1158" on="0"/>
        <pt x="1731" y="1156" on="1"/>
        <pt x="1731" y="1154" on="0"/>
        <pt x="1729" y="1145" on="0"/>
        <pt x="1726" y="1134" on="0"/>
        <pt x="1723" y="1125" on="0"/>
        <pt x="1721" y="1124" on="1"/>
        <pt x="1705" y="1082" on="0"/>
        <pt x="1669" y="1004" on="0"/>
        <pt x="1654" y="962" on="1"/>
        <pt x="1652" y="960" on="0"/>
        <pt x="1648" y="944" on="0"/>
        <pt x="1643" y="926" on="0"/>
        <pt x="1639" y="911" on="0"/>
        <pt x="1638" y="910" on="1"/>
        <pt x="1636" y="905" on="0"/>
        <pt x="1633" y="887" on="0"/>
        <pt x="1633" y="886" on="1"/>
        <pt x="1616" y="857" on="0"/>
        <pt x="1588" y="796" on="0"/>
        <pt x="1577" y="766" on="1"/>
        <pt x="1572" y="752" on="0"/>
        <pt x="1552" y="726" on="0"/>
        <pt x="1548" y="713" on="1"/>
        <pt x="1527" y="658" on="0"/>
        <pt x="1482" y="552" on="0"/>
        <pt x="1462" y="498" on="1"/>
        <pt x="1461" y="498" on="0"/>
        <pt x="1459" y="488" on="0"/>
        <pt x="1457" y="477" on="0"/>
        <pt x="1455" y="468" on="0"/>
        <pt x="1455" y="467" on="1"/>
        <pt x="1452" y="456" on="0"/>
        <pt x="1445" y="444" on="0"/>
        <pt x="1437" y="433" on="0"/>
        <pt x="1428" y="422" on="0"/>
        <pt x="1423" y="412" on="1"/>
        <pt x="1423" y="410" on="0"/>
        <pt x="1417" y="387" on="0"/>
        <pt x="1417" y="384" on="1"/>
        <pt x="1417" y="379" on="0"/>
        <pt x="1405" y="355" on="0"/>
        <pt x="1403" y="353" on="1"/>
        <pt x="1402" y="352" on="0"/>
        <pt x="1395" y="343" on="0"/>
        <pt x="1386" y="333" on="0"/>
        <pt x="1379" y="324" on="0"/>
        <pt x="1378" y="324" on="1"/>
        <pt x="1377" y="322" on="0"/>
        <pt x="1375" y="306" on="0"/>
        <pt x="1374" y="287" on="0"/>
        <pt x="1373" y="271" on="0"/>
        <pt x="1373" y="268" on="1"/>
        <pt x="1371" y="266" on="0"/>
        <pt x="1357" y="245" on="0"/>
        <pt x="1354" y="239" on="1"/>
        <pt x="1354" y="236" on="0"/>
        <pt x="1348" y="225" on="0"/>
        <pt x="1340" y="212" on="0"/>
        <pt x="1334" y="201" on="0"/>
        <pt x="1333" y="199" on="1"/>
        <pt x="1332" y="196" on="0"/>
        <pt x="1325" y="178" on="0"/>
        <pt x="1318" y="155" on="0"/>
        <pt x="1310" y="135" on="0"/>
        <pt x="1309" y="131" on="1"/>
        <pt x="1309" y="123" on="1"/>
        <pt x="1309" y="109" on="0"/>
        <pt x="1339" y="97" on="0"/>
        <pt x="1383" y="90" on="0"/>
        <pt x="1436" y="85" on="0"/>
        <pt x="1480" y="74" on="0"/>
        <pt x="1510" y="52" on="0"/>
        <pt x="1510" y="31" on="1"/>
        <pt x="1510" y="16" on="1"/>
        <pt x="1510" y="13" on="0"/>
        <pt x="1497" y="9" on="0"/>
        <pt x="1493" y="9" on="1"/>
        <pt x="1473" y="9" on="0"/>
        <pt x="1376" y="10" on="0"/>
        <pt x="1321" y="10" on="1"/>
      </contour>
      <contour>
        <pt x="1524" y="1171" on="1"/>
        <pt x="1513" y="1171" on="0"/>
        <pt x="1492" y="1169" on="0"/>
        <pt x="1487" y="1163" on="1"/>
        <pt x="1485" y="1161" on="0"/>
        <pt x="1468" y="1145" on="0"/>
        <pt x="1450" y="1126" on="0"/>
        <pt x="1434" y="1110" on="0"/>
        <pt x="1432" y="1107" on="1"/>
        <pt x="1430" y="1105" on="0"/>
        <pt x="1407" y="1091" on="0"/>
        <pt x="1403" y="1086" on="1"/>
        <pt x="1401" y="1084" on="0"/>
        <pt x="1380" y="1071" on="0"/>
        <pt x="1378" y="1069" on="1"/>
        <pt x="1374" y="1066" on="0"/>
        <pt x="1345" y="1038" on="0"/>
        <pt x="1312" y="1005" on="0"/>
        <pt x="1282" y="976" on="0"/>
        <pt x="1278" y="972" on="1"/>
        <pt x="1275" y="968" on="0"/>
        <pt x="1247" y="940" on="0"/>
        <pt x="1214" y="909" on="0"/>
        <pt x="1184" y="882" on="0"/>
        <pt x="1181" y="879" on="1"/>
        <pt x="1178" y="877" on="0"/>
        <pt x="1167" y="864" on="0"/>
        <pt x="1154" y="849" on="0"/>
        <pt x="1143" y="836" on="0"/>
        <pt x="1141" y="834" on="1"/>
        <pt x="1122" y="813" on="0"/>
        <pt x="1073" y="783" on="0"/>
        <pt x="1050" y="766" on="1"/>
        <pt x="1049" y="765" on="0"/>
        <pt x="1040" y="758" on="0"/>
        <pt x="1030" y="749" on="0"/>
        <pt x="1020" y="741" on="0"/>
        <pt x="1019" y="740" on="1"/>
        <pt x="1018" y="740" on="0"/>
        <pt x="1015" y="737" on="1"/>
        <pt x="1013" y="735" on="1"/>
        <pt x="1007" y="724" on="0"/>
        <pt x="1003" y="710" on="0"/>
        <pt x="1003" y="699" on="1"/>
        <pt x="1003" y="687" on="1"/>
        <pt x="1005" y="687" on="0"/>
        <pt x="1017" y="688" on="0"/>
        <pt x="1019" y="690" on="1"/>
        <pt x="1021" y="690" on="0"/>
        <pt x="1033" y="695" on="0"/>
        <pt x="1036" y="695" on="1"/>
        <pt x="1072" y="695" on="1"/>
        <pt x="1105" y="695" on="0"/>
        <pt x="1160" y="687" on="0"/>
        <pt x="1190" y="687" on="1"/>
        <pt x="1229" y="687" on="0"/>
        <pt x="1302" y="699" on="0"/>
        <pt x="1340" y="704" on="1"/>
        <pt x="1358" y="717" on="0"/>
        <pt x="1381" y="753" on="0"/>
        <pt x="1397" y="794" on="0"/>
        <pt x="1409" y="836" on="0"/>
        <pt x="1417" y="856" on="1"/>
        <pt x="1431" y="891" on="0"/>
        <pt x="1466" y="958" on="0"/>
        <pt x="1479" y="993" on="1"/>
        <pt x="1482" y="1004" on="0"/>
        <pt x="1489" y="1036" on="0"/>
        <pt x="1500" y="1068" on="0"/>
        <pt x="1514" y="1095" on="0"/>
        <pt x="1524" y="1100" on="1"/>
      </contour>
    </TTGlyph>
    <TTGlyph name="Aogonek.swash" xMin="69" yMin="-482" xMax="2937" yMax="1396">
      <contour>
        <pt x="69" y="407" on="1"/>
        <pt x="69" y="409" on="0"/>
        <pt x="73" y="421" on="0"/>
        <pt x="78" y="436" on="0"/>
        <pt x="82" y="448" on="0"/>
        <pt x="82" y="450" on="1"/>
        <pt x="83" y="454" on="0"/>
        <pt x="87" y="482" on="0"/>
        <pt x="92" y="513" on="0"/>
        <pt x="96" y="541" on="0"/>
        <pt x="98" y="545" on="1"/>
        <pt x="99" y="551" on="0"/>
        <pt x="106" y="584" on="0"/>
        <pt x="115" y="622" on="0"/>
        <pt x="124" y="655" on="0"/>
        <pt x="126" y="661" on="1"/>
        <pt x="153" y="706" on="0"/>
        <pt x="225" y="785" on="0"/>
        <pt x="273" y="815" on="1"/>
        <pt x="274" y="817" on="0"/>
        <pt x="296" y="826" on="0"/>
        <pt x="300" y="829" on="1"/>
        <pt x="303" y="829" on="0"/>
        <pt x="322" y="836" on="0"/>
        <pt x="325" y="836" on="1"/>
        <pt x="326" y="837" on="0"/>
        <pt x="327" y="839" on="1"/>
        <pt x="328" y="841" on="0"/>
        <pt x="330" y="842" on="0"/>
        <pt x="330" y="844" on="1"/>
        <pt x="346" y="856" on="0"/>
        <pt x="386" y="868" on="0"/>
        <pt x="429" y="874" on="0"/>
        <pt x="472" y="875" on="0"/>
        <pt x="491" y="875" on="1"/>
        <pt x="495" y="875" on="0"/>
        <pt x="520" y="872" on="0"/>
        <pt x="547" y="868" on="0"/>
        <pt x="572" y="865" on="0"/>
        <pt x="577" y="865" on="1"/>
        <pt x="600" y="861" on="0"/>
        <pt x="632" y="833" on="0"/>
        <pt x="650" y="820" on="1"/>
        <pt x="651" y="819" on="0"/>
        <pt x="662" y="814" on="0"/>
        <pt x="675" y="807" on="0"/>
        <pt x="685" y="800" on="0"/>
        <pt x="686" y="799" on="1"/>
        <pt x="688" y="798" on="0"/>
        <pt x="698" y="778" on="0"/>
        <pt x="700" y="778" on="1"/>
        <pt x="710" y="765" on="0"/>
        <pt x="725" y="748" on="0"/>
        <pt x="734" y="730" on="0"/>
        <pt x="738" y="708" on="0"/>
        <pt x="738" y="690" on="1"/>
        <pt x="738" y="661" on="0"/>
        <pt x="713" y="619" on="0"/>
        <pt x="672" y="592" on="0"/>
        <pt x="621" y="580" on="0"/>
        <pt x="594" y="580" on="1"/>
        <pt x="593" y="580" on="0"/>
        <pt x="584" y="580" on="0"/>
        <pt x="573" y="581" on="0"/>
        <pt x="564" y="581" on="0"/>
        <pt x="562" y="581" on="1"/>
        <pt x="545" y="593" on="0"/>
        <pt x="536" y="632" on="0"/>
        <pt x="533" y="671" on="0"/>
        <pt x="526" y="704" on="0"/>
        <pt x="511" y="711" on="1"/>
        <pt x="497" y="718" on="0"/>
        <pt x="474" y="726" on="0"/>
        <pt x="453" y="731" on="0"/>
        <pt x="430" y="732" on="0"/>
        <pt x="415" y="732" on="1"/>
        <pt x="412" y="732" on="0"/>
        <pt x="395" y="730" on="0"/>
        <pt x="377" y="729" on="0"/>
        <pt x="360" y="727" on="0"/>
        <pt x="357" y="727" on="1"/>
        <pt x="349" y="724" on="0"/>
        <pt x="325" y="713" on="0"/>
        <pt x="301" y="701" on="0"/>
        <pt x="279" y="688" on="0"/>
        <pt x="273" y="682" on="1"/>
        <pt x="270" y="680" on="0"/>
        <pt x="259" y="661" on="0"/>
        <pt x="257" y="661" on="1"/>
        <pt x="227" y="626" on="0"/>
        <pt x="180" y="552" on="0"/>
        <pt x="162" y="507" on="1"/>
        <pt x="160" y="504" on="0"/>
        <pt x="159" y="501" on="1"/>
        <pt x="157" y="499" on="0"/>
        <pt x="156" y="494" on="0"/>
        <pt x="155" y="493" on="1"/>
        <pt x="155" y="486" on="1"/>
        <pt x="155" y="475" on="0"/>
        <pt x="162" y="456" on="0"/>
        <pt x="162" y="445" on="1"/>
        <pt x="162" y="425" on="0"/>
        <pt x="155" y="390" on="0"/>
        <pt x="155" y="372" on="1"/>
        <pt x="155" y="353" on="0"/>
        <pt x="172" y="314" on="0"/>
        <pt x="197" y="277" on="0"/>
        <pt x="224" y="244" on="0"/>
        <pt x="235" y="232" on="1"/>
        <pt x="239" y="228" on="0"/>
        <pt x="254" y="212" on="0"/>
        <pt x="270" y="195" on="0"/>
        <pt x="284" y="182" on="0"/>
        <pt x="287" y="180" on="1"/>
        <pt x="288" y="179" on="0"/>
        <pt x="304" y="170" on="0"/>
        <pt x="325" y="158" on="0"/>
        <pt x="346" y="147" on="0"/>
        <pt x="352" y="145" on="1"/>
        <pt x="355" y="144" on="0"/>
        <pt x="371" y="137" on="0"/>
        <pt x="373" y="137" on="1"/>
        <pt x="402" y="137" on="1"/>
        <pt x="421" y="135" on="0"/>
        <pt x="458" y="123" on="0"/>
        <pt x="475" y="116" on="1"/>
        <pt x="591" y="116" on="1"/>
        <pt x="592" y="116" on="0"/>
        <pt x="603" y="114" on="0"/>
        <pt x="616" y="111" on="0"/>
        <pt x="627" y="109" on="0"/>
        <pt x="629" y="109" on="1"/>
        <pt x="657" y="109" on="1"/>
        <pt x="658" y="109" on="0"/>
        <pt x="669" y="106" on="0"/>
        <pt x="682" y="103" on="0"/>
        <pt x="693" y="101" on="0"/>
        <pt x="695" y="102" on="1"/>
        <pt x="697" y="102" on="0"/>
        <pt x="715" y="108" on="0"/>
        <pt x="737" y="115" on="0"/>
        <pt x="755" y="122" on="0"/>
        <pt x="757" y="123" on="1"/>
        <pt x="759" y="123" on="0"/>
        <pt x="776" y="125" on="0"/>
        <pt x="797" y="128" on="0"/>
        <pt x="818" y="131" on="0"/>
        <pt x="825" y="131" on="1"/>
        <pt x="831" y="131" on="1"/>
        <pt x="842" y="131" on="0"/>
        <pt x="863" y="123" on="0"/>
        <pt x="875" y="123" on="1"/>
        <pt x="892" y="123" on="0"/>
        <pt x="924" y="134" on="0"/>
        <pt x="942" y="137" on="1"/>
        <pt x="943" y="138" on="0"/>
        <pt x="957" y="141" on="0"/>
        <pt x="973" y="143" on="0"/>
        <pt x="989" y="145" on="0"/>
        <pt x="991" y="145" on="1"/>
        <pt x="993" y="145" on="0"/>
        <pt x="1011" y="158" on="0"/>
        <pt x="1013" y="161" on="1"/>
        <pt x="1018" y="161" on="0"/>
        <pt x="1041" y="172" on="0"/>
        <pt x="1041" y="175" on="1"/>
        <pt x="1043" y="175" on="0"/>
        <pt x="1054" y="177" on="0"/>
        <pt x="1067" y="178" on="0"/>
        <pt x="1077" y="180" on="0"/>
        <pt x="1079" y="180" on="1"/>
        <pt x="1079" y="182" on="0"/>
        <pt x="1090" y="187" on="0"/>
        <pt x="1093" y="189" on="1"/>
        <pt x="1120" y="206" on="0"/>
        <pt x="1180" y="229" on="0"/>
        <pt x="1209" y="247" on="1"/>
        <pt x="1210" y="248" on="0"/>
        <pt x="1219" y="254" on="0"/>
        <pt x="1229" y="262" on="0"/>
        <pt x="1237" y="268" on="0"/>
        <pt x="1238" y="268" on="1"/>
        <pt x="1258" y="281" on="0"/>
        <pt x="1299" y="293" on="0"/>
        <pt x="1318" y="304" on="1"/>
        <pt x="1321" y="305" on="0"/>
        <pt x="1336" y="316" on="0"/>
        <pt x="1353" y="329" on="0"/>
        <pt x="1367" y="339" on="0"/>
        <pt x="1369" y="341" on="1"/>
        <pt x="1371" y="342" on="0"/>
        <pt x="1384" y="348" on="0"/>
        <pt x="1399" y="355" on="0"/>
        <pt x="1411" y="362" on="0"/>
        <pt x="1413" y="363" on="1"/>
        <pt x="1414" y="364" on="0"/>
        <pt x="1423" y="374" on="0"/>
        <pt x="1432" y="384" on="0"/>
        <pt x="1441" y="392" on="0"/>
        <pt x="1442" y="393" on="1"/>
        <pt x="1444" y="394" on="0"/>
        <pt x="1461" y="402" on="0"/>
        <pt x="1481" y="411" on="0"/>
        <pt x="1498" y="420" on="0"/>
        <pt x="1501" y="422" on="1"/>
        <pt x="1503" y="424" on="1"/>
        <pt x="1506" y="427" on="0"/>
        <pt x="1508" y="427" on="1"/>
        <pt x="1509" y="430" on="0"/>
        <pt x="1520" y="444" on="0"/>
        <pt x="1532" y="459" on="0"/>
        <pt x="1543" y="472" on="0"/>
        <pt x="1544" y="474" on="1"/>
        <pt x="1546" y="474" on="0"/>
        <pt x="1558" y="479" on="0"/>
        <pt x="1573" y="486" on="0"/>
        <pt x="1585" y="492" on="0"/>
        <pt x="1587" y="493" on="1"/>
        <pt x="1598" y="501" on="0"/>
        <pt x="1619" y="526" on="0"/>
        <pt x="1640" y="554" on="0"/>
        <pt x="1659" y="580" on="0"/>
        <pt x="1669" y="588" on="1"/>
        <pt x="1669" y="589" on="0"/>
        <pt x="1679" y="599" on="0"/>
        <pt x="1692" y="611" on="0"/>
        <pt x="1706" y="622" on="0"/>
        <pt x="1710" y="625" on="1"/>
        <pt x="1711" y="626" on="0"/>
        <pt x="1721" y="632" on="0"/>
        <pt x="1731" y="639" on="0"/>
        <pt x="1739" y="645" on="0"/>
        <pt x="1740" y="645" on="1"/>
        <pt x="1743" y="648" on="0"/>
        <pt x="1764" y="670" on="0"/>
        <pt x="1788" y="695" on="0"/>
        <pt x="1809" y="717" on="0"/>
        <pt x="1812" y="720" on="1"/>
        <pt x="1813" y="720" on="0"/>
        <pt x="1824" y="728" on="0"/>
        <pt x="1837" y="738" on="0"/>
        <pt x="1847" y="747" on="0"/>
        <pt x="1849" y="749" on="1"/>
        <pt x="1853" y="752" on="0"/>
        <pt x="1869" y="774" on="0"/>
        <pt x="1871" y="778" on="1"/>
        <pt x="1880" y="787" on="0"/>
        <pt x="1927" y="835" on="0"/>
        <pt x="1981" y="888" on="0"/>
        <pt x="2029" y="935" on="0"/>
        <pt x="2039" y="945" on="1"/>
        <pt x="2042" y="949" on="0"/>
        <pt x="2061" y="970" on="0"/>
        <pt x="2084" y="996" on="0"/>
        <pt x="2105" y="1019" on="0"/>
        <pt x="2110" y="1024" on="1"/>
        <pt x="2111" y="1025" on="0"/>
        <pt x="2118" y="1034" on="0"/>
        <pt x="2125" y="1044" on="0"/>
        <pt x="2132" y="1052" on="0"/>
        <pt x="2132" y="1052" on="1"/>
        <pt x="2135" y="1054" on="0"/>
        <pt x="2151" y="1066" on="0"/>
        <pt x="2153" y="1067" on="1"/>
        <pt x="2156" y="1069" on="0"/>
        <pt x="2169" y="1082" on="0"/>
        <pt x="2183" y="1096" on="0"/>
        <pt x="2195" y="1108" on="0"/>
        <pt x="2198" y="1111" on="1"/>
        <pt x="2199" y="1112" on="0"/>
        <pt x="2205" y="1121" on="0"/>
        <pt x="2212" y="1131" on="0"/>
        <pt x="2218" y="1139" on="0"/>
        <pt x="2219" y="1140" on="1"/>
        <pt x="2220" y="1141" on="0"/>
        <pt x="2227" y="1146" on="0"/>
        <pt x="2236" y="1153" on="0"/>
        <pt x="2245" y="1160" on="0"/>
        <pt x="2248" y="1163" on="1"/>
        <pt x="2269" y="1178" on="0"/>
        <pt x="2302" y="1213" on="0"/>
        <pt x="2335" y="1244" on="0"/>
        <pt x="2374" y="1270" on="0"/>
        <pt x="2401" y="1278" on="1"/>
        <pt x="2482" y="1358" on="1"/>
        <pt x="2482" y="1360" on="0"/>
        <pt x="2493" y="1365" on="0"/>
        <pt x="2496" y="1367" on="1"/>
        <pt x="2539" y="1381" on="0"/>
        <pt x="2625" y="1396" on="0"/>
        <pt x="2670" y="1396" on="1"/>
        <pt x="2722" y="1396" on="1"/>
        <pt x="2724" y="1394" on="0"/>
        <pt x="2737" y="1385" on="0"/>
        <pt x="2751" y="1376" on="0"/>
        <pt x="2763" y="1368" on="0"/>
        <pt x="2766" y="1367" on="1"/>
        <pt x="2768" y="1365" on="0"/>
        <pt x="2789" y="1354" on="0"/>
        <pt x="2813" y="1342" on="0"/>
        <pt x="2835" y="1331" on="0"/>
        <pt x="2837" y="1329" on="1"/>
        <pt x="2843" y="1324" on="0"/>
        <pt x="2856" y="1314" on="0"/>
        <pt x="2861" y="1306" on="1"/>
        <pt x="2867" y="1301" on="0"/>
        <pt x="2880" y="1293" on="0"/>
        <pt x="2885" y="1289" on="1"/>
        <pt x="2887" y="1289" on="0"/>
        <pt x="2892" y="1284" on="0"/>
        <pt x="2894" y="1282" on="1"/>
        <pt x="2908" y="1264" on="0"/>
        <pt x="2937" y="1228" on="0"/>
        <pt x="2937" y="1202" on="1"/>
        <pt x="2937" y="1192" on="0"/>
        <pt x="2925" y="1166" on="0"/>
        <pt x="2906" y="1142" on="0"/>
        <pt x="2881" y="1126" on="0"/>
        <pt x="2869" y="1126" on="1"/>
        <pt x="2837" y="1126" on="0"/>
        <pt x="2801" y="1157" on="0"/>
        <pt x="2779" y="1204" on="0"/>
        <pt x="2766" y="1259" on="0"/>
        <pt x="2759" y="1282" on="1"/>
        <pt x="2758" y="1283" on="0"/>
        <pt x="2755" y="1289" on="1"/>
        <pt x="2750" y="1294" on="1"/>
        <pt x="2740" y="1294" on="1"/>
        <pt x="2717" y="1294" on="0"/>
        <pt x="2680" y="1258" on="0"/>
        <pt x="2670" y="1242" on="1"/>
        <pt x="2659" y="1228" on="0"/>
        <pt x="2643" y="1187" on="0"/>
        <pt x="2628" y="1143" on="0"/>
        <pt x="2614" y="1099" on="0"/>
        <pt x="2605" y="1081" on="1"/>
        <pt x="2586" y="1047" on="0"/>
        <pt x="2545" y="981" on="0"/>
        <pt x="2532" y="945" on="1"/>
        <pt x="2530" y="940" on="0"/>
        <pt x="2526" y="911" on="0"/>
        <pt x="2523" y="907" on="1"/>
        <pt x="2520" y="894" on="0"/>
        <pt x="2510" y="849" on="0"/>
        <pt x="2499" y="805" on="0"/>
        <pt x="2490" y="771" on="0"/>
        <pt x="2489" y="768" on="1"/>
        <pt x="2487" y="766" on="0"/>
        <pt x="2477" y="746" on="0"/>
        <pt x="2464" y="722" on="0"/>
        <pt x="2453" y="700" on="0"/>
        <pt x="2452" y="697" on="1"/>
        <pt x="2444" y="677" on="0"/>
        <pt x="2422" y="620" on="0"/>
        <pt x="2414" y="597" on="1"/>
        <pt x="2414" y="594" on="0"/>
        <pt x="2411" y="578" on="0"/>
        <pt x="2406" y="561" on="0"/>
        <pt x="2402" y="546" on="0"/>
        <pt x="2401" y="545" on="1"/>
        <pt x="2399" y="541" on="0"/>
        <pt x="2382" y="515" on="0"/>
        <pt x="2362" y="486" on="0"/>
        <pt x="2345" y="461" on="0"/>
        <pt x="2343" y="458" on="1"/>
        <pt x="2337" y="445" on="1"/>
        <pt x="2336" y="441" on="0"/>
        <pt x="2334" y="421" on="0"/>
        <pt x="2332" y="398" on="0"/>
        <pt x="2329" y="380" on="0"/>
        <pt x="2328" y="377" on="1"/>
        <pt x="2327" y="374" on="0"/>
        <pt x="2317" y="353" on="0"/>
        <pt x="2305" y="328" on="0"/>
        <pt x="2294" y="307" on="0"/>
        <pt x="2292" y="304" on="1"/>
        <pt x="2284" y="286" on="0"/>
        <pt x="2275" y="244" on="0"/>
        <pt x="2271" y="227" on="1"/>
        <pt x="2266" y="211" on="0"/>
        <pt x="2254" y="183" on="0"/>
        <pt x="2242" y="156" on="0"/>
        <pt x="2234" y="127" on="0"/>
        <pt x="2234" y="111" on="1"/>
        <pt x="2234" y="85" on="1"/>
        <pt x="2236" y="82" on="0"/>
        <pt x="2252" y="64" on="0"/>
        <pt x="2257" y="64" on="1"/>
        <pt x="2258" y="63" on="0"/>
        <pt x="2271" y="66" on="0"/>
        <pt x="2286" y="70" on="0"/>
        <pt x="2299" y="73" on="0"/>
        <pt x="2300" y="73" on="1"/>
        <pt x="2303" y="73" on="0"/>
        <pt x="2317" y="71" on="0"/>
        <pt x="2333" y="68" on="0"/>
        <pt x="2349" y="65" on="0"/>
        <pt x="2352" y="64" on="1"/>
        <pt x="2354" y="62" on="0"/>
        <pt x="2364" y="46" on="0"/>
        <pt x="2364" y="43" on="1"/>
        <pt x="2365" y="37" on="0"/>
        <pt x="2353" y="26" on="0"/>
        <pt x="2335" y="18" on="0"/>
        <pt x="2318" y="10" on="0"/>
        <pt x="2314" y="7" on="1"/>
        <pt x="2304" y="6" on="0"/>
        <pt x="2249" y="3" on="0"/>
        <pt x="2220" y="2" on="1"/>
        <pt x="2190" y="-40" on="0"/>
        <pt x="2132" y="-123" on="0"/>
        <pt x="2117" y="-171" on="1"/>
        <pt x="2115" y="-179" on="0"/>
        <pt x="2112" y="-200" on="0"/>
        <pt x="2109" y="-223" on="0"/>
        <pt x="2106" y="-245" on="0"/>
        <pt x="2104" y="-252" on="1"/>
        <pt x="2102" y="-258" on="0"/>
        <pt x="2102" y="-267" on="0"/>
        <pt x="2102" y="-272" on="1"/>
        <pt x="2102" y="-286" on="0"/>
        <pt x="2111" y="-298" on="1"/>
        <pt x="2121" y="-308" on="0"/>
        <pt x="2139" y="-325" on="0"/>
        <pt x="2147" y="-336" on="1"/>
        <pt x="2148" y="-337" on="0"/>
        <pt x="2150" y="-338" on="0"/>
        <pt x="2151" y="-339" on="1"/>
        <pt x="2158" y="-339" on="0"/>
        <pt x="2181" y="-357" on="0"/>
        <pt x="2194" y="-357" on="1"/>
        <pt x="2210" y="-357" on="0"/>
        <pt x="2224" y="-366" on="0"/>
        <pt x="2234" y="-366" on="1"/>
        <pt x="2242" y="-366" on="0"/>
        <pt x="2261" y="-361" on="0"/>
        <pt x="2272" y="-360" on="1"/>
        <pt x="2303" y="-357" on="0"/>
        <pt x="2332" y="-343" on="1"/>
        <pt x="2337" y="-343" on="1"/>
        <pt x="2353" y="-343" on="0"/>
        <pt x="2353" y="-356" on="1"/>
        <pt x="2353" y="-360" on="0"/>
        <pt x="2352" y="-363" on="1"/>
        <pt x="2347" y="-374" on="0"/>
        <pt x="2338" y="-382" on="1"/>
        <pt x="2304" y="-414" on="0"/>
        <pt x="2226" y="-454" on="0"/>
        <pt x="2185" y="-465" on="1"/>
        <pt x="2153" y="-478" on="1"/>
        <pt x="2141" y="-480" on="0"/>
        <pt x="2111" y="-482" on="0"/>
        <pt x="2098" y="-482" on="1"/>
        <pt x="2084" y="-482" on="0"/>
        <pt x="2043" y="-476" on="0"/>
        <pt x="2028" y="-472" on="1"/>
        <pt x="2016" y="-462" on="0"/>
        <pt x="1995" y="-446" on="0"/>
        <pt x="1974" y="-444" on="1"/>
        <pt x="1958" y="-434" on="1"/>
        <pt x="1950" y="-415" on="1"/>
        <pt x="1949" y="-394" on="0"/>
        <pt x="1935" y="-359" on="0"/>
        <pt x="1935" y="-339" on="1"/>
        <pt x="1935" y="-328" on="0"/>
        <pt x="1938" y="-316" on="1"/>
        <pt x="1946" y="-290" on="0"/>
        <pt x="1975" y="-232" on="0"/>
        <pt x="1983" y="-203" on="1"/>
        <pt x="2000" y="-183" on="1"/>
        <pt x="2019" y="-152" on="1"/>
        <pt x="2027" y="-135" on="1"/>
        <pt x="2092" y="-65" on="0"/>
        <pt x="2162" y="0" on="1"/>
        <pt x="2039" y="0" on="1"/>
        <pt x="2034" y="0" on="0"/>
        <pt x="1995" y="-4" on="0"/>
        <pt x="1951" y="-10" on="0"/>
        <pt x="1912" y="-15" on="0"/>
        <pt x="1906" y="-16" on="1"/>
        <pt x="1895" y="-16" on="1"/>
        <pt x="1887" y="-16" on="0"/>
        <pt x="1852" y="-15" on="0"/>
        <pt x="1816" y="-8" on="0"/>
        <pt x="1788" y="8" on="0"/>
        <pt x="1788" y="22" on="1"/>
        <pt x="1788" y="38" on="0"/>
        <pt x="1802" y="56" on="0"/>
        <pt x="1812" y="64" on="1"/>
        <pt x="1854" y="71" on="0"/>
        <pt x="1946" y="78" on="0"/>
        <pt x="1987" y="80" on="1"/>
        <pt x="1989" y="81" on="0"/>
        <pt x="1999" y="91" on="0"/>
        <pt x="2011" y="103" on="0"/>
        <pt x="2021" y="114" on="0"/>
        <pt x="2023" y="116" on="1"/>
        <pt x="2024" y="118" on="0"/>
        <pt x="2032" y="131" on="0"/>
        <pt x="2042" y="146" on="0"/>
        <pt x="2051" y="159" on="0"/>
        <pt x="2053" y="161" on="1"/>
        <pt x="2055" y="161" on="0"/>
        <pt x="2074" y="178" on="0"/>
        <pt x="2074" y="180" on="1"/>
        <pt x="2078" y="188" on="0"/>
        <pt x="2085" y="216" on="0"/>
        <pt x="2092" y="247" on="0"/>
        <pt x="2100" y="278" on="0"/>
        <pt x="2105" y="289" on="1"/>
        <pt x="2105" y="291" on="0"/>
        <pt x="2110" y="302" on="0"/>
        <pt x="2118" y="314" on="0"/>
        <pt x="2124" y="325" on="0"/>
        <pt x="2126" y="327" on="1"/>
        <pt x="2127" y="330" on="0"/>
        <pt x="2138" y="356" on="0"/>
        <pt x="2150" y="385" on="0"/>
        <pt x="2160" y="410" on="0"/>
        <pt x="2162" y="413" on="1"/>
        <pt x="2171" y="436" on="0"/>
        <pt x="2182" y="481" on="0"/>
        <pt x="2190" y="502" on="1"/>
        <pt x="2193" y="509" on="0"/>
        <pt x="2204" y="529" on="0"/>
        <pt x="2215" y="550" on="0"/>
        <pt x="2221" y="571" on="0"/>
        <pt x="2219" y="581" on="1"/>
        <pt x="2219" y="583" on="0"/>
        <pt x="2208" y="594" on="0"/>
        <pt x="2205" y="597" on="1"/>
        <pt x="2194" y="595" on="0"/>
        <pt x="2168" y="595" on="0"/>
        <pt x="2157" y="595" on="1"/>
        <pt x="2109" y="595" on="0"/>
        <pt x="2011" y="602" on="0"/>
        <pt x="1963" y="602" on="1"/>
        <pt x="1943" y="602" on="0"/>
        <pt x="1914" y="593" on="0"/>
        <pt x="1895" y="593" on="1"/>
        <pt x="1882" y="593" on="0"/>
        <pt x="1859" y="602" on="0"/>
        <pt x="1845" y="602" on="1"/>
        <pt x="1837" y="602" on="0"/>
        <pt x="1818" y="582" on="0"/>
        <pt x="1799" y="556" on="0"/>
        <pt x="1782" y="529" on="0"/>
        <pt x="1776" y="522" on="1"/>
        <pt x="1769" y="514" on="0"/>
        <pt x="1739" y="484" on="0"/>
        <pt x="1706" y="452" on="0"/>
        <pt x="1678" y="426" on="0"/>
        <pt x="1674" y="422" on="1"/>
        <pt x="1673" y="421" on="0"/>
        <pt x="1663" y="414" on="0"/>
        <pt x="1650" y="407" on="0"/>
        <pt x="1640" y="400" on="0"/>
        <pt x="1639" y="398" on="1"/>
        <pt x="1627" y="389" on="0"/>
        <pt x="1610" y="367" on="0"/>
        <pt x="1595" y="343" on="0"/>
        <pt x="1577" y="320" on="0"/>
        <pt x="1565" y="311" on="1"/>
        <pt x="1563" y="310" on="0"/>
        <pt x="1540" y="299" on="0"/>
        <pt x="1536" y="298" on="1"/>
        <pt x="1534" y="296" on="0"/>
        <pt x="1533" y="294" on="1"/>
        <pt x="1530" y="291" on="0"/>
        <pt x="1530" y="289" on="1"/>
        <pt x="1527" y="287" on="0"/>
        <pt x="1508" y="273" on="0"/>
        <pt x="1485" y="256" on="0"/>
        <pt x="1466" y="241" on="0"/>
        <pt x="1463" y="239" on="1"/>
        <pt x="1461" y="237" on="0"/>
        <pt x="1460" y="235" on="1"/>
        <pt x="1457" y="232" on="0"/>
        <pt x="1456" y="232" on="1"/>
        <pt x="1454" y="232" on="0"/>
        <pt x="1437" y="227" on="0"/>
        <pt x="1435" y="227" on="1"/>
        <pt x="1431" y="225" on="0"/>
        <pt x="1418" y="219" on="0"/>
        <pt x="1412" y="217" on="1"/>
        <pt x="1405" y="214" on="0"/>
        <pt x="1397" y="211" on="1"/>
        <pt x="1396" y="210" on="0"/>
        <pt x="1392" y="201" on="0"/>
        <pt x="1388" y="191" on="0"/>
        <pt x="1385" y="182" on="0"/>
        <pt x="1385" y="180" on="1"/>
        <pt x="1373" y="172" on="1"/>
        <pt x="1368" y="169" on="0"/>
        <pt x="1359" y="162" on="0"/>
        <pt x="1356" y="161" on="1"/>
        <pt x="1300" y="122" on="0"/>
        <pt x="1201" y="61" on="0"/>
        <pt x="1138" y="36" on="1"/>
        <pt x="1136" y="35" on="0"/>
        <pt x="1124" y="33" on="0"/>
        <pt x="1112" y="31" on="0"/>
        <pt x="1101" y="29" on="0"/>
        <pt x="1100" y="28" on="1"/>
        <pt x="1089" y="25" on="0"/>
        <pt x="1071" y="13" on="0"/>
        <pt x="1052" y="-1" on="0"/>
        <pt x="1033" y="-14" on="0"/>
        <pt x="1022" y="-16" on="1"/>
        <pt x="954" y="-16" on="1"/>
        <pt x="953" y="-16" on="0"/>
        <pt x="928" y="-21" on="0"/>
        <pt x="927" y="-21" on="1"/>
        <pt x="924" y="-23" on="0"/>
        <pt x="914" y="-24" on="0"/>
        <pt x="911" y="-24" on="1"/>
        <pt x="898" y="-24" on="0"/>
        <pt x="877" y="-16" on="0"/>
        <pt x="863" y="-16" on="1"/>
        <pt x="847" y="-16" on="0"/>
        <pt x="828" y="-22" on="0"/>
        <pt x="809" y="-29" on="1"/>
        <pt x="613" y="-29" on="1"/>
        <pt x="586" y="-28" on="0"/>
        <pt x="545" y="-14" on="0"/>
        <pt x="520" y="-7" on="1"/>
        <pt x="517" y="-7" on="0"/>
        <pt x="493" y="-3" on="0"/>
        <pt x="466" y="2" on="0"/>
        <pt x="442" y="6" on="0"/>
        <pt x="439" y="7" on="1"/>
        <pt x="413" y="14" on="0"/>
        <pt x="360" y="40" on="0"/>
        <pt x="337" y="52" on="1"/>
        <pt x="336" y="52" on="0"/>
        <pt x="326" y="54" on="1"/>
        <pt x="322" y="55" on="0"/>
        <pt x="316" y="57" on="1"/>
        <pt x="311" y="61" on="0"/>
        <pt x="288" y="73" on="0"/>
        <pt x="287" y="73" on="1"/>
        <pt x="286" y="73" on="0"/>
        <pt x="279" y="79" on="0"/>
        <pt x="272" y="86" on="0"/>
        <pt x="265" y="93" on="0"/>
        <pt x="264" y="93" on="1"/>
        <pt x="241" y="113" on="0"/>
        <pt x="192" y="146" on="0"/>
        <pt x="169" y="166" on="1"/>
        <pt x="146" y="188" on="0"/>
        <pt x="114" y="246" on="0"/>
        <pt x="98" y="268" on="1"/>
        <pt x="91" y="280" on="0"/>
        <pt x="87" y="300" on="0"/>
        <pt x="82" y="311" on="1"/>
        <pt x="81" y="318" on="0"/>
        <pt x="77" y="341" on="0"/>
        <pt x="72" y="365" on="0"/>
        <pt x="69" y="383" on="0"/>
        <pt x="69" y="384" on="1"/>
      </contour>
      <contour>
        <pt x="1958" y="721" on="1"/>
        <pt x="1958" y="713" on="0"/>
        <pt x="1976" y="690" on="0"/>
        <pt x="1987" y="690" on="1"/>
        <pt x="1994" y="690" on="1"/>
        <pt x="2000" y="690" on="0"/>
        <pt x="2045" y="692" on="0"/>
        <pt x="2096" y="695" on="0"/>
        <pt x="2142" y="697" on="0"/>
        <pt x="2148" y="697" on="1"/>
        <pt x="2151" y="697" on="1"/>
        <pt x="2165" y="697" on="0"/>
        <pt x="2193" y="690" on="0"/>
        <pt x="2209" y="690" on="1"/>
        <pt x="2234" y="690" on="1"/>
        <pt x="2252" y="704" on="0"/>
        <pt x="2273" y="748" on="0"/>
        <pt x="2286" y="797" on="0"/>
        <pt x="2297" y="846" on="0"/>
        <pt x="2305" y="865" on="1"/>
        <pt x="2308" y="869" on="0"/>
        <pt x="2328" y="907" on="0"/>
        <pt x="2350" y="951" on="0"/>
        <pt x="2370" y="990" on="0"/>
        <pt x="2373" y="995" on="1"/>
        <pt x="2374" y="996" on="0"/>
        <pt x="2378" y="1007" on="0"/>
        <pt x="2382" y="1022" on="0"/>
        <pt x="2385" y="1036" on="0"/>
        <pt x="2385" y="1040" on="1"/>
        <pt x="2386" y="1040" on="0"/>
        <pt x="2389" y="1049" on="0"/>
        <pt x="2392" y="1058" on="0"/>
        <pt x="2394" y="1067" on="0"/>
        <pt x="2394" y="1067" on="1"/>
        <pt x="2407" y="1102" on="0"/>
        <pt x="2423" y="1162" on="0"/>
        <pt x="2423" y="1201" on="1"/>
        <pt x="2412" y="1201" on="0"/>
        <pt x="2390" y="1190" on="0"/>
        <pt x="2370" y="1173" on="0"/>
        <pt x="2351" y="1155" on="0"/>
        <pt x="2343" y="1149" on="1"/>
        <pt x="2341" y="1147" on="0"/>
        <pt x="2330" y="1139" on="0"/>
        <pt x="2318" y="1129" on="0"/>
        <pt x="2307" y="1120" on="0"/>
        <pt x="2305" y="1119" on="1"/>
        <pt x="2305" y="1117" on="0"/>
        <pt x="2299" y="1106" on="0"/>
        <pt x="2292" y="1094" on="0"/>
        <pt x="2286" y="1083" on="0"/>
        <pt x="2286" y="1081" on="1"/>
        <pt x="2284" y="1080" on="0"/>
        <pt x="2269" y="1065" on="0"/>
        <pt x="2252" y="1048" on="0"/>
        <pt x="2236" y="1033" on="0"/>
        <pt x="2234" y="1031" on="1"/>
        <pt x="2233" y="1030" on="0"/>
        <pt x="2225" y="1020" on="0"/>
        <pt x="2215" y="1008" on="0"/>
        <pt x="2206" y="997" on="0"/>
        <pt x="2205" y="995" on="1"/>
        <pt x="2194" y="983" on="0"/>
        <pt x="2165" y="970" on="0"/>
        <pt x="2153" y="958" on="1"/>
        <pt x="2111" y="911" on="0"/>
        <pt x="2036" y="818" on="0"/>
        <pt x="1994" y="768" on="1"/>
        <pt x="1990" y="764" on="0"/>
        <pt x="1978" y="754" on="0"/>
        <pt x="1966" y="742" on="0"/>
        <pt x="1958" y="728" on="0"/>
      </contour>
    </TTGlyph>
    <TTGlyph name="Aring" xMin="-172" yMin="-22" xMax="1865" yMax="1941">
      <component glyphName="A" x="0" y="0" flags="0x204"/>
      <component glyphName="Ring" x="838" y="0" flags="0x4"/>
    </TTGlyph>
    <TTGlyph name="Aring.swash" xMin="69" yMin="-29" xMax="2937" yMax="1941">
      <component glyphName="A.swash" x="0" y="0" flags="0x204"/>
      <component glyphName="Ring" x="1754" y="0" flags="0x4"/>
    </TTGlyph>
    <TTGlyph name="Atilde" xMin="-172" yMin="-22" xMax="2045" yMax="1813">
      <component glyphName="A" x="0" y="0" flags="0x204"/>
      <component glyphName="tilde" x="996" y="453" flags="0x4"/>
    </TTGlyph>
    <TTGlyph name="Atilde.swash" xMin="69" yMin="-29" xMax="2937" yMax="1813">
      <component glyphName="A.swash" x="0" y="0" flags="0x204"/>
      <component glyphName="tilde" x="1864" y="453" flags="0x4"/>
    </TTGlyph>
    <TTGlyph name="B" xMin="-74" yMin="-24" xMax="1351" yMax="1479">
      <contour>
        <pt x="638" y="836" on="1"/>
        <pt x="638" y="833" on="0"/>
        <pt x="637" y="826" on="0"/>
        <pt x="637" y="822" on="1"/>
        <pt x="637" y="817" on="0"/>
        <pt x="640" y="806" on="0"/>
        <pt x="647" y="804" on="1"/>
        <pt x="648" y="804" on="0"/>
        <pt x="660" y="802" on="0"/>
        <pt x="675" y="799" on="0"/>
        <pt x="690" y="797" on="0"/>
        <pt x="694" y="796" on="1"/>
        <pt x="697" y="796" on="0"/>
        <pt x="714" y="794" on="0"/>
        <pt x="734" y="791" on="0"/>
        <pt x="751" y="789" on="0"/>
        <pt x="756" y="789" on="1"/>
        <pt x="760" y="789" on="1"/>
        <pt x="787" y="789" on="0"/>
        <pt x="845" y="817" on="0"/>
        <pt x="869" y="829" on="1"/>
        <pt x="871" y="829" on="0"/>
        <pt x="883" y="831" on="0"/>
        <pt x="896" y="832" on="0"/>
        <pt x="907" y="834" on="0"/>
        <pt x="908" y="834" on="1"/>
        <pt x="910" y="836" on="0"/>
        <pt x="927" y="839" on="0"/>
        <pt x="929" y="841" on="1"/>
        <pt x="984" y="867" on="0"/>
        <pt x="1066" y="929" on="0"/>
        <pt x="1099" y="979" on="1"/>
        <pt x="1101" y="983" on="0"/>
        <pt x="1108" y="996" on="0"/>
        <pt x="1116" y="1008" on="0"/>
        <pt x="1122" y="1017" on="0"/>
        <pt x="1123" y="1017" on="1"/>
        <pt x="1124" y="1021" on="0"/>
        <pt x="1125" y="1039" on="0"/>
        <pt x="1127" y="1060" on="0"/>
        <pt x="1132" y="1080" on="0"/>
        <pt x="1137" y="1086" on="1"/>
        <pt x="1137" y="1130" on="1"/>
        <pt x="1137" y="1160" on="0"/>
        <pt x="1131" y="1201" on="0"/>
        <pt x="1115" y="1236" on="0"/>
        <pt x="1089" y="1270" on="0"/>
        <pt x="1068" y="1294" on="1"/>
        <pt x="1052" y="1314" on="0"/>
        <pt x="1020" y="1343" on="0"/>
        <pt x="991" y="1348" on="1"/>
        <pt x="960" y="1348" on="1"/>
        <pt x="946" y="1352" on="0"/>
        <pt x="929" y="1372" on="0"/>
        <pt x="914" y="1372" on="1"/>
        <pt x="881" y="1372" on="0"/>
        <pt x="830" y="1357" on="0"/>
        <pt x="817" y="1323" on="1"/>
        <pt x="815" y="1321" on="0"/>
        <pt x="808" y="1302" on="0"/>
        <pt x="801" y="1279" on="0"/>
        <pt x="795" y="1260" on="0"/>
        <pt x="794" y="1258" on="1"/>
        <pt x="792" y="1255" on="0"/>
        <pt x="785" y="1238" on="0"/>
        <pt x="777" y="1220" on="0"/>
        <pt x="771" y="1204" on="0"/>
        <pt x="770" y="1201" on="1"/>
        <pt x="769" y="1198" on="0"/>
        <pt x="760" y="1172" on="0"/>
        <pt x="749" y="1141" on="0"/>
        <pt x="740" y="1114" on="0"/>
        <pt x="739" y="1111" on="1"/>
        <pt x="737" y="1108" on="0"/>
        <pt x="729" y="1088" on="0"/>
        <pt x="719" y="1065" on="0"/>
        <pt x="710" y="1044" on="0"/>
        <pt x="708" y="1041" on="1"/>
        <pt x="701" y="1023" on="0"/>
        <pt x="698" y="982" on="0"/>
        <pt x="694" y="965" on="1"/>
        <pt x="690" y="948" on="0"/>
        <pt x="671" y="916" on="0"/>
        <pt x="652" y="884" on="0"/>
        <pt x="638" y="852" on="0"/>
      </contour>
      <contour>
        <pt x="401" y="85" on="1"/>
        <pt x="412" y="69" on="0"/>
        <pt x="460" y="62" on="0"/>
        <pt x="483" y="62" on="1"/>
        <pt x="514" y="62" on="1"/>
        <pt x="568" y="62" on="0"/>
        <pt x="667" y="83" on="0"/>
        <pt x="715" y="99" on="1"/>
        <pt x="737" y="105" on="0"/>
        <pt x="781" y="116" on="0"/>
        <pt x="801" y="130" on="1"/>
        <pt x="803" y="131" on="0"/>
        <pt x="814" y="143" on="0"/>
        <pt x="827" y="156" on="0"/>
        <pt x="838" y="168" on="0"/>
        <pt x="839" y="170" on="1"/>
        <pt x="842" y="171" on="0"/>
        <pt x="845" y="173" on="1"/>
        <pt x="847" y="174" on="0"/>
        <pt x="852" y="176" on="0"/>
        <pt x="853" y="176" on="1"/>
        <pt x="859" y="179" on="0"/>
        <pt x="878" y="189" on="0"/>
        <pt x="895" y="199" on="0"/>
        <pt x="908" y="207" on="0"/>
        <pt x="908" y="208" on="1"/>
        <pt x="915" y="212" on="0"/>
        <pt x="922" y="228" on="0"/>
        <pt x="928" y="245" on="0"/>
        <pt x="935" y="262" on="0"/>
        <pt x="940" y="268" on="1"/>
        <pt x="941" y="270" on="0"/>
        <pt x="953" y="288" on="0"/>
        <pt x="953" y="291" on="1"/>
        <pt x="972" y="339" on="0"/>
        <pt x="991" y="432" on="0"/>
        <pt x="991" y="484" on="1"/>
        <pt x="991" y="512" on="0"/>
        <pt x="967" y="558" on="0"/>
        <pt x="953" y="581" on="1"/>
        <pt x="952" y="582" on="0"/>
        <pt x="943" y="598" on="0"/>
        <pt x="933" y="616" on="0"/>
        <pt x="925" y="632" on="0"/>
        <pt x="924" y="633" on="1"/>
        <pt x="921" y="637" on="0"/>
        <pt x="905" y="655" on="0"/>
        <pt x="888" y="673" on="0"/>
        <pt x="873" y="688" on="0"/>
        <pt x="869" y="690" on="1"/>
        <pt x="861" y="692" on="0"/>
        <pt x="854" y="695" on="1"/>
        <pt x="848" y="697" on="0"/>
        <pt x="835" y="702" on="0"/>
        <pt x="831" y="704" on="1"/>
        <pt x="794" y="720" on="0"/>
        <pt x="714" y="735" on="0"/>
        <pt x="673" y="735" on="1"/>
        <pt x="643" y="735" on="0"/>
        <pt x="616" y="726" on="0"/>
        <pt x="601" y="707" on="0"/>
        <pt x="592" y="677" on="0"/>
        <pt x="580" y="657" on="1"/>
        <pt x="546" y="551" on="0"/>
        <pt x="469" y="350" on="0"/>
        <pt x="434" y="246" on="1"/>
        <pt x="427" y="227" on="0"/>
        <pt x="415" y="196" on="0"/>
        <pt x="406" y="167" on="0"/>
        <pt x="401" y="137" on="0"/>
        <pt x="401" y="118" on="1"/>
      </contour>
      <contour>
        <pt x="-74" y="45" on="1"/>
        <pt x="-74" y="47" on="0"/>
        <pt x="-73" y="66" on="0"/>
        <pt x="-73" y="67" on="1"/>
        <pt x="-64" y="76" on="1"/>
        <pt x="-63" y="77" on="0"/>
        <pt x="-33" y="80" on="0"/>
        <pt x="9" y="83" on="0"/>
        <pt x="52" y="85" on="0"/>
        <pt x="66" y="85" on="1"/>
        <pt x="69" y="85" on="0"/>
        <pt x="84" y="82" on="0"/>
        <pt x="102" y="79" on="0"/>
        <pt x="117" y="76" on="0"/>
        <pt x="119" y="76" on="1"/>
        <pt x="126" y="76" on="1"/>
        <pt x="163" y="76" on="0"/>
        <pt x="178" y="107" on="1"/>
        <pt x="190" y="124" on="0"/>
        <pt x="198" y="156" on="0"/>
        <pt x="203" y="176" on="1"/>
        <pt x="225" y="252" on="0"/>
        <pt x="278" y="399" on="0"/>
        <pt x="301" y="474" on="1"/>
        <pt x="305" y="488" on="0"/>
        <pt x="311" y="510" on="0"/>
        <pt x="316" y="529" on="0"/>
        <pt x="324" y="548" on="0"/>
        <pt x="332" y="559" on="1"/>
        <pt x="434" y="849" on="1"/>
        <pt x="435" y="854" on="0"/>
        <pt x="439" y="881" on="0"/>
        <pt x="443" y="911" on="0"/>
        <pt x="446" y="936" on="0"/>
        <pt x="446" y="941" on="1"/>
        <pt x="449" y="944" on="0"/>
        <pt x="455" y="963" on="0"/>
        <pt x="455" y="965" on="1"/>
        <pt x="456" y="966" on="0"/>
        <pt x="463" y="976" on="0"/>
        <pt x="472" y="986" on="0"/>
        <pt x="479" y="994" on="0"/>
        <pt x="479" y="995" on="1"/>
        <pt x="480" y="998" on="0"/>
        <pt x="484" y="1013" on="0"/>
        <pt x="489" y="1031" on="0"/>
        <pt x="493" y="1047" on="0"/>
        <pt x="495" y="1050" on="1"/>
        <pt x="497" y="1053" on="0"/>
        <pt x="502" y="1070" on="0"/>
        <pt x="504" y="1074" on="1"/>
        <pt x="504" y="1076" on="0"/>
        <pt x="513" y="1095" on="0"/>
        <pt x="522" y="1117" on="0"/>
        <pt x="531" y="1136" on="0"/>
        <pt x="531" y="1138" on="1"/>
        <pt x="534" y="1142" on="0"/>
        <pt x="540" y="1156" on="0"/>
        <pt x="545" y="1168" on="0"/>
        <pt x="549" y="1177" on="0"/>
        <pt x="549" y="1178" on="1"/>
        <pt x="551" y="1188" on="0"/>
        <pt x="560" y="1227" on="0"/>
        <pt x="571" y="1269" on="0"/>
        <pt x="579" y="1304" on="0"/>
        <pt x="580" y="1310" on="1"/>
        <pt x="580" y="1334" on="1"/>
        <pt x="580" y="1359" on="0"/>
        <pt x="562" y="1372" on="0"/>
        <pt x="545" y="1372" on="1"/>
        <pt x="541" y="1372" on="0"/>
        <pt x="531" y="1370" on="0"/>
        <pt x="526" y="1370" on="1"/>
        <pt x="521" y="1370" on="0"/>
        <pt x="510" y="1370" on="0"/>
        <pt x="504" y="1372" on="1"/>
        <pt x="499" y="1372" on="0"/>
        <pt x="475" y="1377" on="0"/>
        <pt x="471" y="1379" on="1"/>
        <pt x="468" y="1379" on="0"/>
        <pt x="445" y="1381" on="0"/>
        <pt x="419" y="1382" on="0"/>
        <pt x="397" y="1384" on="0"/>
        <pt x="395" y="1384" on="1"/>
        <pt x="374" y="1388" on="0"/>
        <pt x="363" y="1424" on="0"/>
        <pt x="363" y="1441" on="1"/>
        <pt x="363" y="1459" on="0"/>
        <pt x="376" y="1479" on="0"/>
        <pt x="395" y="1479" on="1"/>
        <pt x="417" y="1479" on="1"/>
        <pt x="428" y="1478" on="0"/>
        <pt x="485" y="1474" on="0"/>
        <pt x="549" y="1468" on="0"/>
        <pt x="607" y="1463" on="0"/>
        <pt x="618" y="1462" on="1"/>
        <pt x="619" y="1459" on="0"/>
        <pt x="636" y="1457" on="0"/>
        <pt x="640" y="1457" on="1"/>
        <pt x="644" y="1455" on="0"/>
        <pt x="664" y="1455" on="1"/>
        <pt x="681" y="1455" on="0"/>
        <pt x="720" y="1457" on="0"/>
        <pt x="725" y="1457" on="1"/>
        <pt x="739" y="1456" on="0"/>
        <pt x="796" y="1453" on="0"/>
        <pt x="868" y="1450" on="0"/>
        <pt x="948" y="1446" on="0"/>
        <pt x="1020" y="1443" on="0"/>
        <pt x="1078" y="1440" on="0"/>
        <pt x="1092" y="1439" on="1"/>
        <pt x="1101" y="1429" on="0"/>
        <pt x="1131" y="1429" on="0"/>
        <pt x="1145" y="1424" on="1"/>
        <pt x="1174" y="1410" on="0"/>
        <pt x="1224" y="1383" on="0"/>
        <pt x="1267" y="1350" on="0"/>
        <pt x="1304" y="1307" on="0"/>
        <pt x="1320" y="1277" on="1"/>
        <pt x="1320" y="1275" on="0"/>
        <pt x="1328" y="1259" on="0"/>
        <pt x="1330" y="1258" on="1"/>
        <pt x="1330" y="1253" on="0"/>
        <pt x="1336" y="1235" on="0"/>
        <pt x="1344" y="1216" on="0"/>
        <pt x="1351" y="1198" on="0"/>
        <pt x="1351" y="1195" on="1"/>
        <pt x="1351" y="1055" on="1"/>
        <pt x="1344" y="1040" on="0"/>
        <pt x="1339" y="1026" on="1"/>
        <pt x="1334" y="1014" on="0"/>
        <pt x="1324" y="988" on="0"/>
        <pt x="1320" y="979" on="1"/>
        <pt x="1306" y="941" on="0"/>
        <pt x="1251" y="878" on="0"/>
        <pt x="1222" y="849" on="1"/>
        <pt x="1217" y="844" on="0"/>
        <pt x="1197" y="827" on="0"/>
        <pt x="1177" y="810" on="0"/>
        <pt x="1162" y="797" on="0"/>
        <pt x="1161" y="796" on="1"/>
        <pt x="1159" y="795" on="0"/>
        <pt x="1146" y="793" on="0"/>
        <pt x="1130" y="791" on="0"/>
        <pt x="1116" y="789" on="0"/>
        <pt x="1114" y="789" on="1"/>
        <pt x="1109" y="787" on="0"/>
        <pt x="1092" y="779" on="0"/>
        <pt x="1075" y="767" on="0"/>
        <pt x="1062" y="754" on="0"/>
        <pt x="1062" y="747" on="1"/>
        <pt x="1062" y="744" on="0"/>
        <pt x="1082" y="715" on="0"/>
        <pt x="1107" y="682" on="0"/>
        <pt x="1128" y="653" on="0"/>
        <pt x="1130" y="652" on="1"/>
        <pt x="1131" y="650" on="0"/>
        <pt x="1143" y="638" on="0"/>
        <pt x="1156" y="625" on="0"/>
        <pt x="1166" y="613" on="0"/>
        <pt x="1166" y="612" on="1"/>
        <pt x="1205" y="567" on="0"/>
        <pt x="1222" y="465" on="0"/>
        <pt x="1222" y="407" on="1"/>
        <pt x="1222" y="375" on="0"/>
        <pt x="1213" y="320" on="0"/>
        <pt x="1199" y="291" on="1"/>
        <pt x="1194" y="282" on="0"/>
        <pt x="1180" y="251" on="0"/>
        <pt x="1165" y="221" on="0"/>
        <pt x="1153" y="199" on="0"/>
        <pt x="1152" y="199" on="1"/>
        <pt x="1151" y="197" on="0"/>
        <pt x="1131" y="177" on="0"/>
        <pt x="1105" y="150" on="0"/>
        <pt x="1077" y="123" on="0"/>
        <pt x="1068" y="114" on="1"/>
        <pt x="1022" y="71" on="0"/>
        <pt x="914" y="19" on="0"/>
        <pt x="853" y="5" on="1"/>
        <pt x="832" y="3" on="0"/>
        <pt x="804" y="0" on="0"/>
        <pt x="784" y="-7" on="1"/>
        <pt x="640" y="-7" on="1"/>
        <pt x="566" y="-7" on="0"/>
        <pt x="421" y="0" on="0"/>
        <pt x="346" y="0" on="1"/>
        <pt x="296" y="0" on="1"/>
        <pt x="285" y="-1" on="0"/>
        <pt x="228" y="-5" on="0"/>
        <pt x="164" y="-10" on="0"/>
        <pt x="107" y="-15" on="0"/>
        <pt x="95" y="-16" on="1"/>
        <pt x="87" y="-21" on="0"/>
        <pt x="66" y="-24" on="0"/>
        <pt x="55" y="-24" on="1"/>
        <pt x="33" y="-24" on="1"/>
        <pt x="13" y="-24" on="0"/>
        <pt x="-25" y="-20" on="0"/>
        <pt x="-55" y="-7" on="0"/>
        <pt x="-74" y="21" on="0"/>
      </contour>
    </TTGlyph>
    <TTGlyph name="Breve" xMin="502" yMin="1633" xMax="1052" yMax="1915">
      <contour>
        <pt x="711" y="1633" on="1"/>
        <pt x="701" y="1633" on="0"/>
        <pt x="682" y="1634" on="0"/>
        <pt x="674" y="1636" on="1"/>
        <pt x="674" y="1636" on="0"/>
        <pt x="658" y="1640" on="0"/>
        <pt x="640" y="1645" on="0"/>
        <pt x="626" y="1649" on="0"/>
        <pt x="626" y="1649" on="1"/>
        <pt x="623" y="1650" on="1"/>
        <pt x="609" y="1651" on="1"/>
        <pt x="592" y="1653" on="0"/>
        <pt x="575" y="1672" on="0"/>
        <pt x="566" y="1676" on="1"/>
        <pt x="548" y="1685" on="1"/>
        <pt x="538" y="1694" on="0"/>
        <pt x="528" y="1717" on="0"/>
        <pt x="521" y="1741" on="0"/>
        <pt x="513" y="1766" on="0"/>
        <pt x="505" y="1777" on="1"/>
        <pt x="507" y="1792" on="1"/>
        <pt x="502" y="1802" on="1"/>
        <pt x="502" y="1804" on="0"/>
        <pt x="502" y="1811" on="0"/>
        <pt x="503" y="1815" on="1"/>
        <pt x="506" y="1827" on="1"/>
        <pt x="514" y="1865" on="1"/>
        <pt x="516" y="1873" on="0"/>
        <pt x="518" y="1892" on="0"/>
        <pt x="519" y="1901" on="1"/>
        <pt x="525" y="1907" on="0"/>
        <pt x="539" y="1915" on="0"/>
        <pt x="550" y="1915" on="1"/>
        <pt x="569" y="1915" on="0"/>
        <pt x="574" y="1901" on="1"/>
        <pt x="573" y="1898" on="0"/>
        <pt x="573" y="1892" on="1"/>
        <pt x="573" y="1878" on="0"/>
        <pt x="587" y="1858" on="0"/>
        <pt x="595" y="1846" on="1"/>
        <pt x="601" y="1833" on="0"/>
        <pt x="603" y="1806" on="0"/>
        <pt x="617" y="1795" on="1"/>
        <pt x="625" y="1788" on="0"/>
        <pt x="658" y="1770" on="0"/>
        <pt x="670" y="1765" on="1"/>
        <pt x="701" y="1752" on="0"/>
        <pt x="740" y="1751" on="1"/>
        <pt x="750" y="1749" on="0"/>
        <pt x="772" y="1747" on="0"/>
        <pt x="786" y="1747" on="1"/>
        <pt x="792" y="1747" on="0"/>
        <pt x="804" y="1749" on="0"/>
        <pt x="809" y="1751" on="1"/>
        <pt x="878" y="1777" on="1"/>
        <pt x="907" y="1797" on="1"/>
        <pt x="923" y="1805" on="1"/>
        <pt x="926" y="1808" on="0"/>
        <pt x="927" y="1810" on="1"/>
        <pt x="931" y="1813" on="1"/>
        <pt x="940" y="1819" on="0"/>
        <pt x="955" y="1847" on="0"/>
        <pt x="969" y="1857" on="1"/>
        <pt x="974" y="1861" on="1"/>
        <pt x="977" y="1869" on="1"/>
        <pt x="996" y="1901" on="1"/>
        <pt x="1010" y="1915" on="0"/>
        <pt x="1026" y="1915" on="1"/>
        <pt x="1036" y="1915" on="0"/>
        <pt x="1048" y="1906" on="0"/>
        <pt x="1052" y="1901" on="1"/>
        <pt x="1045" y="1868" on="1"/>
        <pt x="1039" y="1841" on="0"/>
        <pt x="1022" y="1795" on="0"/>
        <pt x="994" y="1752" on="0"/>
        <pt x="954" y="1709" on="0"/>
        <pt x="927" y="1687" on="1"/>
        <pt x="903" y="1667" on="0"/>
        <pt x="853" y="1655" on="0"/>
        <pt x="824" y="1644" on="1"/>
        <pt x="804" y="1636" on="0"/>
        <pt x="749" y="1634" on="0"/>
        <pt x="727" y="1633" on="1"/>
      </contour>
    </TTGlyph>
    <TTGlyph name="C" xMin="143" yMin="-40" xMax="1461" yMax="1496">
      <contour>
        <pt x="143" y="483" on="1"/>
        <pt x="143" y="533" on="1"/>
        <pt x="144" y="540" on="0"/>
        <pt x="148" y="575" on="0"/>
        <pt x="152" y="614" on="0"/>
        <pt x="156" y="649" on="0"/>
        <pt x="157" y="656" on="1"/>
        <pt x="162" y="661" on="0"/>
        <pt x="173" y="696" on="0"/>
        <pt x="186" y="742" on="0"/>
        <pt x="199" y="794" on="0"/>
        <pt x="212" y="837" on="0"/>
        <pt x="223" y="866" on="0"/>
        <pt x="228" y="868" on="1"/>
        <pt x="281" y="976" on="1"/>
        <pt x="286" y="979" on="0"/>
        <pt x="294" y="996" on="0"/>
        <pt x="301" y="1015" on="0"/>
        <pt x="308" y="1032" on="0"/>
        <pt x="311" y="1036" on="1"/>
        <pt x="314" y="1040" on="0"/>
        <pt x="327" y="1061" on="0"/>
        <pt x="342" y="1083" on="0"/>
        <pt x="355" y="1103" on="0"/>
        <pt x="358" y="1107" on="1"/>
        <pt x="359" y="1107" on="0"/>
        <pt x="370" y="1112" on="0"/>
        <pt x="371" y="1112" on="1"/>
        <pt x="373" y="1115" on="0"/>
        <pt x="381" y="1123" on="0"/>
        <pt x="384" y="1124" on="1"/>
        <pt x="384" y="1126" on="0"/>
        <pt x="403" y="1142" on="0"/>
        <pt x="403" y="1144" on="1"/>
        <pt x="423" y="1188" on="0"/>
        <pt x="480" y="1261" on="0"/>
        <pt x="515" y="1291" on="1"/>
        <pt x="516" y="1291" on="0"/>
        <pt x="526" y="1295" on="0"/>
        <pt x="536" y="1300" on="0"/>
        <pt x="545" y="1304" on="0"/>
        <pt x="546" y="1304" on="1"/>
        <pt x="547" y="1304" on="0"/>
        <pt x="554" y="1311" on="0"/>
        <pt x="563" y="1319" on="0"/>
        <pt x="570" y="1326" on="0"/>
        <pt x="570" y="1327" on="1"/>
        <pt x="579" y="1335" on="0"/>
        <pt x="613" y="1364" on="0"/>
        <pt x="648" y="1394" on="0"/>
        <pt x="675" y="1417" on="0"/>
        <pt x="678" y="1420" on="1"/>
        <pt x="679" y="1420" on="0"/>
        <pt x="702" y="1432" on="0"/>
        <pt x="707" y="1436" on="1"/>
        <pt x="735" y="1448" on="0"/>
        <pt x="781" y="1470" on="0"/>
        <pt x="825" y="1487" on="0"/>
        <pt x="872" y="1496" on="0"/>
        <pt x="901" y="1496" on="1"/>
        <pt x="944" y="1496" on="1"/>
        <pt x="945" y="1496" on="0"/>
        <pt x="957" y="1493" on="0"/>
        <pt x="969" y="1490" on="0"/>
        <pt x="980" y="1488" on="0"/>
        <pt x="980" y="1488" on="1"/>
        <pt x="1026" y="1485" on="0"/>
        <pt x="1123" y="1483" on="0"/>
        <pt x="1164" y="1467" on="1"/>
        <pt x="1168" y="1465" on="0"/>
        <pt x="1189" y="1455" on="0"/>
        <pt x="1213" y="1442" on="0"/>
        <pt x="1237" y="1430" on="0"/>
        <pt x="1243" y="1427" on="1"/>
        <pt x="1246" y="1426" on="0"/>
        <pt x="1258" y="1419" on="0"/>
        <pt x="1270" y="1411" on="0"/>
        <pt x="1278" y="1405" on="0"/>
        <pt x="1278" y="1405" on="1"/>
        <pt x="1290" y="1396" on="0"/>
        <pt x="1313" y="1370" on="0"/>
        <pt x="1339" y="1345" on="0"/>
        <pt x="1367" y="1327" on="0"/>
        <pt x="1383" y="1327" on="1"/>
        <pt x="1389" y="1327" on="0"/>
        <pt x="1397" y="1340" on="0"/>
        <pt x="1403" y="1357" on="0"/>
        <pt x="1408" y="1374" on="0"/>
        <pt x="1411" y="1379" on="1"/>
        <pt x="1413" y="1383" on="0"/>
        <pt x="1425" y="1394" on="0"/>
        <pt x="1430" y="1394" on="1"/>
        <pt x="1438" y="1394" on="0"/>
        <pt x="1453" y="1382" on="0"/>
        <pt x="1454" y="1375" on="1"/>
        <pt x="1459" y="1367" on="0"/>
        <pt x="1461" y="1357" on="0"/>
        <pt x="1461" y="1353" on="1"/>
        <pt x="1461" y="1329" on="0"/>
        <pt x="1448" y="1286" on="0"/>
        <pt x="1431" y="1246" on="0"/>
        <pt x="1414" y="1204" on="0"/>
        <pt x="1409" y="1182" on="1"/>
        <pt x="1408" y="1173" on="0"/>
        <pt x="1402" y="1128" on="0"/>
        <pt x="1394" y="1077" on="0"/>
        <pt x="1388" y="1032" on="0"/>
        <pt x="1387" y="1024" on="1"/>
        <pt x="1385" y="1022" on="0"/>
        <pt x="1380" y="1013" on="0"/>
        <pt x="1373" y="1003" on="0"/>
        <pt x="1366" y="994" on="0"/>
        <pt x="1364" y="993" on="1"/>
        <pt x="1363" y="989" on="0"/>
        <pt x="1351" y="976" on="0"/>
        <pt x="1349" y="976" on="1"/>
        <pt x="1344" y="976" on="1"/>
        <pt x="1335" y="976" on="0"/>
        <pt x="1316" y="993" on="0"/>
        <pt x="1309" y="998" on="1"/>
        <pt x="1309" y="1000" on="0"/>
        <pt x="1306" y="1006" on="0"/>
        <pt x="1304" y="1008" on="1"/>
        <pt x="1301" y="1011" on="0"/>
        <pt x="1299" y="1014" on="1"/>
        <pt x="1299" y="1130" on="1"/>
        <pt x="1292" y="1135" on="0"/>
        <pt x="1279" y="1177" on="0"/>
        <pt x="1266" y="1227" on="0"/>
        <pt x="1254" y="1273" on="0"/>
        <pt x="1249" y="1284" on="1"/>
        <pt x="1247" y="1285" on="0"/>
        <pt x="1236" y="1303" on="0"/>
        <pt x="1235" y="1304" on="1"/>
        <pt x="1233" y="1304" on="0"/>
        <pt x="1212" y="1313" on="0"/>
        <pt x="1210" y="1313" on="1"/>
        <pt x="1206" y="1316" on="0"/>
        <pt x="1196" y="1329" on="0"/>
        <pt x="1186" y="1343" on="0"/>
        <pt x="1177" y="1355" on="0"/>
        <pt x="1174" y="1358" on="1"/>
        <pt x="1172" y="1359" on="0"/>
        <pt x="1160" y="1369" on="0"/>
        <pt x="1147" y="1379" on="0"/>
        <pt x="1135" y="1387" on="0"/>
        <pt x="1134" y="1387" on="1"/>
        <pt x="1122" y="1397" on="0"/>
        <pt x="1105" y="1413" on="0"/>
        <pt x="1088" y="1422" on="0"/>
        <pt x="1066" y="1427" on="0"/>
        <pt x="1050" y="1427" on="1"/>
        <pt x="1006" y="1427" on="1"/>
        <pt x="998" y="1427" on="0"/>
        <pt x="967" y="1425" on="0"/>
        <pt x="935" y="1422" on="0"/>
        <pt x="909" y="1420" on="0"/>
        <pt x="906" y="1420" on="1"/>
        <pt x="904" y="1419" on="0"/>
        <pt x="881" y="1406" on="0"/>
        <pt x="877" y="1405" on="1"/>
        <pt x="877" y="1405" on="0"/>
        <pt x="872" y="1400" on="1"/>
        <pt x="868" y="1396" on="1"/>
        <pt x="863" y="1393" on="0"/>
        <pt x="839" y="1377" on="0"/>
        <pt x="812" y="1360" on="0"/>
        <pt x="789" y="1345" on="0"/>
        <pt x="785" y="1342" on="1"/>
        <pt x="783" y="1341" on="0"/>
        <pt x="774" y="1336" on="0"/>
        <pt x="764" y="1332" on="0"/>
        <pt x="755" y="1328" on="0"/>
        <pt x="754" y="1327" on="1"/>
        <pt x="724" y="1301" on="0"/>
        <pt x="681" y="1237" on="0"/>
        <pt x="655" y="1208" on="1"/>
        <pt x="653" y="1205" on="0"/>
        <pt x="639" y="1191" on="0"/>
        <pt x="623" y="1176" on="0"/>
        <pt x="609" y="1162" on="0"/>
        <pt x="608" y="1159" on="1"/>
        <pt x="606" y="1156" on="0"/>
        <pt x="605" y="1153" on="1"/>
        <pt x="604" y="1151" on="0"/>
        <pt x="602" y="1146" on="0"/>
        <pt x="602" y="1144" on="1"/>
        <pt x="600" y="1142" on="0"/>
        <pt x="594" y="1123" on="0"/>
        <pt x="591" y="1121" on="1"/>
        <pt x="590" y="1120" on="0"/>
        <pt x="579" y="1109" on="0"/>
        <pt x="567" y="1095" on="0"/>
        <pt x="556" y="1084" on="0"/>
        <pt x="555" y="1083" on="1"/>
        <pt x="553" y="1081" on="0"/>
        <pt x="548" y="1064" on="0"/>
        <pt x="546" y="1062" on="1"/>
        <pt x="545" y="1057" on="0"/>
        <pt x="534" y="1029" on="0"/>
        <pt x="521" y="998" on="0"/>
        <pt x="511" y="972" on="0"/>
        <pt x="510" y="969" on="1"/>
        <pt x="509" y="967" on="0"/>
        <pt x="507" y="958" on="0"/>
        <pt x="505" y="947" on="0"/>
        <pt x="502" y="938" on="0"/>
        <pt x="501" y="938" on="1"/>
        <pt x="500" y="935" on="0"/>
        <pt x="489" y="912" on="0"/>
        <pt x="476" y="886" on="0"/>
        <pt x="464" y="864" on="0"/>
        <pt x="463" y="862" on="1"/>
        <pt x="441" y="814" on="0"/>
        <pt x="404" y="717" on="0"/>
        <pt x="396" y="664" on="1"/>
        <pt x="394" y="661" on="0"/>
        <pt x="391" y="644" on="0"/>
        <pt x="389" y="624" on="0"/>
        <pt x="387" y="607" on="0"/>
        <pt x="387" y="604" on="1"/>
        <pt x="387" y="600" on="0"/>
        <pt x="385" y="570" on="0"/>
        <pt x="383" y="536" on="0"/>
        <pt x="381" y="506" on="0"/>
        <pt x="380" y="503" on="1"/>
        <pt x="380" y="501" on="0"/>
        <pt x="371" y="483" on="0"/>
        <pt x="371" y="481" on="1"/>
        <pt x="371" y="460" on="1"/>
        <pt x="371" y="452" on="1"/>
        <pt x="371" y="445" on="0"/>
        <pt x="373" y="432" on="0"/>
        <pt x="380" y="426" on="1"/>
        <pt x="381" y="419" on="0"/>
        <pt x="387" y="382" on="0"/>
        <pt x="394" y="340" on="0"/>
        <pt x="401" y="303" on="0"/>
        <pt x="403" y="296" on="1"/>
        <pt x="406" y="288" on="0"/>
        <pt x="410" y="282" on="1"/>
        <pt x="413" y="277" on="0"/>
        <pt x="418" y="268" on="0"/>
        <pt x="418" y="266" on="1"/>
        <pt x="419" y="266" on="0"/>
        <pt x="423" y="255" on="0"/>
        <pt x="428" y="242" on="0"/>
        <pt x="432" y="231" on="0"/>
        <pt x="434" y="230" on="1"/>
        <pt x="436" y="226" on="0"/>
        <pt x="449" y="201" on="0"/>
        <pt x="466" y="171" on="0"/>
        <pt x="482" y="143" on="0"/>
        <pt x="486" y="137" on="1"/>
        <pt x="489" y="133" on="0"/>
        <pt x="521" y="112" on="0"/>
        <pt x="560" y="90" on="0"/>
        <pt x="595" y="70" on="0"/>
        <pt x="602" y="67" on="1"/>
        <pt x="611" y="62" on="0"/>
        <pt x="627" y="61" on="0"/>
        <pt x="636" y="61" on="1"/>
        <pt x="660" y="61" on="1"/>
        <pt x="696" y="61" on="0"/>
        <pt x="764" y="83" on="0"/>
        <pt x="827" y="117" on="0"/>
        <pt x="886" y="160" on="0"/>
        <pt x="915" y="180" on="1"/>
        <pt x="917" y="183" on="0"/>
        <pt x="939" y="201" on="0"/>
        <pt x="965" y="219" on="0"/>
        <pt x="987" y="234" on="0"/>
        <pt x="989" y="235" on="1"/>
        <pt x="1010" y="252" on="0"/>
        <pt x="1058" y="321" on="0"/>
        <pt x="1109" y="391" on="0"/>
        <pt x="1163" y="443" on="0"/>
        <pt x="1190" y="443" on="1"/>
        <pt x="1210" y="443" on="0"/>
        <pt x="1228" y="414" on="0"/>
        <pt x="1228" y="396" on="1"/>
        <pt x="1228" y="366" on="0"/>
        <pt x="1204" y="310" on="0"/>
        <pt x="1195" y="280" on="1"/>
        <pt x="1179" y="221" on="0"/>
        <pt x="1153" y="108" on="0"/>
        <pt x="1145" y="47" on="1"/>
        <pt x="1138" y="38" on="0"/>
        <pt x="1124" y="14" on="0"/>
        <pt x="1114" y="14" on="1"/>
        <pt x="1092" y="14" on="0"/>
        <pt x="1078" y="46" on="0"/>
        <pt x="1074" y="84" on="0"/>
        <pt x="1067" y="116" on="0"/>
        <pt x="1051" y="116" on="1"/>
        <pt x="1036" y="116" on="0"/>
        <pt x="1009" y="100" on="0"/>
        <pt x="983" y="79" on="0"/>
        <pt x="957" y="58" on="0"/>
        <pt x="944" y="52" on="1"/>
        <pt x="900" y="34" on="0"/>
        <pt x="821" y="2" on="0"/>
        <pt x="741" y="-23" on="0"/>
        <pt x="657" y="-38" on="0"/>
        <pt x="608" y="-40" on="1"/>
        <pt x="607" y="-36" on="0"/>
        <pt x="588" y="-32" on="0"/>
        <pt x="586" y="-29" on="1"/>
        <pt x="553" y="-23" on="0"/>
        <pt x="501" y="-10" on="0"/>
        <pt x="452" y="7" on="0"/>
        <pt x="402" y="30" on="0"/>
        <pt x="371" y="47" on="1"/>
        <pt x="369" y="48" on="0"/>
        <pt x="351" y="58" on="0"/>
        <pt x="349" y="61" on="1"/>
        <pt x="342" y="68" on="0"/>
        <pt x="309" y="101" on="0"/>
        <pt x="272" y="137" on="0"/>
        <pt x="241" y="169" on="0"/>
        <pt x="235" y="175" on="1"/>
        <pt x="228" y="181" on="0"/>
        <pt x="217" y="202" on="0"/>
        <pt x="207" y="224" on="0"/>
        <pt x="200" y="245" on="0"/>
        <pt x="198" y="251" on="1"/>
        <pt x="172" y="307" on="0"/>
        <pt x="143" y="417" on="0"/>
      </contour>
    </TTGlyph>
    <TTGlyph name="Cacute" xMin="143" yMin="-40" xMax="1510" yMax="1931">
      <component glyphName="C" x="0" y="0" flags="0x204"/>
      <component glyphName="Acute" x="292" y="0" flags="0x4"/>
    </TTGlyph>
    <TTGlyph name="Caron" xMin="640" yMin="1547" xMax="1121" yMax="1934">
      <contour>
        <pt x="767" y="1547" on="1"/>
        <pt x="754" y="1547" on="0"/>
        <pt x="736" y="1573" on="0"/>
        <pt x="730" y="1590" on="1"/>
        <pt x="718" y="1612" on="0"/>
        <pt x="700" y="1665" on="0"/>
        <pt x="699" y="1694" on="1"/>
        <pt x="697" y="1697" on="0"/>
        <pt x="691" y="1714" on="0"/>
        <pt x="683" y="1734" on="0"/>
        <pt x="676" y="1753" on="0"/>
        <pt x="674" y="1758" on="1"/>
        <pt x="667" y="1774" on="0"/>
        <pt x="657" y="1800" on="0"/>
        <pt x="650" y="1826" on="0"/>
        <pt x="644" y="1855" on="0"/>
        <pt x="641" y="1875" on="1"/>
        <pt x="641" y="1876" on="0"/>
        <pt x="640" y="1878" on="0"/>
        <pt x="640" y="1880" on="1"/>
        <pt x="640" y="1885" on="0"/>
        <pt x="643" y="1897" on="0"/>
        <pt x="645" y="1903" on="1"/>
        <pt x="645" y="1904" on="0"/>
        <pt x="646" y="1905" on="0"/>
        <pt x="646" y="1906" on="1"/>
        <pt x="646" y="1914" on="0"/>
        <pt x="664" y="1934" on="1"/>
        <pt x="686" y="1934" on="1"/>
        <pt x="692" y="1929" on="0"/>
        <pt x="696" y="1920" on="0"/>
        <pt x="702" y="1906" on="0"/>
        <pt x="715" y="1885" on="0"/>
        <pt x="730" y="1869" on="1"/>
        <pt x="733" y="1864" on="0"/>
        <pt x="742" y="1842" on="0"/>
        <pt x="753" y="1822" on="1"/>
        <pt x="765" y="1813" on="0"/>
        <pt x="780" y="1789" on="0"/>
        <pt x="793" y="1764" on="0"/>
        <pt x="808" y="1740" on="0"/>
        <pt x="821" y="1730" on="1"/>
        <pt x="827" y="1736" on="0"/>
        <pt x="845" y="1746" on="0"/>
        <pt x="865" y="1758" on="0"/>
        <pt x="881" y="1772" on="0"/>
        <pt x="885" y="1780" on="1"/>
        <pt x="911" y="1790" on="0"/>
        <pt x="951" y="1820" on="0"/>
        <pt x="988" y="1854" on="0"/>
        <pt x="1026" y="1889" on="0"/>
        <pt x="1050" y="1906" on="1"/>
        <pt x="1054" y="1906" on="0"/>
        <pt x="1068" y="1910" on="0"/>
        <pt x="1082" y="1914" on="0"/>
        <pt x="1094" y="1918" on="0"/>
        <pt x="1096" y="1918" on="1"/>
        <pt x="1103" y="1918" on="1"/>
        <pt x="1121" y="1918" on="0"/>
        <pt x="1121" y="1908" on="1"/>
        <pt x="1121" y="1905" on="0"/>
        <pt x="1119" y="1899" on="1"/>
        <pt x="1116" y="1889" on="0"/>
        <pt x="1098" y="1866" on="0"/>
        <pt x="1091" y="1857" on="1"/>
        <pt x="1089" y="1854" on="0"/>
        <pt x="1060" y="1824" on="0"/>
        <pt x="1026" y="1789" on="0"/>
        <pt x="994" y="1758" on="0"/>
        <pt x="990" y="1754" on="1"/>
        <pt x="988" y="1748" on="0"/>
        <pt x="970" y="1732" on="0"/>
        <pt x="944" y="1710" on="0"/>
        <pt x="912" y="1683" on="0"/>
        <pt x="896" y="1665" on="1"/>
        <pt x="888" y="1656" on="0"/>
        <pt x="873" y="1638" on="0"/>
        <pt x="856" y="1619" on="0"/>
        <pt x="836" y="1597" on="0"/>
        <pt x="822" y="1584" on="1"/>
        <pt x="808" y="1571" on="0"/>
        <pt x="778" y="1547" on="0"/>
      </contour>
    </TTGlyph>
    <TTGlyph name="Ccaron" xMin="143" yMin="-40" xMax="1461" yMax="1934">
      <component glyphName="C" x="0" y="0" flags="0x204"/>
      <component glyphName="Caron" x="267" y="0" flags="0x4"/>
    </TTGlyph>
</ttFont>
